#N canvas 0 0 1366 684 10;
#X msg -124 43 1;
#X msg -83 31 0;
#X obj -85 793 bng 15 250 50 0 empty empty empty 17 7 0 10 -262144
-1 -1;
#X msg -71 845 1;
#X msg -32 837 0;
#X obj -69 793 bng 15 250 50 0 empty empty empty 17 7 0 10 -262144
-1 -1;
#X floatatom 1533 -201 5 0 0 0 - #_14all -;
#X floatatom 1659 776 5 0 0 0 - - -;
#X obj 1631 806 bng 15 250 50 0 empty empty empty 17 7 0 10 -262144
-1 -1;
#X obj 1311 -176 bng 15 250 50 0 empty empty empty 17 7 0 10 -262144
-1 -1;
#X obj 1687 586 r glob;
#X obj 20 -30 r pvrs5ch;
#X obj 398 -12 r step1;
#X obj 30 -251 r steprocess;
#X obj 17 -228 r scon1;
#X obj 68 -227 r scon2;
#X obj 118 -227 r scon3;
#X obj 119 -206 r scon6;
#X obj 68 -206 r scon5;
#X obj 18 -206 r scon4;
#X obj 17 -171 r sconvergeall;
#X obj 7 -149 r sdiv1;
#X obj 9 -129 r sdiv4;
#X obj 59 -148 r sdiv2;
#X obj 59 -127 r sdiv5;
#X obj 109 -148 r sdiv3;
#X obj 110 -127 r sdiv6;
#X obj 15 -99 r sdivergeeall;
#X obj -166 595 r pglob;
#X obj 212 -135 r p1;
#X obj 125 812 r p4;
#X obj 278 -134 r p2;
#X obj 636 811 r p5;
#X obj 345 -133 r p3;
#X obj 1224 815 r p6;
#X obj 291 809 r vrand4;
#X obj 389 -102 r vrand1;
#X obj 356 811 r vrand5;
#X obj 455 -101 r vrand2;
#X obj 1546 829 r vrand6;
#X obj 522 -101 r vrand3;
#X obj 1262 817 r v6;
#X obj 525 -171 r v3;
#X obj 928 820 r v5;
#X obj 458 -171 r v2;
#X obj 224 804 r v4;
#X obj 392 -172 r v1;
#X obj -194 652 r vglob;
#X obj 624 -151 r rglob;
#X obj 665 -101 r r4;
#X obj 664 -122 r r1;
#X obj 730 -100 r r5;
#X obj 920 -183 r r2;
#X obj 798 -99 r r6;
#X obj 1472 -217 r r3;
#X obj 738 -229 r regdiag6;
#X obj 581 -245 r regdiag5;
#X obj 507 -243 r regdiag4;
#X obj 510 -269 r regdiag1;
#X obj 582 -270 r regdiag2;
#X obj 643 -268 r regdiag3;
#X obj 1668 495 r globactiv;
#X obj -202 483 r glob5;
#X obj -145 485 r globchrome;
#X obj 461 -58 r d51;
#X obj -283 860 r d54;
#X obj 959 -16 r d52;
#X obj 962 811 r d55;
#X obj 1243 -43 r d53;
#X obj 1613 829 r d56;
#X obj 502 -56 r chrome1;
#X obj -201 892 r chrome4;
#X obj 1006 -12 r chrome2;
#X obj 1005 816 r chrome5;
#X obj 1288 -46 r chrome3;
#X obj 1666 905 r chrome6;
#X obj 1427 -21 r metros;
#X obj 383 -42 r met1;
#X obj 196 828 r met4;
#X obj 514 63 r met2;
#X obj 936 838 r met5;
#X obj 1091 -16 r met3;
#X obj 1117 844 r met6;
#X obj 992 -228 r mcon1;
#X obj -24 815 s mon1;
#X obj 391 1617 s mon4;
#X obj 1083 1622 s mon5;
#X obj 27 816 s mon2;
#X obj 1048 847 s mon3;
#X obj 1133 1621 s mon6;
#X obj 1043 -227 r mcon2;
#X obj 1093 -227 r mcon3;
#X obj 1096 -208 r mcon6;
#X obj 1043 -206 r mcon5;
#X obj 993 -208 r mcon4;
#X obj 992 -171 r mconvergeall;
#X obj 983 -149 r mdiv1;
#X obj 984 -127 r mdiv4;
#X obj 1034 -148 r mdiv2;
#X obj 1084 -148 r mdiv3;
#X obj 1085 -127 r mdiv6;
#X obj 1034 -127 r mdiv5;
#X obj 981 -101 r mdivergeeall;
#X obj 1231 -306 r globdiag;
#X obj 1271 -277 r diag1;
#X obj 1272 -256 r diag4;
#X obj 1337 -254 r diag5;
#X obj 1337 -275 r diag2;
#X obj 1405 -254 r diag6;
#X obj 1404 -275 r diag3;
#X obj 128 -44 r step21;
#X obj 249 -58 r tet1;
#X obj 506 810 r tet4;
#X obj 301 -58 r tet2;
#X obj 556 812 r tet5;
#X obj 1157 -45 r tet3;
#X obj 1164 816 r tet6;
#X msg 100 29 0;
#X msg 111 -2 1;
#X obj 276 -268 r moo1;
#X obj -117 743 r moo4;
#X obj 872 -162 r moo2;
#X obj 853 809 r moo5;
#X obj 1336 -63 r moo3;
#X obj 1681 697 r moo6;
#X obj 80 -55 r eset;
#X msg 160 36 21;
#X msg 195 33 1;
#X obj 595 -50 r rdiagglob;
#X msg 332 27 1;
#X obj 731 -55 r rdiaglob2Hi;
#X msg 491 -203 7;
#X msg 731 -27 1;
#X msg 767 -29 2;
#X msg 756 -3 3;
#X msg 706 -175 6;
#X msg 762 -148 5;
#X msg 681 -150 3;
#X msg 768 -171 1;
#X msg 723 -152 2;
#X msg 514 2 4;
#X msg 612 -75 4;
#X msg 650 -74 4;
#X msg 922 -132 4;
#X msg 724 -77 4;
#X msg 1505 -115 4;
#X msg 799 -79 4;
#X msg 553 -207 1;
#X msg 583 -206 1;
#X msg 620 -208 1;
#X msg 650 -207 1;
#X msg 750 -201 1;
#X floatatom 206 -65 5 0 0 0 - #_steps -;
#X msg 840 -5 0;
#X msg 851 -36 1;
#X msg 896 9 21;
#X msg 929 10 1;
#X msg 1300 18 0;
#X msg 1311 -13 1;
#X msg 1356 32 21;
#X msg 1389 33 1;
#X msg 1679 855 0;
#X msg 1243 837 21;
#X msg 1426 822 1;
#X msg -143 868 0;
#X msg -132 837 1;
#X msg -87 882 21;
#X msg -54 883 1;
#X msg 770 814 0;
#X msg 800 808 1;
#X msg 826 828 21;
#X msg 859 829 1;
#X msg 1669 821 21;
#X obj 735 -262 r 21regdiag1;
#X obj 830 -248 r 21regdiag2;
#X obj 1596 -204 r 21regdiag3;
#X obj 410 833 r 21regdiag4;
#X obj 1366 830 r 21regdiag5;
#X obj 1458 827 r 21regdiag6;
#X obj 509 104 sequencer9;
#X obj 1689 538 r vlums;
#X obj 1070 106 sequencer9;
#X obj -49 103 sequencer9;
#X obj 538 869 sequencer9;
#X obj -21 875 sequencer9;
#X obj 1098 871 sequencer9;
#X msg 134 13 70;
#X msg 623 -24 140;
#X msg 1166 1 280;
#X msg 168 825 560;
#X msg 693 820 1120;
#X msg 1306 829 2240;
#X connect 0 0 2 0;
#X connect 0 0 179 0;
#X connect 0 0 181 0;
#X connect 0 0 182 0;
#X connect 1 0 5 0;
#X connect 1 0 179 0;
#X connect 1 0 181 0;
#X connect 1 0 182 0;
#X connect 2 0 3 0;
#X connect 3 0 183 0;
#X connect 3 0 184 0;
#X connect 3 0 185 0;
#X connect 4 0 183 0;
#X connect 4 0 184 0;
#X connect 4 0 185 0;
#X connect 5 0 4 0;
#X connect 6 0 7 0;
#X connect 6 0 179 2;
#X connect 6 0 181 2;
#X connect 6 0 182 8;
#X connect 7 0 183 2;
#X connect 7 0 184 2;
#X connect 7 0 185 2;
#X connect 8 0 191 0;
#X connect 8 0 190 0;
#X connect 8 0 189 0;
#X connect 9 0 8 0;
#X connect 9 0 188 0;
#X connect 9 0 187 0;
#X connect 9 0 186 0;
#X connect 10 0 179 4;
#X connect 10 0 179 24;
#X connect 10 0 181 4;
#X connect 10 0 181 24;
#X connect 10 0 182 4;
#X connect 10 0 182 24;
#X connect 10 0 183 4;
#X connect 10 0 183 24;
#X connect 10 0 184 4;
#X connect 10 0 184 24;
#X connect 10 0 185 4;
#X connect 10 0 185 24;
#X connect 11 0 9 0;
#X connect 11 0 179 5;
#X connect 11 0 181 5;
#X connect 11 0 182 5;
#X connect 11 0 183 5;
#X connect 11 0 184 5;
#X connect 11 0 185 5;
#X connect 12 0 127 0;
#X connect 12 0 156 0;
#X connect 12 0 160 0;
#X connect 12 0 167 0;
#X connect 12 0 171 0;
#X connect 12 0 163 0;
#X connect 28 0 179 10;
#X connect 28 0 181 10;
#X connect 28 0 182 10;
#X connect 28 0 183 10;
#X connect 28 0 184 10;
#X connect 28 0 185 10;
#X connect 29 0 182 10;
#X connect 30 0 184 10;
#X connect 31 0 179 10;
#X connect 32 0 183 10;
#X connect 33 0 181 10;
#X connect 34 0 185 10;
#X connect 35 0 184 16;
#X connect 36 0 182 16;
#X connect 37 0 183 16;
#X connect 38 0 179 16;
#X connect 39 0 185 16;
#X connect 40 0 181 16;
#X connect 41 0 185 11;
#X connect 42 0 181 11;
#X connect 43 0 183 11;
#X connect 44 0 179 11;
#X connect 45 0 184 11;
#X connect 46 0 182 11;
#X connect 47 0 179 11;
#X connect 47 0 181 11;
#X connect 47 0 182 11;
#X connect 47 0 183 11;
#X connect 47 0 184 11;
#X connect 47 0 185 11;
#X connect 48 0 140 0;
#X connect 49 0 142 0;
#X connect 50 0 141 0;
#X connect 51 0 144 0;
#X connect 52 0 143 0;
#X connect 53 0 146 0;
#X connect 54 0 145 0;
#X connect 55 0 151 0;
#X connect 55 0 138 0;
#X connect 56 0 150 0;
#X connect 56 0 139 0;
#X connect 57 0 149 0;
#X connect 57 0 137 0;
#X connect 58 0 129 0;
#X connect 58 0 131 0;
#X connect 59 0 147 0;
#X connect 59 0 135 0;
#X connect 60 0 148 0;
#X connect 60 0 136 0;
#X connect 61 0 118 0;
#X connect 61 0 117 0;
#X connect 61 0 153 0;
#X connect 61 0 154 0;
#X connect 61 0 157 0;
#X connect 61 0 158 0;
#X connect 61 0 164 0;
#X connect 61 0 168 0;
#X connect 61 0 169 0;
#X connect 61 0 172 0;
#X connect 61 0 161 0;
#X connect 61 0 165 0;
#X connect 61 0 182 7;
#X connect 61 0 185 7;
#X connect 62 0 179 19;
#X connect 62 0 181 19;
#X connect 62 0 182 19;
#X connect 62 0 183 19;
#X connect 62 0 184 19;
#X connect 62 0 185 19;
#X connect 63 0 179 20;
#X connect 63 0 181 20;
#X connect 63 0 182 20;
#X connect 63 0 183 20;
#X connect 63 0 184 20;
#X connect 63 0 185 20;
#X connect 64 0 182 21;
#X connect 65 0 184 21;
#X connect 66 0 179 21;
#X connect 67 0 183 21;
#X connect 68 0 181 21;
#X connect 69 0 185 21;
#X connect 70 0 182 22;
#X connect 71 0 184 22;
#X connect 72 0 179 22;
#X connect 73 0 183 22;
#X connect 74 0 181 22;
#X connect 75 0 185 22;
#X connect 76 0 9 0;
#X connect 77 0 182 8;
#X connect 78 0 184 1;
#X connect 79 0 179 1;
#X connect 80 0 183 1;
#X connect 81 0 181 1;
#X connect 82 0 185 1;
#X connect 110 0 126 0;
#X connect 110 0 159 0;
#X connect 110 0 155 0;
#X connect 110 0 166 0;
#X connect 110 0 170 0;
#X connect 110 0 162 0;
#X connect 111 0 182 9;
#X connect 112 0 184 9;
#X connect 113 0 179 9;
#X connect 114 0 183 9;
#X connect 115 0 181 9;
#X connect 116 0 185 9;
#X connect 117 0 182 7;
#X connect 118 0 182 7;
#X connect 119 0 182 7;
#X connect 120 0 184 7;
#X connect 121 0 179 7;
#X connect 122 0 183 7;
#X connect 123 0 181 7;
#X connect 124 0 185 7;
#X connect 125 0 179 6;
#X connect 125 0 181 6;
#X connect 125 0 182 6;
#X connect 125 0 183 6;
#X connect 125 0 184 6;
#X connect 125 0 185 6;
#X connect 126 0 179 9;
#X connect 126 0 181 9;
#X connect 126 0 182 9;
#X connect 127 0 179 9;
#X connect 127 0 181 9;
#X connect 127 0 182 9;
#X connect 128 0 129 0;
#X connect 128 0 131 0;
#X connect 128 0 135 0;
#X connect 128 0 136 0;
#X connect 128 0 137 0;
#X connect 128 0 139 0;
#X connect 128 0 138 0;
#X connect 129 0 182 12;
#X connect 130 0 132 0;
#X connect 130 0 133 0;
#X connect 130 0 134 0;
#X connect 131 0 182 18;
#X connect 132 0 182 18;
#X connect 132 0 184 18;
#X connect 133 0 179 18;
#X connect 133 0 183 18;
#X connect 134 0 181 18;
#X connect 134 0 185 18;
#X connect 135 0 179 18;
#X connect 136 0 181 18;
#X connect 137 0 184 18;
#X connect 138 0 185 18;
#X connect 139 0 183 18;
#X connect 140 0 179 18;
#X connect 140 0 181 18;
#X connect 140 0 182 18;
#X connect 140 0 183 18;
#X connect 140 0 184 18;
#X connect 140 0 185 18;
#X connect 141 0 182 18;
#X connect 142 0 184 18;
#X connect 143 0 179 18;
#X connect 144 0 183 18;
#X connect 145 0 181 18;
#X connect 146 0 185 18;
#X connect 147 0 179 12;
#X connect 148 0 181 12;
#X connect 149 0 184 12;
#X connect 150 0 183 12;
#X connect 151 0 185 12;
#X connect 152 0 179 9;
#X connect 152 0 181 9;
#X connect 152 0 182 9;
#X connect 152 0 183 9;
#X connect 152 0 184 9;
#X connect 152 0 185 9;
#X connect 153 0 179 7;
#X connect 154 0 179 7;
#X connect 155 0 179 9;
#X connect 156 0 179 9;
#X connect 157 0 181 7;
#X connect 158 0 181 7;
#X connect 159 0 181 9;
#X connect 160 0 181 9;
#X connect 161 0 185 7;
#X connect 162 0 185 9;
#X connect 163 0 185 9;
#X connect 164 0 184 7;
#X connect 165 0 184 7;
#X connect 166 0 184 9;
#X connect 167 0 184 9;
#X connect 168 0 183 7;
#X connect 169 0 183 7;
#X connect 170 0 183 9;
#X connect 171 0 183 9;
#X connect 172 0 185 9;
#X connect 173 0 182 23;
#X connect 174 0 179 23;
#X connect 175 0 181 23;
#X connect 176 0 184 23;
#X connect 177 0 183 23;
#X connect 178 0 185 23;
#X connect 179 0 87 0;
#X connect 180 0 179 25;
#X connect 180 0 181 25;
#X connect 180 0 182 25;
#X connect 180 0 183 25;
#X connect 180 0 184 25;
#X connect 180 0 185 25;
#X connect 181 0 88 0;
#X connect 182 0 84 0;
#X connect 183 0 86 0;
#X connect 184 0 85 0;
#X connect 185 0 89 0;
#X connect 186 0 182 8;
#X connect 187 0 179 1;
#X connect 188 0 181 1;
#X connect 189 0 184 1;
#X connect 190 0 183 1;
#X connect 191 0 185 1;
