#N canvas 4 22 1850 977 10;
#X msg -84 57 1;
#X msg -57 27 0;
#X obj -85 793 bng 15 250 50 0 empty empty empty 17 7 0 10 -262144
-1 -1;
#X msg -71 845 1;
#X msg -32 837 0;
#X obj -69 793 bng 15 250 50 0 empty empty empty 17 7 0 10 -262144
-1 -1;
#X floatatom 1622 47 5 0 0 0 - - -;
#X floatatom 1659 776 5 0 0 0 - - -;
#X msg 1306 829 988;
#X obj 1631 806 bng 15 250 50 0 empty empty empty 17 7 0 10 -262144
-1 -1;
#X msg 693 820 494;
#X msg 168 825 247;
#X obj 1640 84 bng 15 250 50 0 empty empty empty 17 7 0 10 -262144
-1 -1;
#X msg 1192 52 123.5;
#X msg 689 48 63;
#X msg 166 31 31;
#X obj 537 858 sequencer9;
#X obj -49 103 sequencer9;
#X obj 509 104 sequencer9;
#X obj 1070 106 sequencer9;
#X obj -21 857 sequencer9;
#X obj 1098 860 sequencer9;
#X connect 0 0 2 0;
#X connect 0 0 17 0;
#X connect 0 0 18 0;
#X connect 0 0 19 0;
#X connect 1 0 5 0;
#X connect 1 0 17 0;
#X connect 1 0 18 0;
#X connect 1 0 19 0;
#X connect 2 0 3 0;
#X connect 3 0 16 0;
#X connect 3 0 20 0;
#X connect 3 0 21 0;
#X connect 4 0 16 0;
#X connect 4 0 20 0;
#X connect 4 0 21 0;
#X connect 5 0 4 0;
#X connect 6 0 7 0;
#X connect 6 0 17 2;
#X connect 6 0 18 2;
#X connect 6 0 19 2;
#X connect 7 0 16 2;
#X connect 7 0 20 2;
#X connect 7 0 21 2;
#X connect 8 0 21 1;
#X connect 9 0 8 0;
#X connect 9 0 10 0;
#X connect 9 0 11 0;
#X connect 10 0 16 1;
#X connect 11 0 20 1;
#X connect 12 0 9 0;
#X connect 12 0 13 0;
#X connect 12 0 14 0;
#X connect 12 0 15 0;
#X connect 13 0 19 1;
#X connect 14 0 18 1;
#X connect 15 0 17 1;
