#N canvas 0 0 1366 684 10;
#X obj 33 52 tgl 15 0 empty empty empty 17 7 0 10 -262144 -1 -1 1 1
;
#X obj 36 81 s globall;
#X obj 2113 59 r globall;
#X obj 329 61 s spppp;
#X obj 2188 62 r spppp;
#X floatatom 337 38 5 0 0 0 - - -;
#X obj 937 54 bng 15 250 50 0 empty empty empty 17 7 0 10 -262144 -1
-1;
#X obj 972 59 s rndm;
#X floatatom 665 43 5 0 0 0 - - -;
#X obj 667 76 s stpps;
#X obj 2230 37 r stpps;
#X obj 2320 53 r rndm;
#X obj 2 146 Sequencer9;
#X obj 323 145 Sequencer9;
#X obj 638 146 Sequencer9;
#X obj 959 145 Sequencer9;
#X obj 1269 147 Sequencer9;
#X obj 1579 147 Sequencer9;
#X obj 1889 147 Sequencer9;
#X obj 2198 147 Sequencer9;
#X obj 2504 147 Sequencer9;
#X connect 0 0 1 0;
#X connect 0 0 12 0;
#X connect 0 0 13 0;
#X connect 0 0 14 0;
#X connect 0 0 15 0;
#X connect 0 0 16 0;
#X connect 2 0 17 0;
#X connect 2 0 18 0;
#X connect 2 0 19 0;
#X connect 2 0 20 0;
#X connect 4 0 16 1;
#X connect 4 0 17 1;
#X connect 4 0 18 1;
#X connect 4 0 19 1;
#X connect 4 0 20 1;
#X connect 5 0 3 0;
#X connect 5 0 12 1;
#X connect 5 0 13 1;
#X connect 5 0 14 1;
#X connect 5 0 15 1;
#X connect 6 0 7 0;
#X connect 6 0 12 3;
#X connect 6 0 13 3;
#X connect 6 0 14 3;
#X connect 6 0 15 3;
#X connect 8 0 9 0;
#X connect 8 0 12 2;
#X connect 8 0 13 2;
#X connect 8 0 14 2;
#X connect 8 0 15 2;
#X connect 10 0 16 2;
#X connect 10 0 17 2;
#X connect 10 0 18 2;
#X connect 10 0 19 2;
#X connect 10 0 20 2;
#X connect 11 0 16 3;
#X connect 11 0 17 3;
#X connect 11 0 18 3;
#X connect 11 0 19 3;
#X connect 11 0 20 3;
