#N canvas 0 0 450 300 10;
#N canvas 183 340 450 300 bastard 0;
#X obj 71 432 select 0;
#X obj 124 458 inv;
#X obj 71 457 f;
#X obj 71 407 inlet;
#X obj 71 483 outlet;
#X connect 0 0 2 0;
#X connect 0 1 1 0;
#X connect 1 0 2 1;
#X connect 2 0 4 0;
#X connect 3 0 0 0;
#X restore 632 557 pd bastard;
#X obj 84 443 select 0;
#X obj 84 468 f;
#X obj 84 418 inlet;
#X obj 84 494 outlet;
#X obj 83 517 s nummers;
#X obj 137 469 ggee/inv;
#X connect 1 0 2 0;
#X connect 1 1 6 0;
#X connect 2 0 4 0;
#X connect 2 0 5 0;
#X connect 3 0 1 0;
#X connect 6 0 2 1;
