#N canvas 21 34 679 402 10;
#X obj 59 43 inlet;
#X obj 225 196 makenote;
#X obj 14 142 metro;
#X obj 312 158 - 50;
#X obj 108 87 maxlib/scale -4 4 1 128 1;
#X obj 109 114 int;
#X obj 59 70 unpack f f f;
#X obj 444 86 maxlib/scale -4 4 30 500 1;
#X obj 14 62 r on;
#X obj 208 52 unpack f f f f f;
#X obj 204 26 r calibx;
#X obj 323 52 unpack f f f f f;
#X obj 319 27 r caliby;
#X obj 474 63 unpack f f f f f;
#X obj 474 39 r calibz;
#X obj 151 41 inlet;
#X obj 372 261 s midi_mon;
#X obj 377 159 select;
#X obj 233 227 spigot;
#X obj 373 188 tgl 15 0 empty empty empty 17 7 0 10 -262144 -1 -1 0
1;
#X obj 428 133 notein 4;
#X obj 376 108 r nummers;
#X obj 596 47 inlet;
#X obj 472 199 t b b;
#X msg 499 221 0;
#X obj 292 226 spigot;
#X obj 472 174 select;
#X msg 14 168 22;
#X obj 114 240 r $_swmamp;
#X obj 56 221 spigot;
#X obj 117 206 tgl 15 0 empty empty empty 17 7 0 10 -262144 -1 -1 1
1;
#X obj 168 150 loadbang;
#X msg 21 220 0;
#X obj 24 196 r $_ual;
#X obj 116 151 r $_own;
#X msg 117 175 1;
#X obj 274 86 maxlib/scale -4 4 70 500 1;
#X obj 248 315 netout;
#X text 293 113 removed per note length discussion;
#X obj 515 145 ggee/inv;
#X connect 0 0 6 0;
#X connect 1 0 18 0;
#X connect 1 1 25 0;
#X connect 2 0 27 0;
#X connect 3 0 1 2;
#X connect 4 0 5 0;
#X connect 5 0 29 0;
#X connect 6 0 4 0;
#X connect 6 1 36 0;
#X connect 6 2 7 0;
#X connect 8 0 2 0;
#X connect 9 0 4 1;
#X connect 9 1 4 2;
#X connect 9 2 4 3;
#X connect 9 3 4 4;
#X connect 9 4 4 5;
#X connect 10 0 9 0;
#X connect 11 0 36 1;
#X connect 11 1 36 2;
#X connect 11 2 36 3;
#X connect 11 3 36 4;
#X connect 11 4 36 5;
#X connect 12 0 11 0;
#X connect 13 0 7 1;
#X connect 13 1 7 2;
#X connect 13 2 7 3;
#X connect 13 3 7 4;
#X connect 13 4 7 5;
#X connect 14 0 13 0;
#X connect 15 0 27 0;
#X connect 17 0 19 0;
#X connect 18 0 16 0;
#X connect 18 0 37 0;
#X connect 19 0 18 1;
#X connect 19 0 25 1;
#X connect 20 0 17 0;
#X connect 21 0 17 0;
#X connect 21 0 26 0;
#X connect 22 0 17 1;
#X connect 22 0 39 0;
#X connect 23 0 19 0;
#X connect 23 1 24 0;
#X connect 24 0 18 0;
#X connect 24 0 25 0;
#X connect 25 0 37 1;
#X connect 26 0 23 0;
#X connect 27 0 1 0;
#X connect 28 0 1 1;
#X connect 29 0 1 1;
#X connect 30 0 29 1;
#X connect 31 0 30 0;
#X connect 32 0 30 0;
#X connect 33 0 32 0;
#X connect 34 0 35 0;
#X connect 35 0 30 0;
#X connect 36 0 2 1;
#X connect 36 0 3 0;
#X connect 39 0 26 1;
