#N canvas -4 -4 1366 684 10;
#X obj 50 23 r data;
#X obj -83 86 select boids3d 1;
#X floatatom 15 179 5 0 0 0 - - -;
#X obj 97 132 bng 15 250 50 0 empty empty empty 17 7 0 10 -262144 -1
-1;
#X floatatom 152 71 5 0 0 0 - - -;
#X floatatom 149 113 5 0 0 0 - - -;
#X obj 51 84 select 5;
#X connect 0 0 2 0;
#X connect 0 0 6 0;
#X connect 4 0 6 1;
#X connect 6 0 3 0;
#X connect 6 1 5 0;
