#N canvas 13 3 1317 647 10;
#X declare -lib cyclone Gem;
#X declare -lib boids3d;
#X obj 1160 140 theFlicker;
#X obj 16 161 mrtogs;
#X obj 16 227 mrkeys;
#X obj 15 296 SwarmCntrl;
#X obj 1152 207 Drop;
#X obj 1082 115 6Sequencers_Oct_Individual_Revision;
#X obj 365 130 bng 30 250 50 0 empty empty empty 17 7 0 10 -262144
-128992 -162280;
#X obj 405 130 bng 30 250 50 0 empty empty empty 17 7 0 10 -262144
-128992 -162280;
#X obj 441 130 bng 30 250 50 0 empty empty empty 17 7 0 10 -262144
-128992 -162280;
#X obj 481 129 bng 30 250 50 0 empty empty empty 17 7 0 10 -262144
-128992 -162280;
#X obj 518 129 bng 30 250 50 0 empty empty empty 17 7 0 10 -262144
-128992 -162280;
#X obj 555 129 bng 30 250 50 0 empty empty empty 17 7 0 10 -262144
-128992 -162280;
#X obj 593 129 bng 30 250 50 0 empty empty empty 17 7 0 10 -262144
-128992 -162280;
#X obj 385 90 bng 30 250 50 0 empty empty empty 17 7 0 10 -1 -128992
-162280;
#X obj 423 90 bng 30 250 50 0 empty empty empty 17 7 0 10 -1 -128992
-162280;
#X obj 493 91 bng 30 250 50 0 empty empty empty 17 7 0 10 -1 -128992
-162280;
#X obj 530 91 bng 30 250 50 0 empty empty empty 17 7 0 10 -1 -128992
-162280;
#X obj 568 91 bng 30 250 50 0 empty empty empty 17 7 0 10 -1 -128992
-162280;
#X obj 402 296 ControlMonitoringModule;
#X text 1193 476 comment;
#X text 433 395 comment;
#X text 414 466 comment;
#X obj 1059 184 s con;
#X obj 1037 184 bng 15 250 50 0 empty empty empty 17 7 0 10 -262144
-1 -1;
#X obj 1037 163 netoutmaster;
#X connect 6 0 1 0;
#X connect 7 0 1 2;
#X connect 8 0 1 4;
#X connect 9 0 1 5;
#X connect 10 0 1 7;
#X connect 11 0 1 9;
#X connect 12 0 1 11;
#X connect 13 0 1 1;
#X connect 14 0 1 3;
#X connect 15 0 1 6;
#X connect 16 0 1 8;
#X connect 17 0 1 10;
#X connect 23 0 22 0;
