#N canvas 142 65 1223 669 10;
#X obj 259 265 pipe;
#X obj 259 323 pipe;
#X obj 260 381 pipe;
#X obj 261 434 pipe;
#X obj 268 519 t b b;
#X obj 330 530 f;
#X obj 400 527 f;
#X obj 236 498 pipe;
#X obj 203 453 t f f;
#X obj 445 472 makenote;
#X obj 479 517 noteout;
#X obj 740 484 makenote;
#X obj 766 531 noteout;
#X obj 809 317 f;
#X obj 810 361 f;
#X obj 818 414 f;
#X floatatom 423 167 5 0 0 0 - - -;
#X obj 859 499 s midi_mon;
#X obj 780 149 b;
#X obj 795 264 f;
#X floatatom 221 566 5 0 0 0 - - -;
#X obj 259 236 t f f b;
#X obj 263 288 t f f b;
#X obj 260 348 t f f b;
#X obj 261 404 t f f b;
#X obj 796 178 random 28;
#X obj 796 203 + 100;
#X obj 468 150 b;
#X obj 905 235 random 28;
#X obj 868 256 + 80;
#X obj 871 295 random 28;
#X obj 878 316 + 60;
#X obj 883 344 random 28;
#X obj 890 365 + 40;
#X obj 871 416 random 28;
#X obj 878 437 + 20;
#X obj 316 365 * 5;
#X obj 315 428 * 13;
#X obj 253 471 * 21;
#X obj 384 242 pipe;
#X obj 376 299 pipe;
#X obj 383 357 pipe;
#X obj 384 426 pipe;
#X obj 315 189 + 1;
#X obj 373 188 - 1;
#X obj 313 257 * 2;
#X obj 292 313 * 3;
#X obj 201 277 + 2;
#X obj 181 335 + 3;
#X obj 167 383 + 4;
#X obj 179 426 + 5;
#X obj 379 273 - 2;
#X obj 391 330 - 3;
#X obj 392 386 - 4;
#X obj 393 458 - 5;
#X obj 470 176 random 800;
#X obj 107 277 s nummers;
#X floatatom 167 159 5 0 0 0 - - -;
#X obj 109 216 random 87;
#X obj 107 245 + 21;
#X obj 105 184 metro 60;
#X obj 108 159 tgl 15 0 empty empty empty 17 7 0 10 -262144 -1 -1 0
1;
#X floatatom 131 158 5 0 0 0 - - -;
#X text 105 142 go speed key range;
#X text 105 119 Drop runs;
#X obj 211 113 tgl 25 0 empty empty empty 17 7 0 10 -258113 -1 -1 0
1;
#X obj 336 125 spigot;
#X obj 291 83 r nummers;
#X obj 100 336 s killas;
#X connect 0 0 47 0;
#X connect 1 0 48 0;
#X connect 2 0 49 0;
#X connect 3 0 50 0;
#X connect 4 0 5 0;
#X connect 4 1 6 0;
#X connect 4 1 55 0;
#X connect 5 0 9 0;
#X connect 6 0 11 0;
#X connect 7 0 4 0;
#X connect 8 0 7 0;
#X connect 8 1 38 0;
#X connect 9 0 10 0;
#X connect 9 0 17 0;
#X connect 9 1 10 1;
#X connect 11 0 12 0;
#X connect 11 0 17 0;
#X connect 11 1 12 1;
#X connect 13 0 9 1;
#X connect 13 0 11 1;
#X connect 14 0 11 1;
#X connect 14 0 9 1;
#X connect 15 0 9 1;
#X connect 15 0 11 1;
#X connect 18 0 25 0;
#X connect 18 0 30 0;
#X connect 18 0 32 0;
#X connect 18 0 34 0;
#X connect 18 0 28 0;
#X connect 19 0 9 1;
#X connect 19 0 11 1;
#X connect 21 0 0 0;
#X connect 21 1 45 0;
#X connect 21 2 19 0;
#X connect 21 2 55 0;
#X connect 22 0 1 0;
#X connect 22 1 46 0;
#X connect 22 2 13 0;
#X connect 22 2 55 0;
#X connect 23 0 2 0;
#X connect 23 1 36 0;
#X connect 23 2 14 0;
#X connect 23 2 55 0;
#X connect 24 0 3 0;
#X connect 24 1 37 0;
#X connect 24 2 15 0;
#X connect 24 2 55 0;
#X connect 25 0 26 0;
#X connect 26 0 9 1;
#X connect 27 0 55 0;
#X connect 28 0 29 0;
#X connect 29 0 19 1;
#X connect 30 0 31 0;
#X connect 31 0 13 1;
#X connect 32 0 33 0;
#X connect 33 0 14 1;
#X connect 34 0 35 0;
#X connect 35 0 15 1;
#X connect 36 0 2 1;
#X connect 36 0 41 1;
#X connect 37 0 3 1;
#X connect 37 0 42 1;
#X connect 38 0 7 1;
#X connect 38 0 20 0;
#X connect 39 0 51 0;
#X connect 40 0 52 0;
#X connect 41 0 53 0;
#X connect 42 0 54 0;
#X connect 43 0 9 0;
#X connect 43 0 21 0;
#X connect 44 0 11 0;
#X connect 44 0 39 0;
#X connect 45 0 0 1;
#X connect 45 0 39 1;
#X connect 46 0 1 1;
#X connect 46 0 40 1;
#X connect 47 0 9 0;
#X connect 47 0 22 0;
#X connect 48 0 9 0;
#X connect 48 0 23 0;
#X connect 49 0 9 0;
#X connect 49 0 24 0;
#X connect 50 0 8 0;
#X connect 50 0 5 1;
#X connect 51 0 11 0;
#X connect 51 0 40 0;
#X connect 52 0 11 0;
#X connect 52 0 41 0;
#X connect 53 0 11 0;
#X connect 53 0 42 0;
#X connect 54 0 6 1;
#X connect 55 0 11 2;
#X connect 55 0 9 2;
#X connect 57 0 58 1;
#X connect 58 0 59 0;
#X connect 59 0 56 0;
#X connect 59 0 68 0;
#X connect 60 0 58 0;
#X connect 61 0 60 0;
#X connect 62 0 60 1;
#X connect 65 0 66 1;
#X connect 66 0 16 0;
#X connect 66 0 9 0;
#X connect 66 0 18 0;
#X connect 66 0 27 0;
#X connect 66 0 43 0;
#X connect 66 0 44 0;
#X connect 67 0 66 0;
#X coords 0 -1 1 1 145 80 1 100 100;
