#N canvas 0 0 1366 684 12;
#X obj -2186 119 loadbang;
#X obj -2179 152 bng 15 250 50 0 empty empty empty 17 7 0 10 -262144
-1 -1;
#X msg -1748 165 21;
#X msg -1703 165 22;
#X msg -1659 167 23;
#X msg -1616 166 24;
#X msg -1573 170 25;
#X msg -1532 163 26;
#X msg -1486 163 27;
#X msg -1443 165 28;
#X msg -1400 164 29;
#X msg -1358 164 30;
#X msg -904 152 40;
#X msg -1230 313 49;
#X msg -1273 314 48;
#X msg -1360 303 47;
#X msg -1406 305 46;
#X msg -1448 306 45;
#X msg -1490 306 44;
#X msg -1533 307 43;
#X msg -1577 305 42;
#X msg -856 153 41;
#X msg -1293 159 31;
#X msg -1254 162 32;
#X msg -1205 155 33;
#X msg -1162 154 34;
#X msg -1120 154 35;
#X msg -1077 151 36;
#X msg -1032 151 37;
#X msg -988 144 38;
#X msg -946 152 39;
#X msg -1188 312 50;
#X msg -1115 320 51;
#X msg -1070 320 52;
#X msg -684 319 53;
#X msg -983 321 54;
#X msg -941 321 55;
#X msg -899 318 56;
#X msg -853 318 57;
#X msg -810 320 58;
#X msg -767 319 59;
#X msg -724 319 60;
#X msg -1625 430 69;
#X msg -1717 438 68;
#X msg -1760 436 67;
#X msg -1805 438 66;
#X msg -1848 439 65;
#X msg -1890 439 64;
#X msg -1933 439 63;
#X msg -1991 433 62;
#X msg -2022 438 61;
#X msg -1536 436 72;
#X msg -1484 436 73;
#X msg -1441 435 74;
#X msg -1399 435 75;
#X msg -1357 432 76;
#X msg -1310 432 77;
#X msg -1268 434 78;
#X msg -1225 433 79;
#X msg -1183 432 80;
#X msg -1762 566 90;
#X msg -1804 566 89;
#X msg -1847 567 88;
#X msg -1890 565 87;
#X msg -1936 565 86;
#X msg -1978 568 85;
#X msg -2020 568 84;
#X msg -2063 569 83;
#X msg -2107 567 82;
#X msg -2152 567 81;
#X msg -1583 430 70;
#X msg -1716 563 91;
#X msg -1671 563 92;
#X msg -1627 565 93;
#X msg -1584 564 94;
#X msg -1540 563 95;
#X msg -1498 568 96;
#X msg -1452 567 97;
#X msg -1409 569 98;
#X msg -1366 568 99;
#X msg -1323 568 100;
#X msg -1275 568 101;
#X msg -1230 568 102;
#X msg -1188 567 103;
#X msg -1150 572 104;
#X msg -1101 569 105;
#X msg -1059 566 106;
#X msg -1012 566 107;
#X msg -970 568 108;
#X obj -2184 175 bng 15 250 50 0 empty empty empty 17 7 0 10 -262144
-1 -1;
#X obj -1425 51 s time;
#X obj -1355 54 s metros;
#X obj -1355 27 tgl 15 0 empty empty empty 17 7 0 10 -262144 -1 -1
1 1;
#X obj -1425 27 bng 15 250 50 0 empty empty empty 17 7 0 10 -262144
-1 -1;
#X obj -1755 198 flick;
#X obj -1700 221 flick;
#X obj -1655 195 flick;
#X obj -1613 223 flick;
#X obj -1566 196 flick;
#X obj -1506 220 flick;
#X obj -1400 229 flick;
#X obj -1446 202 flick;
#X obj -1375 197 flick;
#X obj -1320 220 flick;
#X obj -1275 194 flick;
#X obj -1233 222 flick;
#X obj -1186 195 flick;
#X obj -1126 219 flick;
#X obj -1020 228 flick;
#X obj -1066 201 flick;
#X obj -1010 186 flick;
#X obj -950 210 flick;
#X obj -844 219 flick;
#X obj -890 192 flick;
#X obj -837 185 flick;
#X obj -1589 338 flick;
#X obj -1534 385 flick;
#X obj -1489 359 flick;
#X obj -1447 387 flick;
#X obj -1400 360 flick;
#X obj -1340 384 flick;
#X obj -1234 393 flick;
#X obj -1280 366 flick;
#X obj -1209 361 flick;
#X obj -1154 384 flick;
#X obj -1109 358 flick;
#X obj -1067 386 flick;
#X obj -1020 359 flick;
#X obj -960 383 flick;
#X obj -854 392 flick;
#X obj -900 365 flick;
#X obj -844 350 flick;
#X obj -784 374 flick;
#X obj -2061 651 flick;
#X obj -724 356 flick;
#X obj -2054 617 flick;
#X obj -2075 481 flick;
#X obj -2020 504 flick;
#X obj -1975 478 flick;
#X obj -1933 506 flick;
#X obj -1886 479 flick;
#X obj -1826 503 flick;
#X obj -1720 512 flick;
#X obj -1766 485 flick;
#X obj -1695 480 flick;
#X obj -1640 503 flick;
#X obj -1595 477 flick;
#X obj -1553 505 flick;
#X obj -1506 478 flick;
#X obj -1446 502 flick;
#X obj -1340 511 flick;
#X obj -1386 484 flick;
#X obj -1330 469 flick;
#X obj -1270 493 flick;
#X obj -2136 632 flick;
#X obj -1210 475 flick;
#X obj -2129 598 flick;
#X obj -1996 624 flick;
#X obj -1942 648 flick;
#X obj -1897 622 flick;
#X obj -1855 650 flick;
#X obj -1808 623 flick;
#X obj -1748 647 flick;
#X obj -1637 663 flick;
#X obj -1688 629 flick;
#X obj -1612 631 flick;
#X obj -1557 654 flick;
#X obj -1512 628 flick;
#X obj -1470 656 flick;
#X obj -1423 629 flick;
#X obj -1363 653 flick;
#X obj -1172 646 flick;
#X obj -1303 635 flick;
#X obj -1162 604 flick;
#X obj -1102 628 flick;
#X obj -1042 610 flick;
#X obj -989 603 flick;
#X obj -1300 610 flick;
#X obj -1227 605 flick;
#X obj -1096 599 flick;
#X obj -1045 649 flick;
#X obj -1947 747 mrtogs;
#N canvas 47 104 1264 138 keys 1;
#X obj 3 57 mrkeys;
#X restore -1514 844 pd keys;
#X connect 0 0 1 0;
#X connect 0 0 89 0;
#X connect 1 0 60 0;
#X connect 1 0 61 0;
#X connect 1 0 62 0;
#X connect 1 0 80 0;
#X connect 1 0 79 0;
#X connect 1 0 78 0;
#X connect 1 0 15 0;
#X connect 1 0 16 0;
#X connect 1 0 17 0;
#X connect 1 0 18 0;
#X connect 1 0 19 0;
#X connect 1 0 20 0;
#X connect 1 0 21 0;
#X connect 1 0 12 0;
#X connect 1 0 30 0;
#X connect 1 0 29 0;
#X connect 1 0 28 0;
#X connect 1 0 27 0;
#X connect 1 0 26 0;
#X connect 1 0 25 0;
#X connect 1 0 24 0;
#X connect 1 0 23 0;
#X connect 1 0 22 0;
#X connect 1 0 50 0;
#X connect 1 0 49 0;
#X connect 1 0 48 0;
#X connect 1 0 47 0;
#X connect 1 0 46 0;
#X connect 1 0 45 0;
#X connect 1 0 44 0;
#X connect 1 0 43 0;
#X connect 1 0 42 0;
#X connect 1 0 70 0;
#X connect 2 0 94 0;
#X connect 3 0 95 0;
#X connect 4 0 96 0;
#X connect 5 0 97 0;
#X connect 6 0 98 0;
#X connect 7 0 99 0;
#X connect 8 0 101 0;
#X connect 9 0 100 0;
#X connect 10 0 102 0;
#X connect 11 0 103 0;
#X connect 12 0 112 0;
#X connect 13 0 121 0;
#X connect 14 0 122 0;
#X connect 15 0 120 0;
#X connect 16 0 119 0;
#X connect 17 0 118 0;
#X connect 18 0 117 0;
#X connect 19 0 116 0;
#X connect 20 0 115 0;
#X connect 21 0 114 0;
#X connect 22 0 104 0;
#X connect 23 0 105 0;
#X connect 24 0 106 0;
#X connect 25 0 107 0;
#X connect 26 0 109 0;
#X connect 27 0 108 0;
#X connect 28 0 110 0;
#X connect 29 0 111 0;
#X connect 30 0 113 0;
#X connect 31 0 123 0;
#X connect 32 0 124 0;
#X connect 33 0 125 0;
#X connect 34 0 134 0;
#X connect 35 0 126 0;
#X connect 36 0 127 0;
#X connect 37 0 128 0;
#X connect 38 0 130 0;
#X connect 39 0 129 0;
#X connect 40 0 131 0;
#X connect 41 0 132 0;
#X connect 42 0 144 0;
#X connect 43 0 142 0;
#X connect 44 0 143 0;
#X connect 45 0 141 0;
#X connect 46 0 140 0;
#X connect 47 0 139 0;
#X connect 48 0 138 0;
#X connect 49 0 137 0;
#X connect 50 0 136 0;
#X connect 51 0 146 0;
#X connect 52 0 147 0;
#X connect 53 0 148 0;
#X connect 54 0 149 0;
#X connect 55 0 151 0;
#X connect 56 0 150 0;
#X connect 57 0 152 0;
#X connect 58 0 153 0;
#X connect 59 0 155 0;
#X connect 60 0 162 0;
#X connect 61 0 161 0;
#X connect 62 0 160 0;
#X connect 63 0 159 0;
#X connect 64 0 158 0;
#X connect 65 0 157 0;
#X connect 66 0 135 0;
#X connect 67 0 133 0;
#X connect 68 0 156 0;
#X connect 69 0 154 0;
#X connect 70 0 145 0;
#X connect 71 0 164 0;
#X connect 72 0 163 0;
#X connect 73 0 165 0;
#X connect 74 0 166 0;
#X connect 75 0 167 0;
#X connect 76 0 168 0;
#X connect 77 0 169 0;
#X connect 78 0 170 0;
#X connect 79 0 172 0;
#X connect 80 0 177 0;
#X connect 81 0 171 0;
#X connect 82 0 178 0;
#X connect 83 0 173 0;
#X connect 84 0 174 0;
#X connect 85 0 179 0;
#X connect 86 0 175 0;
#X connect 87 0 180 0;
#X connect 88 0 176 0;
#X connect 89 0 88 0;
#X connect 89 0 87 0;
#X connect 89 0 77 0;
#X connect 89 0 63 0;
#X connect 89 0 86 0;
#X connect 89 0 76 0;
#X connect 89 0 64 0;
#X connect 89 0 85 0;
#X connect 89 0 84 0;
#X connect 89 0 81 0;
#X connect 89 0 82 0;
#X connect 89 0 83 0;
#X connect 89 0 71 0;
#X connect 89 0 69 0;
#X connect 89 0 72 0;
#X connect 89 0 68 0;
#X connect 89 0 73 0;
#X connect 89 0 74 0;
#X connect 89 0 75 0;
#X connect 89 0 67 0;
#X connect 89 0 66 0;
#X connect 89 0 65 0;
#X connect 89 0 11 0;
#X connect 89 0 10 0;
#X connect 89 0 9 0;
#X connect 89 0 8 0;
#X connect 89 0 7 0;
#X connect 89 0 6 0;
#X connect 89 0 5 0;
#X connect 89 0 4 0;
#X connect 89 0 3 0;
#X connect 89 0 2 0;
#X connect 89 0 14 0;
#X connect 89 0 13 0;
#X connect 89 0 31 0;
#X connect 89 0 32 0;
#X connect 89 0 33 0;
#X connect 89 0 34 0;
#X connect 89 0 35 0;
#X connect 89 0 36 0;
#X connect 89 0 37 0;
#X connect 89 0 38 0;
#X connect 89 0 39 0;
#X connect 89 0 40 0;
#X connect 89 0 41 0;
#X connect 89 0 51 0;
#X connect 89 0 52 0;
#X connect 89 0 53 0;
#X connect 89 0 54 0;
#X connect 89 0 55 0;
#X connect 89 0 56 0;
#X connect 89 0 57 0;
#X connect 89 0 58 0;
#X connect 89 0 59 0;
#X connect 92 0 91 0;
#X connect 93 0 90 0;
