#N canvas 16 -3 1211 679 12;
#X obj -275 576 s on;
#X obj -275 542 tgl 15 0 empty empty empty 17 7 0 10 -262144 -1 -1
0 1;
#X obj -1234 147 loadbang;
#X obj -1232 192 bng 15 250 50 0 empty empty empty 17 7 0 10 -262144
-1 -1;
#X msg -1269 906 set 108;
#X msg -1323 896 set 107;
#X msg -1376 875 set 106;
#X msg -1442 906 set 105;
#X msg -1496 874 set 104;
#X msg -1561 906 set 103;
#X msg -1626 884 set 102;
#X msg -1690 918 set 101;
#X msg -1833 904 set 100;
#X msg -1913 890 set 99;
#X msg -2006 914 set 98;
#X msg -2111 906 set 97;
#X msg -2222 924 set 96;
#X msg -801 742 set 95;
#X msg -884 714 set 94;
#X msg -959 718 set 93;
#X msg -1002 696 set 92;
#X msg -1078 718 set 91;
#X msg -1151 695 set 90;
#X msg -1207 728 set 89;
#X msg -1271 718 set 88;
#X msg -1296 696 set 87;
#X msg -1372 740 set 86;
#X msg -1426 708 set 85;
#X msg -1501 740 set 84;
#X msg -1566 718 set 83;
#X msg -1609 696 set 82;
#X msg -1685 728 set 81;
#X msg -1728 708 set 80;
#X msg -1804 740 set 79;
#X msg -1858 718 set 78;
#X msg -1933 740 set 77;
#X msg -1998 740 set 76;
#X msg -2052 718 set 75;
#X msg -2128 750 set 74;
#X msg -2182 718 set 73;
#X msg -2257 750 set 72;
#X msg -714 506 set 71;
#X msg -757 484 set 70;
#X msg -833 518 set 69;
#X msg -876 484 set 68;
#X msg -952 528 set 67;
#X msg -1006 496 set 66;
#X msg -1081 528 set 65;
#X msg -1156 528 set 64;
#X msg -1196 496 set 63;
#X msg -1246 528 set 62;
#X msg -1322 504 set 61;
#X msg -1376 538 set 60;
#X msg -1440 528 set 59;
#X msg -1484 496 set 58;
#X msg -1559 528 set 57;
#X msg -1627 501 set 56;
#X msg -1678 538 set 55;
#X msg -1731 519 set 54;
#X msg -1808 538 set 53;
#X msg -1883 538 set 52;
#X msg -1926 518 set 51;
#X msg -2002 550 set 50;
#X msg -2056 528 set 49;
#X msg -2132 550 set 48;
#X msg -352 326 set 47;
#X msg -395 304 set 46;
#X msg -471 338 set 45;
#X msg -514 304 set 44;
#X msg -589 338 set 43;
#X msg -643 316 set 42;
#X msg -762 358 set 41;
#X msg -839 331 set 40;
#X msg -874 368 set 39;
#X msg -945 315 set 38;
#X msg -987 336 set 37;
#X msg -1058 361 set 36;
#X msg -1078 338 set 35;
#X msg -1121 316 set 34;
#X msg -1271 357 set 33;
#X msg -1324 342 set 32;
#X msg -1316 358 set 31;
#X msg -1370 326 set 30;
#X msg -1445 358 set 29;
#X msg -1521 358 set 28;
#X msg -1564 338 set 27;
#X msg -1640 370 set 26;
#X msg -1694 338 set 25;
#X msg -1769 370 set 24;
#X msg -1834 370 set 23;
#X msg -1948 378 set 22;
#X msg -2038 382 set 21;
#X obj -1856 1013 mrtogs;
#N canvas 53 17 450 269 keys 1;
#X obj -1885 1091 MrKeys;
#X restore -1626 1097 pd keys;
#X msg -2068 477 21;
#X msg -2023 477 22;
#X msg -1979 479 23;
#X msg -1936 478 24;
#X msg -1894 478 25;
#X msg -1852 475 26;
#X msg -1806 475 27;
#X msg -1763 477 28;
#X msg -1720 476 29;
#X msg -1678 476 30;
#X msg -935 461 40;
#X msg -2128 655 49;
#X msg -2171 656 48;
#X msg -390 475 47;
#X msg -436 477 46;
#X msg -478 478 45;
#X msg -520 478 44;
#X msg -563 479 43;
#X msg -607 477 42;
#X msg -679 462 41;
#X msg -1383 433 31;
#X msg -1336 427 32;
#X msg -1236 464 33;
#X msg -1193 463 34;
#X msg -1151 463 35;
#X msg -1108 460 36;
#X msg -1063 460 37;
#X msg -1019 453 38;
#X msg -977 461 39;
#X msg -2086 654 50;
#X msg -2013 662 51;
#X msg -1968 662 52;
#X msg -1924 664 53;
#X msg -1881 663 54;
#X msg -1839 663 55;
#X msg -1797 660 56;
#X msg -1751 660 57;
#X msg -1708 662 58;
#X msg -1665 661 59;
#X msg -1622 661 60;
#X msg -793 641 69;
#X msg -885 649 68;
#X msg -928 647 67;
#X msg -973 649 66;
#X msg -1016 651 65;
#X msg -1058 650 64;
#X msg -1101 651 63;
#X msg -1145 649 62;
#X msg -1190 649 61;
#X msg -2257 857 72;
#X msg -2058 773 73;
#X msg -2015 772 74;
#X msg -1973 772 75;
#X msg -1931 769 76;
#X msg -1884 769 77;
#X msg -1842 771 78;
#X msg -1799 770 79;
#X msg -1757 769 80;
#X msg -1335 840 90;
#X msg -1377 840 89;
#X msg -1420 841 88;
#X msg -1463 839 87;
#X msg -1509 839 86;
#X msg -1551 842 85;
#X msg -1593 842 84;
#X msg -1636 843 83;
#X msg -1680 841 82;
#X msg -1725 841 81;
#X msg -751 641 70;
#X msg -1086 871 91;
#X msg -1041 871 92;
#X msg -997 873 93;
#X msg -954 872 94;
#X msg -910 871 95;
#X msg -2253 1020 96;
#X msg -2207 1019 97;
#X msg -2164 1021 98;
#X msg -2121 1020 99;
#X msg -2078 1020 100;
#X msg -1661 987 101;
#X msg -1616 987 102;
#X msg -1572 989 103;
#X msg -1536 991 104;
#X msg -1487 988 105;
#X msg -1445 985 106;
#X msg -1398 985 107;
#X msg -1356 987 108;
#X obj -2139 179 bng 15 250 50 0 empty empty empty 17 7 0 10 -262144
-1 -1;
#X msg -667 615 71;
#X obj -2168 951 bug;
#X obj -1618 951 bug;
#X obj -1425 950 bug;
#X obj -1499 941 bug;
#X obj -1727 973 bug;
#X obj -1544 960 bug;
#X obj -1976 588 bug;
#X obj -1823 850 bug;
#X obj -1613 747 bug;
#X obj -881 789 bug;
#X obj -2102 419 bug;
#X obj -1989 455 bug;
#X obj -1910 441 bug;
#X obj -1841 441 bug;
#X obj -1766 455 bug;
#X obj -1715 443 bug;
#X obj -1641 409 bug;
#X obj -1628 455 bug;
#X obj -1532 441 bug;
#X obj -1454 413 bug;
#X obj -1404 471 bug;
#X obj -1308 409 bug;
#X obj -1272 429 bug;
#X obj -1197 397 bug;
#X obj -1154 419 bug;
#X obj -1100 429 bug;
#X obj -1013 407 bug;
#X obj -959 429 bug;
#X obj -901 420 bug;
#X obj -870 419 bug;
#X obj -787 421 bug;
#X obj -715 423 bug;
#X obj -640 442 bug;
#X obj -585 413 bug;
#X obj -531 433 bug;
#X obj -437 343 bug;
#X obj -2192 620 bug;
#X obj -2106 588 bug;
#X obj -2052 610 bug;
#X obj -1976 622 bug;
#X obj -1868 610 bug;
#X obj -1782 576 bug;
#X obj -1738 610 bug;
#X obj -1652 566 bug;
#X obj -1609 598 bug;
#X obj -1533 566 bug;
#X obj -1490 588 bug;
#X obj -1436 610 bug;
#X obj -1350 576 bug;
#X obj -1296 598 bug;
#X obj -1220 566 bug;
#X obj -1182 614 bug;
#X obj -1078 598 bug;
#X obj -1016 582 bug;
#X obj -974 591 bug;
#X obj -928 624 bug;
#X obj -860 588 bug;
#X obj -783 564 bug;
#X obj -682 566 bug;
#X obj -2296 827 bug;
#X obj -2252 803 bug;
#X obj -2198 835 bug;
#X obj -2137 810 bug;
#X obj -2080 825 bug;
#X obj -1948 831 bug;
#X obj -1910 829 bug;
#X obj -1874 815 bug;
#X obj -1756 815 bug;
#X obj -1562 757 bug;
#X obj -1519 786 bug;
#X obj -1444 740 bug;
#X obj -1414 768 bug;
#X obj -1367 781 bug;
#X obj -1297 762 bug;
#X obj -1288 815 bug;
#X obj -1189 804 bug;
#X obj -1148 803 bug;
#X obj -1083 771 bug;
#X obj -1000 789 bug;
#X obj -925 767 bug;
#X obj -2280 969 bug;
#X obj -2052 959 bug;
#X obj -1971 937 bug;
#X obj -1917 957 bug;
#X obj -1808 949 bug;
#X obj -1370 931 bug;
#X obj -1316 951 bug;
#X obj -897 61 flick;
#X obj -1425 51 s time;
#X obj -1355 54 s metros;
#X obj -1355 27 tgl 15 0 empty empty empty 17 7 0 10 -262144 -1 -1
0 1;
#X obj -1425 27 bng 15 250 50 0 empty empty empty 17 7 0 10 -262144
-1 -1;
#X obj -412 433 flick;
#X connect 1 0 0 0;
#X connect 2 0 3 0;
#X connect 2 0 181 0;
#X connect 3 0 91 0;
#X connect 3 0 90 0;
#X connect 3 0 89 0;
#X connect 3 0 88 0;
#X connect 3 0 87 0;
#X connect 3 0 86 0;
#X connect 3 0 85 0;
#X connect 3 0 84 0;
#X connect 3 0 83 0;
#X connect 3 0 82 0;
#X connect 3 0 81 0;
#X connect 3 0 80 0;
#X connect 3 0 79 0;
#X connect 3 0 78 0;
#X connect 3 0 77 0;
#X connect 3 0 76 0;
#X connect 3 0 75 0;
#X connect 3 0 74 0;
#X connect 3 0 73 0;
#X connect 3 0 72 0;
#X connect 3 0 71 0;
#X connect 3 0 70 0;
#X connect 3 0 69 0;
#X connect 3 0 68 0;
#X connect 3 0 67 0;
#X connect 3 0 66 0;
#X connect 3 0 65 0;
#X connect 3 0 64 0;
#X connect 3 0 63 0;
#X connect 3 0 62 0;
#X connect 3 0 61 0;
#X connect 3 0 60 0;
#X connect 3 0 59 0;
#X connect 3 0 58 0;
#X connect 3 0 57 0;
#X connect 3 0 56 0;
#X connect 3 0 55 0;
#X connect 3 0 54 0;
#X connect 3 0 53 0;
#X connect 3 0 52 0;
#X connect 3 0 51 0;
#X connect 3 0 50 0;
#X connect 3 0 49 0;
#X connect 3 0 48 0;
#X connect 3 0 47 0;
#X connect 3 0 46 0;
#X connect 3 0 45 0;
#X connect 3 0 44 0;
#X connect 3 0 43 0;
#X connect 3 0 42 0;
#X connect 3 0 41 0;
#X connect 3 0 40 0;
#X connect 3 0 39 0;
#X connect 3 0 38 0;
#X connect 3 0 37 0;
#X connect 3 0 36 0;
#X connect 3 0 35 0;
#X connect 3 0 34 0;
#X connect 3 0 33 0;
#X connect 3 0 32 0;
#X connect 3 0 31 0;
#X connect 3 0 30 0;
#X connect 3 0 29 0;
#X connect 3 0 28 0;
#X connect 3 0 27 0;
#X connect 3 0 26 0;
#X connect 3 0 25 0;
#X connect 3 0 24 0;
#X connect 3 0 23 0;
#X connect 3 0 22 0;
#X connect 3 0 21 0;
#X connect 3 0 20 0;
#X connect 3 0 19 0;
#X connect 3 0 18 0;
#X connect 3 0 17 0;
#X connect 3 0 16 0;
#X connect 3 0 15 0;
#X connect 3 0 14 0;
#X connect 3 0 13 0;
#X connect 3 0 12 0;
#X connect 3 0 11 0;
#X connect 3 0 10 0;
#X connect 3 0 9 0;
#X connect 3 0 8 0;
#X connect 3 0 7 0;
#X connect 3 0 6 0;
#X connect 3 0 5 0;
#X connect 3 0 4 0;
#X connect 3 0 152 0;
#X connect 3 0 153 0;
#X connect 3 0 154 0;
#X connect 3 0 172 0;
#X connect 3 0 171 0;
#X connect 3 0 170 0;
#X connect 3 0 107 0;
#X connect 3 0 108 0;
#X connect 3 0 109 0;
#X connect 3 0 110 0;
#X connect 3 0 111 0;
#X connect 3 0 112 0;
#X connect 3 0 113 0;
#X connect 3 0 104 0;
#X connect 3 0 122 0;
#X connect 3 0 121 0;
#X connect 3 0 120 0;
#X connect 3 0 119 0;
#X connect 3 0 118 0;
#X connect 3 0 117 0;
#X connect 3 0 116 0;
#X connect 3 0 115 0;
#X connect 3 0 114 0;
#X connect 3 0 142 0;
#X connect 3 0 141 0;
#X connect 3 0 140 0;
#X connect 3 0 139 0;
#X connect 3 0 138 0;
#X connect 3 0 137 0;
#X connect 3 0 136 0;
#X connect 3 0 135 0;
#X connect 3 0 134 0;
#X connect 3 0 162 0;
#X connect 3 0 182 0;
#X connect 4 0 269 1;
#X connect 5 0 268 1;
#X connect 6 0 185 1;
#X connect 7 0 186 1;
#X connect 8 0 188 1;
#X connect 9 0 184 1;
#X connect 10 0 187 1;
#X connect 11 0 267 1;
#X connect 12 0 266 1;
#X connect 13 0 265 1;
#X connect 14 0 264 1;
#X connect 15 0 183 1;
#X connect 16 0 263 1;
#X connect 17 0 192 1;
#X connect 18 0 262 1;
#X connect 19 0 261 1;
#X connect 20 0 260 1;
#X connect 21 0 259 1;
#X connect 22 0 258 1;
#X connect 23 0 257 1;
#X connect 24 0 256 1;
#X connect 25 0 255 1;
#X connect 26 0 254 1;
#X connect 27 0 253 1;
#X connect 28 0 252 1;
#X connect 29 0 251 1;
#X connect 30 0 191 1;
#X connect 31 0 250 1;
#X connect 32 0 190 1;
#X connect 33 0 249 1;
#X connect 34 0 248 1;
#X connect 35 0 247 1;
#X connect 36 0 246 1;
#X connect 37 0 245 1;
#X connect 38 0 244 1;
#X connect 39 0 243 1;
#X connect 40 0 242 1;
#X connect 41 0 241 1;
#X connect 42 0 240 1;
#X connect 43 0 239 1;
#X connect 44 0 238 1;
#X connect 45 0 237 1;
#X connect 46 0 236 1;
#X connect 47 0 235 1;
#X connect 48 0 234 1;
#X connect 49 0 233 1;
#X connect 50 0 232 1;
#X connect 51 0 231 1;
#X connect 52 0 230 1;
#X connect 53 0 229 1;
#X connect 54 0 228 1;
#X connect 55 0 227 1;
#X connect 56 0 226 1;
#X connect 57 0 225 1;
#X connect 58 0 224 1;
#X connect 59 0 223 1;
#X connect 60 0 222 1;
#X connect 61 0 189 1;
#X connect 62 0 221 1;
#X connect 63 0 220 1;
#X connect 64 0 219 1;
#X connect 65 0 275 1;
#X connect 66 0 218 1;
#X connect 67 0 217 1;
#X connect 68 0 216 1;
#X connect 69 0 215 1;
#X connect 70 0 214 1;
#X connect 71 0 213 1;
#X connect 72 0 212 1;
#X connect 73 0 211 1;
#X connect 74 0 210 1;
#X connect 75 0 209 1;
#X connect 76 0 208 1;
#X connect 77 0 207 1;
#X connect 78 0 206 1;
#X connect 79 0 205 1;
#X connect 80 0 204 1;
#X connect 81 0 203 1;
#X connect 82 0 202 1;
#X connect 83 0 201 1;
#X connect 84 0 200 1;
#X connect 85 0 199 1;
#X connect 86 0 198 1;
#X connect 87 0 197 1;
#X connect 88 0 196 1;
#X connect 89 0 195 1;
#X connect 90 0 194 1;
#X connect 91 0 193 1;
#X connect 94 0 193 2;
#X connect 95 0 194 2;
#X connect 96 0 195 2;
#X connect 97 0 196 2;
#X connect 98 0 197 2;
#X connect 99 0 198 2;
#X connect 100 0 199 2;
#X connect 101 0 200 2;
#X connect 102 0 201 2;
#X connect 103 0 202 2;
#X connect 104 0 212 2;
#X connect 105 0 220 2;
#X connect 106 0 219 2;
#X connect 108 0 218 2;
#X connect 109 0 217 2;
#X connect 110 0 216 2;
#X connect 111 0 215 2;
#X connect 112 0 214 2;
#X connect 113 0 213 2;
#X connect 114 0 203 2;
#X connect 115 0 204 2;
#X connect 116 0 205 2;
#X connect 117 0 206 2;
#X connect 118 0 207 2;
#X connect 119 0 208 2;
#X connect 120 0 209 2;
#X connect 121 0 210 2;
#X connect 122 0 211 2;
#X connect 123 0 221 2;
#X connect 124 0 189 2;
#X connect 125 0 222 2;
#X connect 126 0 223 2;
#X connect 127 0 224 2;
#X connect 128 0 225 2;
#X connect 129 0 226 2;
#X connect 130 0 227 2;
#X connect 131 0 228 2;
#X connect 132 0 229 2;
#X connect 133 0 230 2;
#X connect 134 0 239 2;
#X connect 135 0 238 2;
#X connect 136 0 237 2;
#X connect 137 0 236 2;
#X connect 138 0 235 2;
#X connect 139 0 234 2;
#X connect 140 0 233 2;
#X connect 141 0 232 2;
#X connect 142 0 231 2;
#X connect 143 0 242 2;
#X connect 144 0 243 2;
#X connect 145 0 244 2;
#X connect 146 0 245 2;
#X connect 147 0 246 2;
#X connect 148 0 247 2;
#X connect 149 0 248 2;
#X connect 150 0 249 2;
#X connect 151 0 190 2;
#X connect 152 0 258 2;
#X connect 153 0 257 2;
#X connect 154 0 256 2;
#X connect 155 0 255 2;
#X connect 156 0 254 2;
#X connect 157 0 253 2;
#X connect 158 0 252 2;
#X connect 159 0 251 2;
#X connect 160 0 191 2;
#X connect 161 0 250 2;
#X connect 162 0 240 2;
#X connect 163 0 259 2;
#X connect 164 0 260 2;
#X connect 165 0 261 2;
#X connect 166 0 262 2;
#X connect 167 0 192 2;
#X connect 168 0 263 2;
#X connect 169 0 183 2;
#X connect 170 0 264 2;
#X connect 171 0 265 2;
#X connect 172 0 266 2;
#X connect 173 0 267 2;
#X connect 174 0 187 2;
#X connect 175 0 184 2;
#X connect 176 0 188 2;
#X connect 177 0 186 2;
#X connect 178 0 185 2;
#X connect 179 0 268 2;
#X connect 180 0 269 2;
#X connect 181 0 180 0;
#X connect 181 0 179 0;
#X connect 181 0 169 0;
#X connect 181 0 155 0;
#X connect 181 0 178 0;
#X connect 181 0 168 0;
#X connect 181 0 156 0;
#X connect 181 0 177 0;
#X connect 181 0 176 0;
#X connect 181 0 173 0;
#X connect 181 0 174 0;
#X connect 181 0 175 0;
#X connect 181 0 163 0;
#X connect 181 0 161 0;
#X connect 181 0 164 0;
#X connect 181 0 160 0;
#X connect 181 0 165 0;
#X connect 181 0 166 0;
#X connect 181 0 167 0;
#X connect 181 0 159 0;
#X connect 181 0 158 0;
#X connect 181 0 157 0;
#X connect 181 0 103 0;
#X connect 181 0 102 0;
#X connect 181 0 101 0;
#X connect 181 0 100 0;
#X connect 181 0 99 0;
#X connect 181 0 98 0;
#X connect 181 0 97 0;
#X connect 181 0 96 0;
#X connect 181 0 95 0;
#X connect 181 0 94 0;
#X connect 181 0 106 0;
#X connect 181 0 105 0;
#X connect 181 0 123 0;
#X connect 181 0 124 0;
#X connect 181 0 125 0;
#X connect 181 0 126 0;
#X connect 181 0 127 0;
#X connect 181 0 128 0;
#X connect 181 0 129 0;
#X connect 181 0 130 0;
#X connect 181 0 131 0;
#X connect 181 0 132 0;
#X connect 181 0 133 0;
#X connect 181 0 143 0;
#X connect 181 0 144 0;
#X connect 181 0 145 0;
#X connect 181 0 146 0;
#X connect 181 0 147 0;
#X connect 181 0 148 0;
#X connect 181 0 149 0;
#X connect 181 0 150 0;
#X connect 181 0 151 0;
#X connect 182 0 241 2;
#X connect 273 0 272 0;
#X connect 274 0 271 0;
