#N canvas 273 102 838 585 10;
#X obj 236 108 metro 666;
#X obj 236 85 tgl 15 0 empty empty empty 17 7 0 10 -262144 -1 -1 0
1;
#X obj 148 109 f;
#X obj 148 134 + 1;
#X obj -45 411 pack;
#X obj 82 378 pack;
#X obj -66 222 t b b;
#X obj 55 262 t b b;
#X obj 147 159 mod 18;
#X obj 68 192 select 17;
#X obj -7 190 bang;
#X obj 64 13 r time;
#X obj 471 23 inlet;
#X obj 360 366 makenote;
#X obj 429 459 s midi_mon;
#X obj 432 346 select;
#X obj 360 440 spigot;
#X obj 432 390 tgl 15 0 empty empty empty 17 7 0 10 -262144 -1 -1 0
1;
#X obj 432 324 notein 4;
#X obj 432 300 r nummers;
#X obj 529 392 t b b;
#X msg 534 423 0;
#X obj 385 400 spigot;
#X obj 529 372 select;
#X obj 338 169 r chngcntr;
#X obj 360 215 + 1;
#X obj 409 171 r chngdrnk;
#X obj 479 170 r chngdrnksz;
#X obj 562 169 r chngamplrng;
#X obj 654 169 r chngtm;
#X obj 588 204 r chngdnk;
#X obj 680 204 r dnkstp;
#X obj 322 129 f;
#X obj 45 486 f;
#X obj 305 19 r metrostep;
#X obj 170 558 bng 15 250 50 0 empty empty empty 17 7 0 10 -262144
-1 -1;
#X obj -34 550 bng 15 250 50 0 empty empty empty 17 7 0 10 -262144
-1 -1;
#X obj 236 11 r metroz;
#X obj 217 497 r cresc;
#X obj 319 336 + 70;
#X obj 381 528 netout;
#X obj 65 557 select 0;
#X obj 274 421 + 10;
#X obj 168 202 17;
#X msg 44 373 10;
#X msg -73 412 20;
#X obj 0 559 select 20;
#X obj 79 440 line 20 500;
#X obj -64 320 cyclone/drunk 10000 500;
#X obj 99 316 cyclone/drunk 10000 500;
#X obj 48 229 cyclone/drunk 400 150;
#X obj 572 343 ggee/inv;
#X connect 0 0 2 0;
#X connect 0 0 32 0;
#X connect 0 0 33 0;
#X connect 1 0 0 0;
#X connect 2 0 3 0;
#X connect 2 0 8 0;
#X connect 3 0 2 1;
#X connect 4 0 47 0;
#X connect 5 0 47 0;
#X connect 6 0 48 0;
#X connect 6 1 45 0;
#X connect 7 0 49 0;
#X connect 7 1 44 0;
#X connect 8 0 9 0;
#X connect 9 0 43 0;
#X connect 9 0 50 0;
#X connect 10 0 44 0;
#X connect 11 0 10 0;
#X connect 12 0 32 1;
#X connect 12 0 15 1;
#X connect 12 0 51 0;
#X connect 13 0 16 0;
#X connect 13 1 22 0;
#X connect 15 0 17 0;
#X connect 16 0 14 0;
#X connect 16 0 40 0;
#X connect 17 0 16 1;
#X connect 17 0 22 1;
#X connect 18 0 15 0;
#X connect 19 0 15 0;
#X connect 19 0 23 0;
#X connect 20 0 17 0;
#X connect 20 1 21 0;
#X connect 21 0 16 0;
#X connect 21 0 22 0;
#X connect 22 0 40 1;
#X connect 23 0 20 0;
#X connect 24 0 9 1;
#X connect 24 0 25 0;
#X connect 24 0 43 1;
#X connect 25 0 8 1;
#X connect 26 0 50 1;
#X connect 27 0 50 2;
#X connect 28 0 47 1;
#X connect 29 0 47 2;
#X connect 30 0 48 1;
#X connect 30 0 49 1;
#X connect 31 0 48 2;
#X connect 31 0 49 2;
#X connect 32 0 13 0;
#X connect 33 0 41 0;
#X connect 33 0 46 0;
#X connect 34 0 0 1;
#X connect 37 0 1 0;
#X connect 38 0 4 0;
#X connect 38 0 46 1;
#X connect 38 0 47 1;
#X connect 39 0 13 2;
#X connect 41 0 35 0;
#X connect 41 0 6 0;
#X connect 42 0 13 1;
#X connect 43 0 9 1;
#X connect 44 0 5 0;
#X connect 45 0 4 0;
#X connect 46 0 36 0;
#X connect 46 0 7 0;
#X connect 47 0 33 1;
#X connect 47 0 42 0;
#X connect 48 0 4 1;
#X connect 49 0 5 1;
#X connect 50 0 0 1;
#X connect 50 0 39 0;
#X connect 51 0 23 1;
