#N canvas 73 -1 1037 669 10;
#X obj 209 70 r nummers;
#X obj 133 210 pipe;
#X obj 132 268 pipe;
#X obj 133 326 pipe;
#X obj 134 379 pipe;
#X obj 207 165 + 12;
#X obj 206 220 + 8;
#X obj 206 276 + 6;
#X obj 207 332 + 5;
#X obj 209 404 + 4;
#X obj 265 164 - 12;
#X obj 264 219 - 8;
#X obj 264 275 - 6;
#X obj 265 331 - 5;
#X obj 266 403 - 4;
#X obj 165 258 * 2;
#X obj 187 312 * 3;
#X obj 188 373 * 4;
#X obj 141 464 t b b;
#X obj 203 475 f;
#X obj 273 472 f;
#X obj 109 443 pipe;
#X obj 122 417 * 5;
#X obj 76 398 t f f;
#X obj 344 410 makenote;
#X obj 352 462 noteout;
#X obj 404 410 makenote;
#X obj 412 462 noteout;
#X obj 458 149 random 60;
#X obj 458 175 + 60;
#X obj 480 218 / 2;
#X obj 489 266 / 3;
#X obj 486 324 / 4;
#X obj 132 181 t b f f;
#X obj 132 237 t b f f;
#X obj 455 248 f;
#X obj 456 292 f;
#X obj 464 345 f;
#X obj 133 293 t b f f;
#X obj 134 349 t b f f;
#X connect 0 0 5 0;
#X connect 0 0 10 0;
#X connect 1 0 6 0;
#X connect 1 0 11 0;
#X connect 2 0 7 0;
#X connect 2 0 12 0;
#X connect 3 0 8 0;
#X connect 3 0 13 0;
#X connect 4 0 9 0;
#X connect 4 0 14 0;
#X connect 5 0 24 0;
#X connect 5 0 33 0;
#X connect 6 0 24 0;
#X connect 6 0 34 0;
#X connect 7 0 24 0;
#X connect 7 0 38 0;
#X connect 8 0 24 0;
#X connect 8 0 39 0;
#X connect 9 0 23 0;
#X connect 9 0 19 1;
#X connect 10 0 26 0;
#X connect 11 0 26 0;
#X connect 12 0 26 0;
#X connect 13 0 26 0;
#X connect 14 0 20 1;
#X connect 15 0 2 1;
#X connect 15 0 24 2;
#X connect 15 0 26 2;
#X connect 16 0 3 1;
#X connect 16 0 24 2;
#X connect 16 0 26 2;
#X connect 17 0 4 1;
#X connect 17 0 24 2;
#X connect 17 0 26 2;
#X connect 18 0 19 0;
#X connect 18 1 20 0;
#X connect 19 0 24 0;
#X connect 20 0 26 0;
#X connect 21 0 18 0;
#X connect 22 0 21 1;
#X connect 23 0 21 0;
#X connect 23 1 22 0;
#X connect 24 0 25 0;
#X connect 26 0 27 0;
#X connect 28 0 29 0;
#X connect 29 0 24 1;
#X connect 29 0 26 1;
#X connect 29 0 30 0;
#X connect 30 0 31 0;
#X connect 30 0 35 1;
#X connect 31 0 32 0;
#X connect 31 0 36 1;
#X connect 32 0 37 1;
#X connect 33 0 1 0;
#X connect 33 1 1 1;
#X connect 33 1 24 2;
#X connect 33 1 26 2;
#X connect 33 2 28 0;
#X connect 34 0 2 0;
#X connect 34 1 15 0;
#X connect 34 2 35 0;
#X connect 35 0 24 1;
#X connect 35 0 26 1;
#X connect 36 0 26 1;
#X connect 36 0 24 1;
#X connect 37 0 24 1;
#X connect 37 0 26 1;
#X connect 38 0 3 0;
#X connect 38 1 16 0;
#X connect 38 2 36 0;
#X connect 39 0 4 0;
#X connect 39 1 17 0;
#X connect 39 2 37 0;
