#N canvas 907 -10 450 669 10;
#X floatatom 202 83 5 0 0 0 - - -;
#X obj 202 108 mtof;
#X floatatom 202 133 5 0 0 0 - - -;
#X obj 202 59 r nummers;
#X obj 207 165 * 2;
#X floatatom 207 191 5 0 0 0 - - -;
#X obj 206 220 * 3;
#X floatatom 206 242 5 0 0 0 - - -;
#X obj 131 148 pipe;
#X obj 131 125 t f f;
#X obj 132 203 pipe;
#X obj 132 181 t f f;
#X floatatom 206 298 5 0 0 0 - - -;
#X obj 132 259 pipe;
#X obj 132 237 t f f;
#X obj 206 276 * 4;
#X floatatom 207 354 5 0 0 0 - - -;
#X obj 133 315 pipe;
#X obj 133 293 t f f;
#X obj 207 332 * 5;
#X floatatom 208 410 5 0 0 0 - - -;
#X obj 134 371 pipe;
#X obj 134 349 t f f;
#X obj 208 388 * 6;
#X floatatom 207 466 5 0 0 0 - - -;
#X obj 133 427 pipe;
#X obj 133 405 t f f;
#X obj 207 444 * 7;
#X floatatom 206 522 5 0 0 0 - - -;
#X obj 132 483 pipe;
#X obj 132 461 t f f;
#X obj 206 500 * 8;
#X floatatom 205 578 5 0 0 0 - - -;
#X obj 131 539 pipe;
#X obj 131 517 t f f;
#X obj 205 556 * 9;
#X floatatom 265 190 5 0 0 0 - - -;
#X floatatom 264 241 5 0 0 0 - - -;
#X floatatom 264 297 5 0 0 0 - - -;
#X floatatom 265 353 5 0 0 0 - - -;
#X floatatom 266 409 5 0 0 0 - - -;
#X floatatom 265 465 5 0 0 0 - - -;
#X floatatom 264 521 5 0 0 0 - - -;
#X floatatom 263 577 5 0 0 0 - - -;
#X obj 265 164 / 2;
#X obj 264 219 / 3;
#X obj 264 275 / 4;
#X obj 265 331 / 5;
#X obj 266 385 / 6;
#X obj 265 443 / 7;
#X obj 264 499 / 8;
#X obj 262 555 / 9;
#X obj 32 221 ftom;
#X floatatom 31 271 5 0 0 0 - - -;
#X connect 0 0 1 0;
#X connect 1 0 2 0;
#X connect 1 0 9 0;
#X connect 3 0 0 0;
#X connect 4 0 5 0;
#X connect 4 0 11 0;
#X connect 5 0 52 0;
#X connect 6 0 7 0;
#X connect 6 0 14 0;
#X connect 8 0 4 0;
#X connect 8 0 44 0;
#X connect 9 0 8 0;
#X connect 9 1 8 1;
#X connect 10 0 6 0;
#X connect 10 0 45 0;
#X connect 11 0 10 0;
#X connect 11 1 10 1;
#X connect 13 0 15 0;
#X connect 13 0 46 0;
#X connect 14 0 13 0;
#X connect 14 1 13 1;
#X connect 15 0 12 0;
#X connect 15 0 18 0;
#X connect 17 0 19 0;
#X connect 17 0 47 0;
#X connect 18 0 17 0;
#X connect 18 1 17 1;
#X connect 19 0 16 0;
#X connect 19 0 22 0;
#X connect 21 0 23 0;
#X connect 21 0 48 0;
#X connect 22 0 21 0;
#X connect 22 1 21 1;
#X connect 23 0 20 0;
#X connect 23 0 26 0;
#X connect 25 0 27 0;
#X connect 25 0 49 0;
#X connect 26 0 25 0;
#X connect 26 1 25 1;
#X connect 27 0 24 0;
#X connect 27 0 30 0;
#X connect 29 0 31 0;
#X connect 29 0 50 0;
#X connect 30 0 29 0;
#X connect 30 1 29 1;
#X connect 31 0 28 0;
#X connect 31 0 34 0;
#X connect 33 0 35 0;
#X connect 33 0 51 0;
#X connect 34 0 33 0;
#X connect 34 1 33 1;
#X connect 35 0 32 0;
#X connect 44 0 36 0;
#X connect 45 0 37 0;
#X connect 46 0 38 0;
#X connect 47 0 39 0;
#X connect 48 0 40 0;
#X connect 49 0 41 0;
#X connect 50 0 42 0;
#X connect 51 0 43 0;
#X connect 52 0 53 0;
