#N canvas 30 5 1223 669 10;
#X obj 209 70 r nummers;
#X obj 133 210 pipe;
#X obj 132 268 pipe;
#X obj 133 326 pipe;
#X obj 134 379 pipe;
#X obj 188 134 + 12;
#X obj 207 228 + 8;
#X obj 206 276 + 6;
#X obj 209 404 + 4;
#X obj 246 133 - 12;
#X obj 252 218 - 8;
#X obj 264 275 - 6;
#X obj 265 331 - 5;
#X obj 266 403 - 4;
#X obj 141 464 t b b;
#X obj 203 475 f;
#X obj 273 472 f;
#X obj 109 443 pipe;
#X obj 76 398 t f f;
#X obj 318 417 makenote;
#X obj 352 462 noteout;
#X obj 386 415 makenote;
#X obj 412 462 noteout;
#X obj 455 248 f;
#X obj 456 292 f;
#X obj 464 345 f;
#X obj 33 -14 mrtogs;
#X obj 12 548 mrkeys;
#X floatatom 296 112 5 0 0 0 - - -;
#X obj 505 430 s midi_mon;
#X obj 426 80 b;
#X obj 441 195 f;
#X floatatom 94 511 5 0 0 0 - - -;
#X obj 132 181 t f f b;
#X obj 133 238 t f f b;
#X obj 133 293 t f f b;
#X obj 134 349 t f f b;
#X obj 442 109 random 28;
#X obj 442 134 + 100;
#X obj 341 95 b;
#X obj 343 121 random 500;
#X obj 551 166 random 28;
#X obj 514 187 + 80;
#X obj 517 226 random 28;
#X obj 524 247 + 60;
#X obj 529 275 random 28;
#X obj 536 296 + 40;
#X obj 517 347 random 28;
#X obj 524 368 + 20;
#X floatatom 73 295 5 0 0 0 - - -;
#X obj 165 258 * 3;
#X obj 187 312 * 5;
#X obj 207 332 + 8;
#X obj 188 373 * 13;
#X obj 126 416 * 21;
#X obj 186 202 * 2;
#X obj 257 187 pipe;
#X obj 249 244 pipe;
#X obj 256 302 pipe;
#X obj 257 371 pipe;
#X connect 0 0 5 0;
#X connect 0 0 9 0;
#X connect 0 0 28 0;
#X connect 0 0 19 0;
#X connect 0 0 30 0;
#X connect 0 0 39 0;
#X connect 1 0 6 0;
#X connect 2 0 7 0;
#X connect 3 0 52 0;
#X connect 4 0 8 0;
#X connect 5 0 19 0;
#X connect 5 0 33 0;
#X connect 6 0 19 0;
#X connect 6 0 34 0;
#X connect 7 0 19 0;
#X connect 7 0 35 0;
#X connect 8 0 18 0;
#X connect 8 0 15 1;
#X connect 9 0 21 0;
#X connect 9 0 56 0;
#X connect 10 0 21 0;
#X connect 10 0 57 0;
#X connect 11 0 21 0;
#X connect 11 0 58 0;
#X connect 12 0 21 0;
#X connect 12 0 59 0;
#X connect 13 0 16 1;
#X connect 14 0 15 0;
#X connect 14 1 16 0;
#X connect 15 0 19 0;
#X connect 16 0 21 0;
#X connect 17 0 14 0;
#X connect 18 0 17 0;
#X connect 18 1 54 0;
#X connect 19 0 20 0;
#X connect 19 0 29 0;
#X connect 19 1 20 1;
#X connect 21 0 22 0;
#X connect 21 0 29 0;
#X connect 21 1 22 1;
#X connect 23 0 19 1;
#X connect 23 0 21 1;
#X connect 24 0 21 1;
#X connect 24 0 19 1;
#X connect 25 0 19 1;
#X connect 25 0 21 1;
#X connect 30 0 37 0;
#X connect 30 0 43 0;
#X connect 30 0 45 0;
#X connect 30 0 47 0;
#X connect 30 0 41 0;
#X connect 31 0 19 1;
#X connect 31 0 21 1;
#X connect 33 0 1 0;
#X connect 33 1 55 0;
#X connect 33 2 31 0;
#X connect 34 0 2 0;
#X connect 34 1 50 0;
#X connect 34 2 23 0;
#X connect 35 0 3 0;
#X connect 35 1 51 0;
#X connect 35 2 24 0;
#X connect 36 0 4 0;
#X connect 36 1 53 0;
#X connect 36 2 25 0;
#X connect 37 0 38 0;
#X connect 38 0 19 1;
#X connect 39 0 40 0;
#X connect 40 0 21 2;
#X connect 40 0 19 2;
#X connect 41 0 42 0;
#X connect 42 0 31 1;
#X connect 43 0 44 0;
#X connect 44 0 23 1;
#X connect 45 0 46 0;
#X connect 46 0 24 1;
#X connect 47 0 48 0;
#X connect 48 0 25 1;
#X connect 50 0 2 1;
#X connect 50 0 57 1;
#X connect 51 0 3 1;
#X connect 51 0 49 0;
#X connect 51 0 58 1;
#X connect 52 0 19 0;
#X connect 52 0 36 0;
#X connect 53 0 4 1;
#X connect 53 0 59 1;
#X connect 54 0 17 1;
#X connect 54 0 32 0;
#X connect 55 0 1 1;
#X connect 55 0 56 1;
#X connect 56 0 10 0;
#X connect 57 0 11 0;
#X connect 58 0 12 0;
#X connect 59 0 13 0;
