#N canvas 625 145 450 300 10;
#X obj -550 639 unpack f f f f;
#X floatatom -556 690 5 0 0 0 - - -;
#X floatatom -516 689 5 0 0 0 - - -;
#X floatatom -436 689 5 0 0 0 - - -;
#X floatatom -475 687 5 0 0 0 - - -;
#X floatatom -584 764 5 0 0 0 - - -;
#X floatatom -444 779 5 0 0 0 - - -;
#X obj -510 814 makenote;
#X floatatom -429 847 5 0 0 0 - - -;
#X obj -691 769 metro;
#X obj -691 797 bng 15 250 50 0 empty empty empty 17 7 0 10 -262144
-1 -1;
#X obj -444 803 - 50;
#X obj -509 884 noteout;
#X msg -655 797 51;
#X obj -556 710 int;
#X obj -445 735 int;
#X obj -444 756 zmappy -2 3 0 700;
#X obj -584 735 zmappy -4 10 0 128;
#X obj -548 613 inlet;
#X obj -685 637 inlet;
#X connect 0 0 1 0;
#X connect 0 1 2 0;
#X connect 0 2 4 0;
#X connect 0 3 3 0;
#X connect 1 0 14 0;
#X connect 2 0 15 0;
#X connect 5 0 7 1;
#X connect 6 0 9 1;
#X connect 6 0 11 0;
#X connect 7 0 12 0;
#X connect 7 1 8 0;
#X connect 8 0 12 1;
#X connect 9 0 10 0;
#X connect 10 0 13 0;
#X connect 11 0 7 2;
#X connect 13 0 7 0;
#X connect 14 0 17 0;
#X connect 15 0 16 0;
#X connect 16 0 6 0;
#X connect 17 0 5 0;
#X connect 18 0 0 0;
#X connect 19 0 9 0;
