#N canvas 16 34 1342 562 8;
#X obj 108 131 bng 17 250 50 0 empty empty 21 3 8 1 10 -262144 -258113
-4032;
#X obj 118 109 bng 17 250 50 0 empty empty 22 3 8 1 10 -1 -258113 -4032
;
#X obj 129 131 bng 17 250 50 0 empty empty 23 3 8 1 10 -262144 -258113
-4032;
#X obj 150 131 bng 17 250 50 0 empty empty 24 3 8 1 10 -262144 -258113
-4032;
#X obj 171 131 bng 17 250 50 0 empty empty 26 3 8 1 10 -262144 -258113
-4032;
#X obj 192 131 bng 17 250 50 0 empty empty 28 3 8 1 10 -262144 -258113
-4032;
#X obj 213 131 bng 17 250 50 0 empty empty 29 3 8 1 10 -262144 -258113
-4032;
#X obj 234 131 bng 17 250 50 0 empty empty 31 3 8 1 10 -262144 -258113
-4032;
#X obj 255 131 bng 17 250 50 0 empty empty 33 3 8 1 10 -262144 -258113
-4032;
#X obj 276 131 bng 17 250 50 0 empty empty 35 3 8 1 10 -262144 -258113
-4032;
#X obj 161 110 bng 17 250 50 0 empty empty 25 3 8 1 10 -1 -258113 -4032
;
#X obj 182 110 bng 17 250 50 0 empty empty 27 3 8 1 10 -1 -258113 -4032
;
#X obj 222 110 bng 17 250 50 0 empty empty 30 3 8 1 10 -1 -258113 -4032
;
#X obj 243 110 bng 17 250 50 0 empty empty 32 3 8 1 10 -1 -258113 -4032
;
#X obj 264 110 bng 17 250 50 0 empty empty 34 3 8 1 10 -1 -258113 -4032
;
#X obj 297 131 bng 17 250 50 0 empty empty 36 3 8 1 10 -262144 -258113
-4032;
#X obj 318 131 bng 17 250 50 0 empty empty 38 3 8 1 10 -262144 -258113
-4032;
#X obj 339 131 bng 17 250 50 0 empty empty 40 3 8 1 10 -262144 -258113
-4032;
#X obj 360 131 bng 17 250 50 0 empty empty 41 3 8 1 10 -262144 -258113
-4032;
#X obj 381 131 bng 17 250 50 0 empty empty 43 3 8 1 10 -262144 -258113
-4032;
#X obj 402 131 bng 17 250 50 0 empty empty 45 3 8 1 10 -262144 -258113
-4032;
#X obj 423 131 bng 17 250 50 0 empty empty 47 3 8 1 10 -262144 -258113
-4032;
#X obj 308 110 bng 17 250 50 0 empty empty 37 3 8 1 10 -1 -258113 -4032
;
#X obj 329 110 bng 17 250 50 0 empty empty 39 3 8 1 10 -1 -258113 -4032
;
#X obj 369 110 bng 17 250 50 0 empty empty 42 3 8 1 10 -1 -258113 -4032
;
#X obj 390 110 bng 17 250 50 0 empty empty 44 3 8 1 10 -1 -258113 -4032
;
#X obj 411 110 bng 17 250 50 0 empty empty 46 3 8 1 10 -1 -258113 -4032
;
#X obj 444 131 bng 17 250 50 0 empty empty 48 3 8 1 10 -262144 -258113
-4032;
#X obj 465 131 bng 17 250 50 0 empty empty 50 3 8 1 10 -262144 -258113
-4032;
#X obj 486 131 bng 17 250 50 0 empty empty 52 3 8 1 10 -262144 -258113
-4032;
#X obj 507 131 bng 17 250 50 0 empty empty 53 3 8 1 10 -262144 -258113
-4032;
#X obj 528 131 bng 17 250 50 0 empty empty 55 3 8 1 10 -262144 -258113
-4032;
#X obj 549 131 bng 17 250 50 0 empty empty 57 3 8 1 10 -262144 -258113
-4032;
#X obj 570 131 bng 17 250 50 0 empty empty 59 3 8 1 10 -262144 -258113
-4032;
#X obj 455 110 bng 17 250 50 0 empty empty 49 3 8 1 10 -1 -258113 -4032
;
#X obj 476 110 bng 17 250 50 0 empty empty 51 3 8 1 10 -1 -258113 -4032
;
#X obj 516 110 bng 17 250 50 0 empty empty 54 3 8 1 10 -1 -258113 -4032
;
#X obj 537 110 bng 17 250 50 0 empty empty 56 3 8 1 10 -1 -258113 -4032
;
#X obj 558 110 bng 17 250 50 0 empty empty 58 3 8 1 10 -1 -258113 -4032
;
#X obj 591 131 bng 17 250 50 0 empty empty 60 3 8 1 10 -262144 -258113
-4032;
#X obj 612 131 bng 17 250 50 0 empty empty 62 3 8 1 10 -262144 -258113
-4032;
#X obj 633 131 bng 17 250 50 0 empty empty 64 3 8 1 10 -262144 -258113
-4032;
#X obj 654 131 bng 17 250 50 0 empty empty 65 3 8 1 10 -262144 -258113
-4032;
#X obj 675 131 bng 17 250 50 0 empty empty 67 3 8 1 10 -262144 -258113
-4032;
#X obj 696 131 bng 17 250 50 0 empty empty 69 3 8 1 10 -262144 -258113
-4032;
#X obj 717 131 bng 17 250 50 0 empty empty 71 3 8 1 10 -262144 -258113
-4032;
#X obj 602 110 bng 17 250 50 0 empty empty 61 3 8 1 10 -1 -258113 -4032
;
#X obj 623 110 bng 17 250 50 0 empty empty 63 3 8 1 10 -1 -258113 -4032
;
#X obj 663 110 bng 17 250 50 0 empty empty 66 3 8 1 10 -1 -258113 -4032
;
#X obj 684 110 bng 17 250 50 0 empty empty 68 3 8 1 10 -1 -258113 -4032
;
#X obj 705 110 bng 17 250 50 0 empty empty 70 3 8 1 10 -1 -258113 -4032
;
#X obj 738 131 bng 17 250 50 0 empty empty 72 3 8 1 10 -262144 -258113
-4032;
#X obj 759 131 bng 17 250 50 0 empty empty 74 3 8 1 10 -262144 -258113
-4032;
#X obj 780 131 bng 17 250 50 0 empty empty 76 3 8 1 10 -262144 -258113
-4032;
#X obj 801 131 bng 17 250 50 0 empty empty 77 3 8 1 10 -262144 -258113
-4032;
#X obj 822 131 bng 17 250 50 0 empty empty 79 3 8 1 10 -262144 -258113
-4032;
#X obj 843 131 bng 17 250 50 0 empty empty 81 3 8 1 10 -262144 -258113
-4032;
#X obj 864 131 bng 17 250 50 0 empty empty 83 3 8 1 10 -262144 -258113
-4032;
#X obj 749 110 bng 17 250 50 0 empty empty 73 3 8 1 10 -1 -258113 -4032
;
#X obj 770 110 bng 17 250 50 0 empty empty 75 3 8 1 10 -1 -258113 -4032
;
#X obj 810 110 bng 17 250 50 0 empty empty 78 3 8 1 10 -1 -258113 -4032
;
#X obj 831 110 bng 17 250 50 0 empty empty 80 3 8 1 10 -1 -258113 -4032
;
#X obj 852 110 bng 17 250 50 0 empty empty 82 3 8 1 10 -1 -258113 -4032
;
#X obj 885 131 bng 17 250 50 0 empty empty 84 3 8 1 10 -262144 -258113
-4032;
#X obj 906 131 bng 17 250 50 0 empty empty 86 3 8 1 10 -262144 -258113
-4032;
#X obj 927 131 bng 17 250 50 0 empty empty 88 3 8 1 10 -262144 -258113
-4032;
#X obj 948 131 bng 17 250 50 0 empty empty 89 3 8 1 10 -262144 -258113
-4032;
#X obj 969 131 bng 17 250 50 0 empty empty 91 3 8 1 10 -262144 -258113
-4032;
#X obj 990 131 bng 17 250 50 0 empty empty 93 3 8 1 10 -262144 -258113
-4032;
#X obj 1011 131 bng 17 250 50 0 empty empty 95 3 8 1 10 -262144 -258113
-4032;
#X obj 896 110 bng 17 250 50 0 empty empty 85 3 8 1 10 -1 -258113 -4032
;
#X obj 917 110 bng 17 250 50 0 empty empty 87 3 8 1 10 -1 -258113 -4032
;
#X obj 957 110 bng 17 250 50 0 empty empty 90 3 8 1 10 -1 -258113 -4032
;
#X obj 978 110 bng 17 250 50 0 empty empty 92 3 8 1 10 -1 -258113 -4032
;
#X obj 999 110 bng 17 250 50 0 empty empty 94 3 8 1 10 -1 -258113 -4032
;
#X obj 1032 131 bng 17 250 50 0 empty empty 96 3 8 1 10 -262144 -258113
-4032;
#X obj 1053 131 bng 17 250 50 0 empty empty 98 3 8 1 10 -262144 -258113
-4032;
#X obj 1074 131 bng 17 250 50 0 empty empty 100 3 8 1 8 -262144 -258113
-4032;
#X obj 1095 131 bng 17 250 50 0 empty empty 101 3 9 1 8 -262144 -258113
-4032;
#X obj 1116 131 bng 17 250 50 0 empty empty 103 3 9 1 8 -262144 -258113
-4032;
#X obj 1137 131 bng 17 250 50 0 empty empty 105 3 9 1 8 -262144 -258113
-4032;
#X obj 1158 131 bng 17 250 50 0 empty empty 107 3 9 1 8 -262144 -258113
-4032;
#X obj 1043 110 bng 17 250 50 0 empty empty 97 3 8 1 10 -1 -258113
-4032;
#X obj 1064 110 bng 17 250 50 0 empty empty 99 3 8 1 10 -1 -258113
-4032;
#X obj 1104 110 bng 17 250 50 0 empty empty 102 3 9 1 8 -1 -258113
-4032;
#X obj 1125 110 bng 17 250 50 0 empty empty 104 3 9 1 8 -1 -258113
-4032;
#X obj 1146 110 bng 17 250 50 0 empty empty 106 3 9 1 8 -1 -258113
-4032;
#X obj 1179 131 bng 17 250 50 0 empty empty 108 3 9 1 8 -262144 -258113
-4032;
#X obj 1006 -507 r midi_mon;
#X obj 99 -406 select 22;
#X obj 44 -406 select 21;
#X obj 154 -406 select 23;
#X obj 208 -406 select 24;
#X obj 262 -405 select 25;
#X obj 316 -406 select 26;
#X obj 371 -406 select 27;
#X obj 426 -405 select 28;
#X obj 480 -405 select 29;
#X obj 534 -405 select 30;
#X obj 256 -378 select 31;
#X obj 311 -378 select 32;
#X obj 366 -378 select 33;
#X obj 420 -378 select 34;
#X obj 474 -377 select 35;
#X obj 528 -378 select 36;
#X obj 583 -378 select 37;
#X obj 638 -377 select 38;
#X obj 693 -377 select 39;
#X obj 748 -378 select 40;
#X obj 369 -353 select 41;
#X obj 424 -353 select 42;
#X obj 479 -353 select 43;
#X obj 533 -353 select 44;
#X obj 587 -352 select 45;
#X obj 641 -354 select 46;
#X obj 696 -353 select 47;
#X obj 751 -352 select 48;
#X obj 805 -352 select 49;
#X obj 859 -352 select 50;
#X obj 629 -318 select 51;
#X obj 682 -319 select 52;
#X obj 737 -319 select 53;
#X obj 791 -319 select 54;
#X obj 845 -318 select 55;
#X obj 899 -319 select 56;
#X obj 955 -317 select 57;
#X obj 1009 -318 select 58;
#X obj 1063 -318 select 59;
#X obj 1117 -318 select 60;
#X obj 474 -292 select 61;
#X obj 529 -292 select 62;
#X obj 584 -292 select 63;
#X obj 638 -292 select 64;
#X obj 692 -291 select 65;
#X obj 746 -292 select 66;
#X obj 801 -292 select 67;
#X obj 856 -291 select 68;
#X obj 910 -291 select 69;
#X obj 965 -289 select 70;
#X obj 686 -264 select 71;
#X obj 741 -264 select 72;
#X obj 796 -264 select 73;
#X obj 850 -263 select 74;
#X obj 904 -263 select 75;
#X obj 958 -264 select 76;
#X obj 1013 -264 select 77;
#X obj 1068 -263 select 78;
#X obj 1122 -263 select 79;
#X obj 1178 -265 select 80;
#X obj 602 -109 select 81;
#X obj 655 -110 select 82;
#X obj 710 -110 select 83;
#X obj 764 -110 select 84;
#X obj 818 -109 select 85;
#X obj 872 -110 select 86;
#X obj 928 -108 select 87;
#X obj 982 -109 select 88;
#X obj 1037 -109 select 89;
#X obj 1090 -109 select 90;
#X obj 447 -83 select 91;
#X obj 502 -83 select 92;
#X obj 557 -83 select 93;
#X obj 611 -83 select 94;
#X obj 665 -82 select 95;
#X obj 719 -83 select 96;
#X obj 774 -83 select 97;
#X obj 829 -82 select 98;
#X obj 883 -82 select 99;
#X obj 938 -80 select 100;
#X obj 612 -48 select 101;
#X obj 679 -48 select 102;
#X obj 749 -49 select 103;
#X obj 812 -50 select 104;
#X obj 872 -52 select 105;
#X obj 931 -55 select 106;
#X obj 994 -54 select 107;
#X obj 1061 -54 select 108;
#X floatatom 1170 109 5 0 0 0 - - -, f 5;
#X connect 88 0 89 0;
#X connect 88 0 90 0;
#X connect 88 0 91 0;
#X connect 88 0 92 0;
#X connect 88 0 93 0;
#X connect 88 0 94 0;
#X connect 88 0 95 0;
#X connect 88 0 96 0;
#X connect 88 0 97 0;
#X connect 88 0 98 0;
#X connect 88 0 99 0;
#X connect 88 0 100 0;
#X connect 88 0 101 0;
#X connect 88 0 102 0;
#X connect 88 0 103 0;
#X connect 88 0 104 0;
#X connect 88 0 105 0;
#X connect 88 0 106 0;
#X connect 88 0 107 0;
#X connect 88 0 108 0;
#X connect 88 0 109 0;
#X connect 88 0 110 0;
#X connect 88 0 111 0;
#X connect 88 0 112 0;
#X connect 88 0 113 0;
#X connect 88 0 114 0;
#X connect 88 0 115 0;
#X connect 88 0 116 0;
#X connect 88 0 117 0;
#X connect 88 0 118 0;
#X connect 88 0 119 0;
#X connect 88 0 120 0;
#X connect 88 0 121 0;
#X connect 88 0 122 0;
#X connect 88 0 123 0;
#X connect 88 0 124 0;
#X connect 88 0 125 0;
#X connect 88 0 126 0;
#X connect 88 0 127 0;
#X connect 88 0 128 0;
#X connect 88 0 129 0;
#X connect 88 0 130 0;
#X connect 88 0 131 0;
#X connect 88 0 132 0;
#X connect 88 0 133 0;
#X connect 88 0 134 0;
#X connect 88 0 135 0;
#X connect 88 0 136 0;
#X connect 88 0 137 0;
#X connect 88 0 138 0;
#X connect 88 0 139 0;
#X connect 88 0 140 0;
#X connect 88 0 141 0;
#X connect 88 0 142 0;
#X connect 88 0 143 0;
#X connect 88 0 144 0;
#X connect 88 0 145 0;
#X connect 88 0 146 0;
#X connect 88 0 147 0;
#X connect 88 0 148 0;
#X connect 88 0 149 0;
#X connect 88 0 150 0;
#X connect 88 0 151 0;
#X connect 88 0 152 0;
#X connect 88 0 153 0;
#X connect 88 0 154 0;
#X connect 88 0 155 0;
#X connect 88 0 156 0;
#X connect 88 0 157 0;
#X connect 88 0 158 0;
#X connect 88 0 159 0;
#X connect 88 0 160 0;
#X connect 88 0 161 0;
#X connect 88 0 162 0;
#X connect 88 0 163 0;
#X connect 88 0 164 0;
#X connect 88 0 165 0;
#X connect 88 0 166 0;
#X connect 88 0 167 0;
#X connect 88 0 168 0;
#X connect 88 0 169 0;
#X connect 88 0 170 0;
#X connect 88 0 171 0;
#X connect 88 0 172 0;
#X connect 88 0 173 0;
#X connect 88 0 174 0;
#X connect 88 0 175 0;
#X connect 88 0 176 0;
#X connect 88 0 177 0;
#X connect 89 0 1 0;
#X connect 90 0 0 0;
#X connect 91 0 2 0;
#X connect 92 0 3 0;
#X connect 93 0 10 0;
#X connect 94 0 4 0;
#X connect 95 0 11 0;
#X connect 96 0 5 0;
#X connect 97 0 6 0;
#X connect 98 0 12 0;
#X connect 99 0 7 0;
#X connect 100 0 13 0;
#X connect 101 0 8 0;
#X connect 102 0 14 0;
#X connect 103 0 9 0;
#X connect 104 0 15 0;
#X connect 105 0 22 0;
#X connect 106 0 16 0;
#X connect 107 0 23 0;
#X connect 108 0 17 0;
#X connect 109 0 18 0;
#X connect 110 0 24 0;
#X connect 111 0 19 0;
#X connect 112 0 25 0;
#X connect 113 0 20 0;
#X connect 114 0 26 0;
#X connect 115 0 21 0;
#X connect 116 0 27 0;
#X connect 117 0 34 0;
#X connect 118 0 28 0;
#X connect 119 0 35 0;
#X connect 120 0 29 0;
#X connect 121 0 30 0;
#X connect 122 0 36 0;
#X connect 123 0 31 0;
#X connect 124 0 37 0;
#X connect 125 0 32 0;
#X connect 126 0 38 0;
#X connect 127 0 33 0;
#X connect 128 0 39 0;
#X connect 129 0 46 0;
#X connect 130 0 40 0;
#X connect 131 0 47 0;
#X connect 132 0 41 0;
#X connect 133 0 42 0;
#X connect 134 0 48 0;
#X connect 135 0 43 0;
#X connect 136 0 49 0;
#X connect 137 0 44 0;
#X connect 138 0 50 0;
#X connect 139 0 45 0;
#X connect 140 0 51 0;
#X connect 141 0 58 0;
#X connect 142 0 52 0;
#X connect 143 0 59 0;
#X connect 144 0 53 0;
#X connect 145 0 54 0;
#X connect 146 0 60 0;
#X connect 147 0 55 0;
#X connect 148 0 61 0;
#X connect 149 0 56 0;
#X connect 150 0 62 0;
#X connect 151 0 57 0;
#X connect 152 0 63 0;
#X connect 153 0 70 0;
#X connect 154 0 64 0;
#X connect 155 0 71 0;
#X connect 156 0 65 0;
#X connect 157 0 66 0;
#X connect 158 0 72 0;
#X connect 159 0 67 0;
#X connect 160 0 73 0;
#X connect 161 0 68 0;
#X connect 162 0 74 0;
#X connect 163 0 69 0;
#X connect 164 0 75 0;
#X connect 165 0 82 0;
#X connect 166 0 76 0;
#X connect 167 0 83 0;
#X connect 168 0 77 0;
#X connect 169 0 78 0;
#X connect 170 0 84 0;
#X connect 171 0 79 0;
#X connect 172 0 85 0;
#X connect 173 0 80 0;
#X connect 174 0 86 0;
#X connect 175 0 81 0;
#X connect 176 0 87 0;
#X coords 0 -1 1 1 1100 60 1 100 100;
