#N canvas 486 0 864 613 10;
#X obj 303 307 net/udpsend;
#X obj 303 287 osc/packOSC;
#X msg 303 267 send /piano/0/note \$1 \$2;
#X msg 159 322 disconnect;
#X msg 117 185 connect 192.168.10.33 6666;
#X obj 347 330 tgl 15 0 empty empty empty 17 7 0 10 -262144 -1 -1 1
1;
#X obj 362 353 sel 0;
#X obj 364 384 delay 10000;
#X obj 152 288 t b b;
#X obj 151 260 bng 15 250 50 0 empty empty empty 17 7 0 10 -262144
-1 -1;
#X obj 206 258 r con;
#X obj 112 342 loadbang;
#X obj 111 377 delay 8000;
#X obj 303 248 r netout;
#X obj 117 131 bng 15 250 50 0 empty empty ConnectToNetwork 17 7 0
10 -262144 -1 -1;
#X text -160 -18 cntl-E and click this box to update this to your port
;
#X connect 0 0 5 0;
#X connect 1 0 0 0;
#X connect 2 0 1 0;
#X connect 3 0 0 0;
#X connect 4 0 0 0;
#X connect 5 0 6 0;
#X connect 6 0 7 0;
#X connect 7 0 9 0;
#X connect 8 0 4 0;
#X connect 8 1 3 0;
#X connect 9 0 8 0;
#X connect 10 0 4 0;
#X connect 11 0 12 0;
#X connect 12 0 4 0;
#X connect 13 0 2 0;
#X connect 14 0 4 0;
#X coords 0 -1 1 1 137 80 1 100 100;
