#N canvas 585 121 450 300 10;
#X obj 71 62 inlet;
#X obj 73 238 udpsend;
#X obj 128 204 packOSC;
#X obj 43 285 outlet;
#X obj 498 -85 metro 666;
#X floatatom 561 -135 5 0 0 0 - - -;
#X obj 488 -143 tgl 15 0 empty empty empty 17 7 0 10 -262144 -1 -1
0 1;
#X msg 444 81 send;
#X msg 145 7 disconnect;
#X floatatom 405 -22 5 0 0 0 - - -;
#X obj 358 26 makenote 30 500;
#X obj 347 58 pack 0 0;
#X msg 44 -41 connect 192.168.6.6 6666;
#X floatatom 560 4 5 0 0 0 - - -;
#X obj 488 -33 random 128;
#X obj 157 265 tgl 15 0 empty empty empty 17 7 0 10 -262144 -1 -1 0
1;
#X msg 132 136 send /piano/0/note \$1 \$2;
#X obj 389 -113 random 60;
#X obj 404 -72 + 30;
#X obj 639 -101 + 66;
#X obj 624 -142 random 666;
#X floatatom 724 -221 5 0 0 0 - - -;
#X connect 0 0 16 0;
#X connect 1 0 3 0;
#X connect 1 0 15 0;
#X connect 2 0 1 0;
#X connect 4 0 14 0;
#X connect 4 0 17 0;
#X connect 4 0 20 0;
#X connect 5 0 4 1;
#X connect 6 0 4 0;
#X connect 8 0 1 0;
#X connect 9 0 10 1;
#X connect 10 0 11 0;
#X connect 10 1 11 1;
#X connect 11 0 16 0;
#X connect 12 0 1 0;
#X connect 13 0 10 0;
#X connect 14 0 13 0;
#X connect 16 0 2 0;
#X connect 17 0 18 0;
#X connect 18 0 9 0;
#X connect 19 0 5 0;
#X connect 20 0 19 0;
#X connect 21 0 20 1;
