#N canvas 457 211 1366 686 12;
#X declare -lib mrpeach;
#N canvas 74 0 1366 686 sendOSC 1;
#X obj 61 52 inlet;
#X obj 63 228 udpsend;
#X obj 118 194 packOSC;
#X obj 33 275 outlet;
#X obj 488 -95 metro 666;
#X floatatom 551 -145 5 0 0 0 - - -;
#X obj 478 -153 tgl 15 0 empty empty empty 17 7 0 10 -262144 -1 -1
0 1;
#X msg 434 71 send;
#X msg 135 -3 disconnect;
#X floatatom 395 -32 5 0 0 0 - - -;
#X obj 348 16 makenote 30 500;
#X obj 337 48 pack 0 0;
#X msg 34 -51 connect 192.168.6.6 6666;
#X floatatom 550 -6 5 0 0 0 - - -;
#X obj 478 -43 random 128;
#X obj 147 255 tgl 15 0 empty empty empty 17 7 0 10 -262144 -1 -1 1
1;
#X floatatom 131 65 5 0 0 0 - - -;
#X msg 122 126 send /piano/0/note \$1 \$2;
#X obj 379 -123 random 60;
#X obj 394 -82 + 30;
#X obj 629 -111 + 66;
#X obj 614 -152 random 666;
#X floatatom 714 -231 5 0 0 0 - - -;
#X connect 0 0 1 0;
#X connect 1 0 3 0;
#X connect 1 0 15 0;
#X connect 2 0 1 0;
#X connect 4 0 14 0;
#X connect 4 0 18 0;
#X connect 4 0 21 0;
#X connect 5 0 4 1;
#X connect 6 0 4 0;
#X connect 8 0 1 0;
#X connect 9 0 10 1;
#X connect 10 0 11 0;
#X connect 10 1 11 1;
#X connect 11 0 17 0;
#X connect 12 0 1 0;
#X connect 13 0 10 0;
#X connect 14 0 13 0;
#X connect 16 0 17 0;
#X connect 17 0 2 0;
#X connect 18 0 19 0;
#X connect 19 0 9 0;
#X connect 20 0 5 0;
#X connect 21 0 20 0;
#X connect 22 0 21 1;
#X restore -115 345 pd sendOSC;
#X msg -82 309 disconnect;
#X text -45 284 click it to stop;
#X obj -115 382 tgl 20 0 empty empty Connected! 30 7 0 12 -257985 -258113
-1 1 1;
#X text -114 223 cntl-E and click this to update ip;
#X floatatom 13 347 5 0 0 0 - #_fromu1 r1a;
#X floatatom 62 347 5 0 0 0 - - r1b;
#X floatatom 109 347 5 0 0 0 - - r1c;
#X floatatom 17 49 5 0 0 0 - stream1b -;
#X floatatom 58 49 5 0 0 0 - stream1c -;
#X floatatom -23 48 5 0 0 0 - stream1a -;
#X symbolatom -106 48 10 0 0 0 - streamsymbol1 -;
#N canvas 0 0 266 127 receiveOSC 0;
#X obj 23 -72 unpackOSC;
#X obj 125 -56 print;
#X obj 23 -47 unpack s f f f;
#X floatatom 97 -76 3 0 0 0 - - -;
#X floatatom 124 -76 3 0 0 0 - - -;
#X floatatom 151 -76 3 0 0 0 - - -;
#X floatatom 175 -75 3 0 0 0 - - -;
#X floatatom 203 -75 5 0 0 0 - - -;
#X obj 97 -102 unpack 0 0 0 0 0;
#X obj 14 -16 s streamia1;
#X obj 173 -17 s streamic1;
#X obj 93 -16 s streamib1;
#X obj 23 -96 inlet;
#X connect 0 0 1 0;
#X connect 0 0 2 0;
#X connect 2 1 9 0;
#X connect 2 2 11 0;
#X connect 2 3 10 0;
#X connect 8 0 3 0;
#X connect 8 1 4 0;
#X connect 8 2 5 0;
#X connect 8 3 6 0;
#X connect 8 4 7 0;
#X connect 12 0 0 0;
#X restore -107 23 pd receiveOSC;
#X obj -106 82 send symbol;
#X obj -16 83 s 1a;
#X obj 17 107 s 1b;
#X obj 58 130 s 1c;
#X text -109 -27 cntl-E and click this box to update this to your port
;
#X text 101 -25 comment;
#X text 79 143 comment;
#X obj -107 0 udpreceive 9010;
#X obj 430 560 import mrpeach;
#X msg -115 256 connect 129.168.6.68;
#X connect 0 0 3 0;
#X connect 8 0 15 0;
#X connect 9 0 16 0;
#X connect 10 0 14 0;
#X connect 11 0 13 0;
#X connect 20 0 12 0;
#X connect 22 0 0 0;
