#N canvas -9 -11 1214 668 10;
#X obj 119 125 tgl 30 0 empty empty GlobalThinking 17 7 0 10 -258113
-1 -1 0 1;
#X obj -330 98 tgl 15 0 empty empty empty 17 7 0 10 -262144 -1 -1 0
1;
#X text 204 263 all modules on;
#X obj -445 82 bng 15 250 50 0 empty empty empty 17 7 0 10 -262144
-1 -1;
#X obj -85 53 bng 15 250 50 0 empty empty empty 17 7 0 10 -262144 -1
-1;
#X obj -85 78 bng 15 250 50 0 empty empty empty 17 7 0 10 -262144 -1
-1;
#X obj -444 151 bng 15 250 50 0 empty empty empty 17 7 0 10 -262144
-1 -1;
#X obj 188 294 tgl 15 0 empty empty empty 17 7 0 10 -262144 -1 -1 0
1;
#X obj 204 294 tgl 15 0 empty empty empty 17 7 0 10 -262144 -1 -1 0
1;
#X obj 220 294 tgl 15 0 empty empty empty 17 7 0 10 -262144 -1 -1 0
1;
#X obj 188 309 tgl 15 0 empty empty empty 17 7 0 10 -262144 -1 -1 0
1;
#X obj 204 309 tgl 15 0 empty empty empty 17 7 0 10 -262144 -1 -1 0
1;
#X obj 220 309 tgl 15 0 empty empty empty 17 7 0 10 -262144 -1 -1 0
1;
#X text -206 166 p default local;
#X obj -444 172 bng 15 250 50 0 empty empty empty 17 7 0 10 -262144
-1 -1;
#X text -414 169 s global 1;
#X obj -444 195 bng 15 250 50 0 empty empty empty 17 7 0 10 -262144
-1 -1;
#X text -414 192 s process preset;
#X obj -445 223 bng 15 250 50 0 empty empty empty 17 7 0 10 -262144
-1 -1;
#X obj -429 223 bng 15 250 50 0 empty empty empty 17 7 0 10 -262144
-1 -1;
#X obj -413 223 bng 15 250 50 0 empty empty empty 17 7 0 10 -262144
-1 -1;
#X obj -445 238 bng 15 250 50 0 empty empty empty 17 7 0 10 -262144
-1 -1;
#X obj -429 238 bng 15 250 50 0 empty empty empty 17 7 0 10 -262144
-1 -1;
#X obj -413 238 bng 15 250 50 0 empty empty empty 17 7 0 10 -262144
-1 -1;
#X obj -446 288 bng 15 250 50 0 empty empty empty 17 7 0 10 -262144
-1 -1;
#X obj -430 288 bng 15 250 50 0 empty empty empty 17 7 0 10 -262144
-1 -1;
#X obj -414 288 bng 15 250 50 0 empty empty empty 17 7 0 10 -262144
-1 -1;
#X obj -446 303 bng 15 250 50 0 empty empty empty 17 7 0 10 -262144
-1 -1;
#X obj -430 303 bng 15 250 50 0 empty empty empty 17 7 0 10 -262144
-1 -1;
#X obj -414 303 bng 15 250 50 0 empty empty empty 17 7 0 10 -262144
-1 -1;
#X text -385 227 s converge;
#X text -386 291 s diverge;
#X obj -445 258 bng 15 250 50 0 empty empty empty 17 7 0 10 -262144
-1 -1;
#X obj -446 325 bng 15 250 50 0 empty empty empty 17 7 0 10 -262144
-1 -1;
#X text -415 255 s converge all;
#X text -418 324 s diverge all;
#X text -55 53 5ths default;
#X text 3 672 presets for diagonal process VR5Ch;
#X text -208 247 v default local;
#X text -420 79 pvrs5ch default;
#X text -416 42 global on all default values;
#X obj 308 262 bng 15 250 50 0 empty empty empty 17 7 0 10 -262144
-1 -1;
#X obj 324 262 bng 15 250 50 0 empty empty empty 17 7 0 10 -262144
-1 -1;
#X obj 340 262 bng 15 250 50 0 empty empty empty 17 7 0 10 -262144
-1 -1;
#X obj 308 277 bng 15 250 50 0 empty empty empty 17 7 0 10 -262144
-1 -1;
#X obj 324 277 bng 15 250 50 0 empty empty empty 17 7 0 10 -262144
-1 -1;
#X obj 340 277 bng 15 250 50 0 empty empty empty 17 7 0 10 -262144
-1 -1;
#X text -56 76 chrome default;
#X obj -445 101 bng 15 250 50 0 empty empty empty 17 7 0 10 -262144
-1 -1;
#X text -420 98 metros default;
#X floatatom 263 141 5 0 0 0 - - -, f 5;
#X floatatom 301 141 5 0 0 0 - - -, f 5;
#X floatatom 339 141 5 0 0 0 - - -, f 5;
#X floatatom 263 161 5 0 0 0 - - -, f 5;
#X floatatom 301 161 5 0 0 0 - - -, f 5;
#X floatatom 339 161 5 0 0 0 - - -, f 5;
#X text 259 118 manual metro adjust;
#X floatatom 652 233 5 0 0 0 - - -, f 5;
#X floatatom 691 234 5 0 0 0 - - -, f 5;
#X floatatom 729 234 5 0 0 0 - - -, f 5;
#X floatatom 653 254 5 0 0 0 - - -, f 5;
#X floatatom 691 254 5 0 0 0 - - -, f 5;
#X floatatom 729 254 5 0 0 0 - - -, f 5;
#X text 649 211 metro monitoring;
#X obj 378 142 bng 15 250 50 0 empty empty returnTodefault 17 7 0 10
-262144 -1 -1;
#X text 852 30 metros default;
#X text 711 357 m converge;
#X text 678 390 m converge all;
#X text 713 424 m diverge;
#X text 681 457 m diverge all;
#X obj -590 -52 s glob;
#X obj -599 40 s pvrs5ch;
#X obj -450 419 s metros;
#X obj -593 167 s step1;
#X obj -592 193 s steprocess;
#X obj -605 273 s sconvergeall;
#X obj -602 410 s sdivergeeall;
#X obj -605 216 s scon1;
#X obj -554 217 s scon2;
#X obj -504 217 s scon3;
#X obj -503 238 s scon6;
#X obj -554 238 s scon5;
#X obj -604 238 s scon4;
#X obj -614 295 s sdiv1;
#X obj -613 317 s sdiv4;
#X obj -563 296 s sdiv2;
#X obj -563 317 s sdiv5;
#X obj -513 296 s sdiv3;
#X obj -512 317 s sdiv6;
#X obj 654 350 bng 15 250 50 0 empty empty empty 17 7 0 10 -262144
-1 -1;
#X obj 670 350 bng 15 250 50 0 empty empty empty 17 7 0 10 -262144
-1 -1;
#X obj 686 350 bng 15 250 50 0 empty empty empty 17 7 0 10 -262144
-1 -1;
#X obj 654 365 bng 15 250 50 0 empty empty empty 17 7 0 10 -262144
-1 -1;
#X obj 670 365 bng 15 250 50 0 empty empty empty 17 7 0 10 -262144
-1 -1;
#X obj 686 365 bng 15 250 50 0 empty empty empty 17 7 0 10 -262144
-1 -1;
#X obj 656 418 bng 15 250 50 0 empty empty empty 17 7 0 10 -262144
-1 -1;
#X obj 672 418 bng 15 250 50 0 empty empty empty 17 7 0 10 -262144
-1 -1;
#X obj 688 418 bng 15 250 50 0 empty empty empty 17 7 0 10 -262144
-1 -1;
#X obj 656 433 bng 15 250 50 0 empty empty empty 17 7 0 10 -262144
-1 -1;
#X obj 672 433 bng 15 250 50 0 empty empty empty 17 7 0 10 -262144
-1 -1;
#X obj 688 433 bng 15 250 50 0 empty empty empty 17 7 0 10 -262144
-1 -1;
#X obj 657 388 bng 15 250 50 0 empty empty empty 17 7 0 10 -262144
-1 -1;
#X obj 656 455 bng 15 250 50 0 empty empty empty 17 7 0 10 -262144
-1 -1;
#X obj 714 344 s mcon1;
#X obj 715 364 s mcon4;
#X obj 765 345 s mcon2;
#X obj 815 345 s mcon3;
#X obj 863 387 s mconvergeall;
#X obj 765 366 s mcon5;
#X obj 816 366 s mcon6;
#X obj 955 410 s mdiv3;
#X obj 905 410 s mdiv2;
#X obj 854 409 s mdiv1;
#X obj 855 431 s mdiv4;
#X obj 905 431 s mdiv5;
#X obj 956 431 s mdiv6;
#X obj 852 457 s mdivergeeall;
#X obj 583 81 s met1;
#X obj 634 82 s met2;
#X obj 684 82 s met3;
#X obj 584 101 s met4;
#X obj 634 103 s met5;
#X obj 685 103 s met6;
#X obj 655 272 r mon1;
#X obj 706 273 r mon2;
#X obj 756 273 r mon3;
#X obj 757 294 r mon6;
#X obj 707 295 r mon5;
#X obj 656 296 r mon4;
#X obj -275 -40 s globactiv;
#X obj -140 -46 s glob5;
#X obj -68 -46 s globchrome;
#X obj 108 -31 s d51;
#X obj 161 -32 s d52;
#X obj 209 -30 s d53;
#X obj 109 -11 s d54;
#X obj 159 -9 s d55;
#X obj 210 -9 s d56;
#X obj 307 299 bng 15 250 50 0 empty empty empty 17 7 0 10 -262144
-1 -1;
#X obj 323 299 bng 15 250 50 0 empty empty empty 17 7 0 10 -262144
-1 -1;
#X obj 339 299 bng 15 250 50 0 empty empty empty 17 7 0 10 -262144
-1 -1;
#X obj 307 314 bng 15 250 50 0 empty empty empty 17 7 0 10 -262144
-1 -1;
#X obj 323 314 bng 15 250 50 0 empty empty empty 17 7 0 10 -262144
-1 -1;
#X obj 339 314 bng 15 250 50 0 empty empty empty 17 7 0 10 -262144
-1 -1;
#X obj 387 -32 s chrome1;
#X obj 451 -31 s chrome2;
#X obj 520 -31 s chrome3;
#X obj 521 -10 s chrome6;
#X obj 451 -10 s chrome5;
#X obj 388 -12 s chrome4;
#X obj 352 184 bng 15 250 50 0 empty empty empty 17 7 0 10 -262144
-1 -1;
#X obj -267 165 bng 15 250 50 0 empty empty empty 17 7 0 10 -262144
-1 -1;
#X obj -251 165 bng 15 250 50 0 empty empty empty 17 7 0 10 -262144
-1 -1;
#X obj -235 165 bng 15 250 50 0 empty empty empty 17 7 0 10 -262144
-1 -1;
#X obj -267 180 bng 15 250 50 0 empty empty empty 17 7 0 10 -262144
-1 -1;
#X obj -251 180 bng 15 250 50 0 empty empty empty 17 7 0 10 -262144
-1 -1;
#X obj -235 180 bng 15 250 50 0 empty empty empty 17 7 0 10 -262144
-1 -1;
#X obj -469 444 s pglob;
#X obj -549 481 s p1;
#X obj -483 482 s p2;
#X obj -416 482 s p3;
#X obj -548 501 s p4;
#X obj -483 504 s p5;
#X obj -415 503 s p6;
#X obj 435 207 bng 15 250 50 0 empty empty empty 17 7 0 10 -262144
-1 -1;
#X obj -267 235 bng 15 250 50 0 empty empty empty 17 7 0 10 -262144
-1 -1;
#X obj -251 235 bng 15 250 50 0 empty empty empty 17 7 0 10 -262144
-1 -1;
#X obj -235 235 bng 15 250 50 0 empty empty empty 17 7 0 10 -262144
-1 -1;
#X obj -267 250 bng 15 250 50 0 empty empty empty 17 7 0 10 -262144
-1 -1;
#X obj -251 250 bng 15 250 50 0 empty empty empty 17 7 0 10 -262144
-1 -1;
#X obj -235 250 bng 15 250 50 0 empty empty empty 17 7 0 10 -262144
-1 -1;
#X obj -280 437 s vglob;
#X obj -235 464 s v1;
#X obj -234 484 s v4;
#X obj -169 465 s v2;
#X obj -169 486 s v5;
#X obj -102 465 s v3;
#X obj -101 486 s v6;
#X obj 454 299 bng 15 250 50 0 empty empty empty 17 7 0 10 -262144
-1 -1;
#X obj -266 303 bng 15 250 50 0 empty empty empty 17 7 0 10 -262144
-1 -1;
#X obj -250 303 bng 15 250 50 0 empty empty empty 17 7 0 10 -262144
-1 -1;
#X obj -234 303 bng 15 250 50 0 empty empty empty 17 7 0 10 -262144
-1 -1;
#X obj -266 318 bng 15 250 50 0 empty empty empty 17 7 0 10 -262144
-1 -1;
#X obj -250 318 bng 15 250 50 0 empty empty empty 17 7 0 10 -262144
-1 -1;
#X obj -234 318 bng 15 250 50 0 empty empty empty 17 7 0 10 -262144
-1 -1;
#X obj -435 576 s r1;
#X obj -434 597 s r4;
#X obj -369 578 s r2;
#X obj -369 599 s r5;
#X obj -302 578 s r3;
#X obj -301 599 s r6;
#X obj -54 648 bng 15 250 50 0 empty empty empty 17 7 0 10 -262144
-1 -1;
#X obj -54 681 bng 15 250 50 0 empty empty empty 17 7 0 10 -262144
-1 -1;
#X obj -38 681 bng 15 250 50 0 empty empty empty 17 7 0 10 -262144
-1 -1;
#X obj -22 681 bng 15 250 50 0 empty empty empty 17 7 0 10 -262144
-1 -1;
#X obj -54 696 bng 15 250 50 0 empty empty empty 17 7 0 10 -262144
-1 -1;
#X obj -38 696 bng 15 250 50 0 empty empty empty 17 7 0 10 -262144
-1 -1;
#X obj -22 696 bng 15 250 50 0 empty empty empty 17 7 0 10 -262144
-1 -1;
#X obj 303 565 s globdiag;
#X obj 343 594 s diag1;
#X obj 344 615 s diag4;
#X obj 409 596 s diag2;
#X obj 409 617 s diag5;
#X obj 476 596 s diag3;
#X obj 477 617 s diag6;
#X obj 434 226 bng 15 250 50 0 empty empty empty 17 7 0 10 -262144
-1 -1;
#X obj 450 226 bng 15 250 50 0 empty empty empty 17 7 0 10 -262144
-1 -1;
#X obj 466 226 bng 15 250 50 0 empty empty empty 17 7 0 10 -262144
-1 -1;
#X obj 434 241 bng 15 250 50 0 empty empty empty 17 7 0 10 -262144
-1 -1;
#X obj 450 241 bng 15 250 50 0 empty empty empty 17 7 0 10 -262144
-1 -1;
#X obj 466 241 bng 15 250 50 0 empty empty empty 17 7 0 10 -262144
-1 -1;
#X obj 405 301 bng 15 250 50 0 empty empty empty 17 7 0 10 -262144
-1 -1;
#X obj 421 301 bng 15 250 50 0 empty empty empty 17 7 0 10 -262144
-1 -1;
#X obj 436 301 bng 15 250 50 0 empty empty empty 17 7 0 10 -262144
-1 -1;
#X obj 405 316 bng 15 250 50 0 empty empty empty 17 7 0 10 -262144
-1 -1;
#X obj 421 316 bng 15 250 50 0 empty empty empty 17 7 0 10 -262144
-1 -1;
#X obj 437 316 bng 15 250 50 0 empty empty empty 17 7 0 10 -262144
-1 -1;
#X obj -238 534 s vrand1;
#X obj -172 535 s vrand2;
#X obj -106 535 s vrand3;
#X obj -237 554 s vrand4;
#X obj -172 556 s vrand5;
#X obj -104 556 s vrand6;
#X obj 239 469 s regdiag1;
#X obj 305 470 s regdiag2;
#X obj 372 470 s regdiag3;
#X obj 240 489 s regdiag4;
#X obj 308 493 s regdiag5;
#X obj 382 490 s regdiag6;
#X text -414 148 s global 21;
#X floatatom -451 363 5 0 0 0 - - -, f 5;
#X floatatom -413 363 5 0 0 0 - - -, f 5;
#X floatatom -375 363 5 0 0 0 - - -, f 5;
#X floatatom -451 383 5 0 0 0 - - -, f 5;
#X floatatom -413 383 5 0 0 0 - - -, f 5;
#X floatatom -375 383 5 0 0 0 - - -, f 5;
#X text -616 358 comment;
#X text -455 340 manual step adjust;
#X obj -308 363 s tet1;
#X obj -307 383 s tet4;
#X obj -257 385 s tet5;
#X obj -257 364 s tet2;
#X obj -207 363 s tet3;
#X obj -206 383 s tet6;
#X obj 589 146 s moo1;
#X obj 590 166 s moo4;
#X obj 642 145 s moo2;
#X obj 640 168 s moo5;
#X obj 690 147 s moo3;
#X obj 691 168 s moo6;
#X obj -414 63 bng 15 250 50 0 empty empty empty 17 7 0 10 -262144
-1 -1;
#X text -395 61 reset to 0;
#X obj -395 -39 s eset;
#X floatatom 378 161 5 0 0 1 CntrlAllMetros - #_14all, f 5;
#X text 846 157 1 for all;
#X obj -594 144 s step21;
#X obj 455 316 bng 15 250 50 0 empty empty empty 17 7 0 10 -262144
-1 -1;
#X obj 82 908 s rdiagglob;
#X obj 309 202 bng 15 250 50 0 empty empty empty 17 7 0 10 -262144
-1 -1;
#X obj 84 456 s rdiaglob2Hi;
#X floatatom 187 222 5 0 0 1 GlobalStep - #_steps, f 5;
#X text 262 -99 global_step;
#X text -34 648 global diag including steps;
#X obj -53 715 bng 15 250 50 0 empty empty empty 17 7 0 10 -262144
-1 -1;
#X obj -37 715 bng 15 250 50 0 empty empty empty 17 7 0 10 -262144
-1 -1;
#X obj -21 715 bng 15 250 50 0 empty empty empty 17 7 0 10 -262144
-1 -1;
#X obj -53 730 bng 15 250 50 0 empty empty empty 17 7 0 10 -262144
-1 -1;
#X obj -37 730 bng 15 250 50 0 empty empty empty 17 7 0 10 -262144
-1 -1;
#X obj -21 730 bng 15 250 50 0 empty empty empty 17 7 0 10 -262144
-1 -1;
#X obj -18 559 s prand1;
#X obj 48 560 s prand2;
#X obj 115 560 s prand3;
#X obj -17 579 s prand4;
#X obj 48 581 s prand5;
#X obj 116 581 s prand6;
#X text -3 731 p random local;
#X text -214 313 r return local;
#X text 449 408 r1 diagonal local;
#X obj 309 223 bng 15 250 50 0 empty empty empty 17 7 0 10 -262144
-1 -1;
#X obj 325 223 bng 15 250 50 0 empty empty empty 17 7 0 10 -262144
-1 -1;
#X obj 341 223 bng 15 250 50 0 empty empty empty 17 7 0 10 -262144
-1 -1;
#X obj 309 238 bng 15 250 50 0 empty empty empty 17 7 0 10 -262144
-1 -1;
#X obj 325 238 bng 15 250 50 0 empty empty empty 17 7 0 10 -262144
-1 -1;
#X obj 341 238 bng 15 250 50 0 empty empty empty 17 7 0 10 -262144
-1 -1;
#X obj -26 486 s 21regdiag1;
#X obj -25 506 s 21regdiag4;
#X obj 60 484 s 21regdiag2;
#X obj 63 507 s 21regdiag5;
#X obj 145 484 s 21regdiag3;
#X obj 155 504 s 21regdiag6;
#X obj 186 265 bng 15 250 50 0 empty empty empty 17 7 0 10 -262144
-1 -1;
#X obj -100 -205 vradio 15 1 0 8 empty empty empty 0 -8 0 10 -262144
-1 -1 4;
#X obj -100 -72 s vlums;
#X obj 118 171 vsl 30 150 0 127 0 0 $_manualoverside empty MasterVelocity
0 -9 0 10 -4034 -1 -1 0 1;
#X obj -167 -146 tgl 15 0 $_restore empty seq 0 -7 0 10 -262144 -1
-1 0 1;
#X obj -143 -146 tgl 15 0 $_bypass empty you 0 -7 0 10 -262144 -1 -1
0 1;
#X text 779 232 70 140 280;
#X text 781 254 560 1120 2240;
#X text 799 215 93;
#X obj -445 23 bng 15 250 50 0 setchanorder empty SetMidiChannelOrder2-7
17 7 0 10 -262144 -1 -1;
#X msg 576 37 70;
#X msg 608 37 140;
#X msg 644 37 280;
#X msg 576 61 560;
#X msg 609 61 1120;
#X msg 644 61 2240;
#X obj 574 13 delay 100;
#X obj -471 -73 t b b b b b b b;
#X obj -370 -74 select 1;
#X msg -438 -39 21;
#X text 326 202 2x8veUp;
#X text 307 184 PITCH:;
#X text 355 312 chrome;
#X text 356 279 5ths;
#X text 359 231 2x8VaDwn;
#X text 437 253 v random;
#X text 452 206 v default;
#X text 432 191 VELOCITY;
#X text 372 182 p default;
#X text 401 285 REGISTER;
#X text 471 298 r default;
#X text 472 316 r global;
#X msg -319 -133 1;
#X msg -471 -41 0;
#X obj 283 70 select 0;
#X msg 339 70 0;
#X connect 0 0 70 0;
#X connect 0 0 308 0;
#X connect 0 0 324 0;
#X connect 1 0 129 0;
#X connect 3 0 71 0;
#X connect 4 0 130 0;
#X connect 5 0 131 0;
#X connect 6 0 255 0;
#X connect 7 0 244 0;
#X connect 8 0 246 0;
#X connect 9 0 248 0;
#X connect 10 0 245 0;
#X connect 11 0 247 0;
#X connect 12 0 249 0;
#X connect 14 0 73 0;
#X connect 16 0 74 0;
#X connect 18 0 77 0;
#X connect 19 0 78 0;
#X connect 20 0 79 0;
#X connect 21 0 82 0;
#X connect 22 0 81 0;
#X connect 23 0 80 0;
#X connect 24 0 83 0;
#X connect 25 0 85 0;
#X connect 26 0 87 0;
#X connect 27 0 84 0;
#X connect 28 0 86 0;
#X connect 29 0 88 0;
#X connect 32 0 75 0;
#X connect 33 0 76 0;
#X connect 41 0 132 0;
#X connect 42 0 133 0;
#X connect 43 0 134 0;
#X connect 44 0 135 0;
#X connect 45 0 136 0;
#X connect 46 0 137 0;
#X connect 48 0 72 0;
#X connect 48 0 306 0;
#X connect 50 0 117 0;
#X connect 51 0 118 0;
#X connect 52 0 119 0;
#X connect 53 0 120 0;
#X connect 54 0 121 0;
#X connect 55 0 122 0;
#X connect 64 0 72 0;
#X connect 89 0 103 0;
#X connect 90 0 105 0;
#X connect 91 0 106 0;
#X connect 92 0 104 0;
#X connect 93 0 108 0;
#X connect 94 0 109 0;
#X connect 95 0 112 0;
#X connect 96 0 111 0;
#X connect 97 0 110 0;
#X connect 98 0 113 0;
#X connect 99 0 114 0;
#X connect 100 0 115 0;
#X connect 101 0 107 0;
#X connect 102 0 116 0;
#X connect 123 0 57 0;
#X connect 124 0 58 0;
#X connect 125 0 59 0;
#X connect 126 0 62 0;
#X connect 127 0 61 0;
#X connect 128 0 60 0;
#X connect 138 0 144 0;
#X connect 139 0 145 0;
#X connect 140 0 146 0;
#X connect 141 0 149 0;
#X connect 142 0 148 0;
#X connect 143 0 147 0;
#X connect 150 0 157 0;
#X connect 151 0 158 0;
#X connect 152 0 159 0;
#X connect 153 0 160 0;
#X connect 154 0 161 0;
#X connect 155 0 162 0;
#X connect 156 0 163 0;
#X connect 164 0 171 0;
#X connect 165 0 172 0;
#X connect 166 0 174 0;
#X connect 167 0 176 0;
#X connect 168 0 173 0;
#X connect 169 0 175 0;
#X connect 170 0 177 0;
#X connect 178 0 179 0;
#X connect 178 0 180 0;
#X connect 178 0 181 0;
#X connect 178 0 182 0;
#X connect 178 0 183 0;
#X connect 178 0 184 0;
#X connect 179 0 185 0;
#X connect 180 0 187 0;
#X connect 181 0 189 0;
#X connect 182 0 186 0;
#X connect 183 0 188 0;
#X connect 184 0 190 0;
#X connect 191 0 198 0;
#X connect 191 0 41 0;
#X connect 191 0 42 0;
#X connect 191 0 43 0;
#X connect 191 0 44 0;
#X connect 191 0 45 0;
#X connect 191 0 46 0;
#X connect 191 0 138 0;
#X connect 191 0 139 0;
#X connect 191 0 140 0;
#X connect 191 0 141 0;
#X connect 191 0 142 0;
#X connect 191 0 143 0;
#X connect 191 0 278 0;
#X connect 191 0 279 0;
#X connect 191 0 280 0;
#X connect 191 0 281 0;
#X connect 191 0 282 0;
#X connect 191 0 283 0;
#X connect 192 0 199 0;
#X connect 192 0 41 0;
#X connect 192 0 138 0;
#X connect 192 0 278 0;
#X connect 193 0 201 0;
#X connect 193 0 42 0;
#X connect 193 0 139 0;
#X connect 193 0 279 0;
#X connect 194 0 203 0;
#X connect 194 0 43 0;
#X connect 194 0 140 0;
#X connect 194 0 280 0;
#X connect 195 0 200 0;
#X connect 195 0 44 0;
#X connect 195 0 141 0;
#X connect 195 0 281 0;
#X connect 196 0 202 0;
#X connect 196 0 45 0;
#X connect 196 0 142 0;
#X connect 196 0 282 0;
#X connect 197 0 204 0;
#X connect 197 0 46 0;
#X connect 197 0 143 0;
#X connect 197 0 283 0;
#X connect 205 0 217 0;
#X connect 206 0 218 0;
#X connect 207 0 219 0;
#X connect 208 0 220 0;
#X connect 209 0 221 0;
#X connect 210 0 222 0;
#X connect 211 0 223 0;
#X connect 212 0 224 0;
#X connect 213 0 225 0;
#X connect 214 0 226 0;
#X connect 215 0 227 0;
#X connect 216 0 228 0;
#X connect 230 0 238 0;
#X connect 231 0 241 0;
#X connect 232 0 242 0;
#X connect 233 0 239 0;
#X connect 234 0 240 0;
#X connect 235 0 243 0;
#X connect 250 0 252 0;
#X connect 256 0 257 0;
#X connect 258 0 259 0;
#X connect 263 0 269 0;
#X connect 264 0 270 0;
#X connect 265 0 271 0;
#X connect 266 0 272 0;
#X connect 267 0 273 0;
#X connect 268 0 274 0;
#X connect 278 0 284 0;
#X connect 279 0 286 0;
#X connect 280 0 288 0;
#X connect 281 0 285 0;
#X connect 282 0 287 0;
#X connect 283 0 289 0;
#X connect 290 0 7 0;
#X connect 290 0 8 0;
#X connect 290 0 9 0;
#X connect 290 0 12 0;
#X connect 290 0 11 0;
#X connect 290 0 10 0;
#X connect 291 0 292 0;
#X connect 299 0 306 0;
#X connect 300 0 50 0;
#X connect 301 0 51 0;
#X connect 302 0 52 0;
#X connect 303 0 53 0;
#X connect 304 0 54 0;
#X connect 305 0 55 0;
#X connect 306 0 300 0;
#X connect 306 0 303 0;
#X connect 306 0 301 0;
#X connect 306 0 302 0;
#X connect 306 0 304 0;
#X connect 306 0 305 0;
#X connect 307 0 323 0;
#X connect 307 1 322 0;
#X connect 307 2 290 0;
#X connect 307 3 309 0;
#X connect 307 4 306 0;
#X connect 307 5 3 0;
#X connect 307 6 299 0;
#X connect 308 0 307 0;
#X connect 309 0 260 0;
#X connect 322 0 295 0;
#X connect 323 0 293 0;
#X connect 324 0 325 0;
#X connect 325 0 7 0;
#X connect 325 0 8 0;
#X connect 325 0 9 0;
#X connect 325 0 10 0;
#X connect 325 0 11 0;
#X connect 325 0 12 0;
#X coords 0 -1 1 1 450 244 1 100 100;
