#N canvas -4 -4 1366 684 10;
#X obj 72 16 vradio 15 1 0 12 empty empty empty 0 -8 0 10 -262144 -1
-1 0;
#X obj 72 220 vradio 15 1 0 9 empty empty empty 0 -8 0 10 -262144 -1
-1 0;
#X obj 72 379 vradio 15 1 0 9 empty empty empty 0 -8 0 10 -262144 -1
-1 0;
#X obj 72 538 vradio 15 1 0 3 empty empty empty 0 -8 0 10 -262144 -1
-1 0;
#X obj 72 607 vradio 15 1 0 3 empty empty empty 0 -8 0 10 -262144 -1
-1 2;
#X obj 91 16 vradio 15 1 0 12 empty empty empty 0 -8 0 10 -262144 -1
-1 1;
#X obj 91 220 vradio 15 1 0 9 empty empty empty 0 -8 0 10 -262144 -1
-1 1;
#X obj 91 379 vradio 15 1 0 9 empty empty empty 0 -8 0 10 -262144 -1
-1 1;
#X obj 91 538 vradio 15 1 0 3 empty empty empty 0 -8 0 10 -262144 -1
-1 1;
#X obj 91 607 vradio 15 1 0 3 empty empty empty 0 -8 0 10 -262144 -1
-1 1;
#X obj 110 16 vradio 15 1 0 12 empty empty empty 0 -8 0 10 -262144
-1 -1 2;
#X obj 110 220 vradio 15 1 0 9 empty empty empty 0 -8 0 10 -262144
-1 -1 2;
#X obj 110 379 vradio 15 1 0 9 empty empty empty 0 -8 0 10 -262144
-1 -1 2;
#X obj 110 538 vradio 15 1 0 3 empty empty empty 0 -8 0 10 -262144
-1 -1 2;
#X obj 110 607 vradio 15 1 0 3 empty empty empty 0 -8 0 10 -262144
-1 -1 0;
#X obj 129 16 vradio 15 1 0 12 empty empty empty 0 -8 0 10 -262144
-1 -1 3;
#X obj 129 220 vradio 15 1 0 9 empty empty empty 0 -8 0 10 -262144
-1 -1 3;
#X obj 129 379 vradio 15 1 0 9 empty empty empty 0 -8 0 10 -262144
-1 -1 3;
#X obj 129 538 vradio 15 1 0 3 empty empty empty 0 -8 0 10 -262144
-1 -1 0;
#X obj 129 607 vradio 15 1 0 3 empty empty empty 0 -8 0 10 -262144
-1 -1 0;
#X obj 149 16 vradio 15 1 0 12 empty empty empty 0 -8 0 10 -262144
-1 -1 4;
#X obj 149 220 vradio 15 1 0 9 empty empty empty 0 -8 0 10 -262144
-1 -1 4;
#X obj 149 379 vradio 15 1 0 9 empty empty empty 0 -8 0 10 -262144
-1 -1 4;
#X obj 149 538 vradio 15 1 0 3 empty empty empty 0 -8 0 10 -262144
-1 -1 1;
#X obj 149 607 vradio 15 1 0 3 empty empty empty 0 -8 0 10 -262144
-1 -1 0;
#X obj 168 16 vradio 15 1 0 12 empty empty empty 0 -8 0 10 -262144
-1 -1 5;
#X obj 168 220 vradio 15 1 0 9 empty empty empty 0 -8 0 10 -262144
-1 -1 5;
#X obj 168 379 vradio 15 1 0 9 empty empty empty 0 -8 0 10 -262144
-1 -1 5;
#X obj 168 538 vradio 15 1 0 3 empty empty empty 0 -8 0 10 -262144
-1 -1 2;
#X obj 168 607 vradio 15 1 0 3 empty empty empty 0 -8 0 10 -262144
-1 -1 0;
#X obj 187 16 vradio 15 1 0 12 empty empty empty 0 -8 0 10 -262144
-1 -1 6;
#X obj 187 220 vradio 15 1 0 9 empty empty empty 0 -8 0 10 -262144
-1 -1 6;
#X obj 187 379 vradio 15 1 0 9 empty empty empty 0 -8 0 10 -262144
-1 -1 6;
#X obj 187 538 vradio 15 1 0 3 empty empty empty 0 -8 0 10 -262144
-1 -1 0;
#X obj 187 607 vradio 15 1 0 3 empty empty empty 0 -8 0 10 -262144
-1 -1 0;
#X obj 206 16 vradio 15 1 0 12 empty empty empty 0 -8 0 10 -262144
-1 -1 7;
#X obj 206 220 vradio 15 1 0 9 empty empty empty 0 -8 0 10 -262144
-1 -1 7;
#X obj 206 379 vradio 15 1 0 9 empty empty empty 0 -8 0 10 -262144
-1 -1 7;
#X obj 206 538 vradio 15 1 0 3 empty empty empty 0 -8 0 10 -262144
-1 -1 1;
#X obj 206 607 vradio 15 1 0 3 empty empty empty 0 -8 0 10 -262144
-1 -1 0;
#X obj 225 16 vradio 15 1 0 12 empty empty empty 0 -8 0 10 -262144
-1 -1 8;
#X obj 225 220 vradio 15 1 0 9 empty empty empty 0 -8 0 10 -262144
-1 -1 8;
#X obj 225 379 vradio 15 1 0 9 empty empty empty 0 -8 0 10 -262144
-1 -1 8;
#X obj 225 538 vradio 15 1 0 3 empty empty empty 0 -8 0 10 -262144
-1 -1 2;
#X obj 225 607 vradio 15 1 0 3 empty empty empty 0 -8 0 10 -262144
-1 -1 0;
#X obj 245 16 vradio 15 1 0 12 empty empty empty 0 -8 0 10 -262144
-1 -1 9;
#X obj 245 220 vradio 15 1 0 9 empty empty empty 0 -8 0 10 -262144
-1 -1 0;
#X obj 245 379 vradio 15 1 0 9 empty empty empty 0 -8 0 10 -262144
-1 -1 0;
#X obj 245 538 vradio 15 1 0 3 empty empty empty 0 -8 0 10 -262144
-1 -1 1;
#X obj 245 607 vradio 15 1 0 3 empty empty empty 0 -8 0 10 -262144
-1 -1 0;
#X obj 265 16 vradio 15 1 0 12 empty empty empty 0 -8 0 10 -262144
-1 -1 10;
#X obj 265 220 vradio 15 1 0 9 empty empty empty 0 -8 0 10 -262144
-1 -1 1;
#X obj 265 379 vradio 15 1 0 9 empty empty empty 0 -8 0 10 -262144
-1 -1 1;
#X obj 265 538 vradio 15 1 0 3 empty empty empty 0 -8 0 10 -262144
-1 -1 0;
#X obj 265 607 vradio 15 1 0 3 empty empty empty 0 -8 0 10 -262144
-1 -1 0;
#X obj 319 16 vradio 15 1 0 12 empty empty empty 0 -8 0 10 -262144
-1 -1 0;
#X obj 319 220 vradio 15 1 0 9 empty empty empty 0 -8 0 10 -262144
-1 -1 0;
#X obj 319 379 vradio 15 1 0 9 empty empty empty 0 -8 0 10 -262144
-1 -1 0;
#X obj 319 538 vradio 15 1 0 3 empty empty empty 0 -8 0 10 -262144
-1 -1 0;
#X obj 319 607 vradio 15 1 0 3 empty empty empty 0 -8 0 10 -262144
-1 -1 0;
#X obj 338 16 vradio 15 1 0 12 empty empty empty 0 -8 0 10 -262144
-1 -1 0;
#X obj 338 220 vradio 15 1 0 9 empty empty empty 0 -8 0 10 -262144
-1 -1 0;
#X obj 338 379 vradio 15 1 0 9 empty empty empty 0 -8 0 10 -262144
-1 -1 0;
#X obj 338 538 vradio 15 1 0 3 empty empty empty 0 -8 0 10 -262144
-1 -1 0;
#X obj 338 607 vradio 15 1 0 3 empty empty empty 0 -8 0 10 -262144
-1 -1 0;
#X obj 357 16 vradio 15 1 0 12 empty empty empty 0 -8 0 10 -262144
-1 -1 0;
#X obj 357 220 vradio 15 1 0 9 empty empty empty 0 -8 0 10 -262144
-1 -1 0;
#X obj 357 379 vradio 15 1 0 9 empty empty empty 0 -8 0 10 -262144
-1 -1 0;
#X obj 357 538 vradio 15 1 0 3 empty empty empty 0 -8 0 10 -262144
-1 -1 0;
#X obj 357 607 vradio 15 1 0 3 empty empty empty 0 -8 0 10 -262144
-1 -1 0;
#X obj 376 16 vradio 15 1 0 12 empty empty empty 0 -8 0 10 -262144
-1 -1 0;
#X obj 376 220 vradio 15 1 0 9 empty empty empty 0 -8 0 10 -262144
-1 -1 0;
#X obj 376 379 vradio 15 1 0 9 empty empty empty 0 -8 0 10 -262144
-1 -1 0;
#X obj 376 538 vradio 15 1 0 3 empty empty empty 0 -8 0 10 -262144
-1 -1 0;
#X obj 376 607 vradio 15 1 0 3 empty empty empty 0 -8 0 10 -262144
-1 -1 0;
#X obj 396 16 vradio 15 1 0 12 empty empty empty 0 -8 0 10 -262144
-1 -1 0;
#X obj 396 220 vradio 15 1 0 9 empty empty empty 0 -8 0 10 -262144
-1 -1 0;
#X obj 396 379 vradio 15 1 0 9 empty empty empty 0 -8 0 10 -262144
-1 -1 0;
#X obj 396 538 vradio 15 1 0 3 empty empty empty 0 -8 0 10 -262144
-1 -1 0;
#X obj 396 607 vradio 15 1 0 3 empty empty empty 0 -8 0 10 -262144
-1 -1 0;
#X obj 415 16 vradio 15 1 0 12 empty empty empty 0 -8 0 10 -262144
-1 -1 0;
#X obj 415 220 vradio 15 1 0 9 empty empty empty 0 -8 0 10 -262144
-1 -1 0;
#X obj 415 379 vradio 15 1 0 9 empty empty empty 0 -8 0 10 -262144
-1 -1 0;
#X obj 415 538 vradio 15 1 0 3 empty empty empty 0 -8 0 10 -262144
-1 -1 0;
#X obj 415 607 vradio 15 1 0 3 empty empty empty 0 -8 0 10 -262144
-1 -1 0;
#X obj 434 16 vradio 15 1 0 12 empty empty empty 0 -8 0 10 -262144
-1 -1 0;
#X obj 434 220 vradio 15 1 0 9 empty empty empty 0 -8 0 10 -262144
-1 -1 0;
#X obj 434 379 vradio 15 1 0 9 empty empty empty 0 -8 0 10 -262144
-1 -1 0;
#X obj 434 538 vradio 15 1 0 3 empty empty empty 0 -8 0 10 -262144
-1 -1 0;
#X obj 434 607 vradio 15 1 0 3 empty empty empty 0 -8 0 10 -262144
-1 -1 0;
#X obj 453 16 vradio 15 1 0 12 empty empty empty 0 -8 0 10 -262144
-1 -1 0;
#X obj 453 220 vradio 15 1 0 9 empty empty empty 0 -8 0 10 -262144
-1 -1 0;
#X obj 453 379 vradio 15 1 0 9 empty empty empty 0 -8 0 10 -262144
-1 -1 0;
#X obj 453 538 vradio 15 1 0 3 empty empty empty 0 -8 0 10 -262144
-1 -1 0;
#X obj 453 607 vradio 15 1 0 3 empty empty empty 0 -8 0 10 -262144
-1 -1 0;
#X obj 472 16 vradio 15 1 0 12 empty empty empty 0 -8 0 10 -262144
-1 -1 0;
#X obj 472 220 vradio 15 1 0 9 empty empty empty 0 -8 0 10 -262144
-1 -1 0;
#X obj 472 379 vradio 15 1 0 9 empty empty empty 0 -8 0 10 -262144
-1 -1 0;
#X obj 472 538 vradio 15 1 0 3 empty empty empty 0 -8 0 10 -262144
-1 -1 0;
#X obj 472 607 vradio 15 1 0 3 empty empty empty 0 -8 0 10 -262144
-1 -1 0;
#X obj 492 16 vradio 15 1 0 12 empty empty empty 0 -8 0 10 -262144
-1 -1 0;
#X obj 492 220 vradio 15 1 0 9 empty empty empty 0 -8 0 10 -262144
-1 -1 0;
#X obj 492 379 vradio 15 1 0 9 empty empty empty 0 -8 0 10 -262144
-1 -1 0;
#X obj 492 538 vradio 15 1 0 3 empty empty empty 0 -8 0 10 -262144
-1 -1 0;
#X obj 492 607 vradio 15 1 0 3 empty empty empty 0 -8 0 10 -262144
-1 -1 0;
#X obj 512 16 vradio 15 1 0 12 empty empty empty 0 -8 0 10 -262144
-1 -1 0;
#X obj 512 220 vradio 15 1 0 9 empty empty empty 0 -8 0 10 -262144
-1 -1 0;
#X obj 512 379 vradio 15 1 0 9 empty empty empty 0 -8 0 10 -262144
-1 -1 0;
#X obj 512 538 vradio 15 1 0 3 empty empty empty 0 -8 0 10 -262144
-1 -1 0;
#X obj 512 607 vradio 15 1 0 3 empty empty empty 0 -8 0 10 -262144
-1 -1 0;
#X obj 533 16 vradio 15 1 0 12 empty empty empty 0 -8 0 10 -262144
-1 -1 0;
#X obj 533 220 vradio 15 1 0 9 empty empty empty 0 -8 0 10 -262144
-1 -1 0;
#X obj 533 379 vradio 15 1 0 9 empty empty empty 0 -8 0 10 -262144
-1 -1 0;
#X obj 533 538 vradio 15 1 0 3 empty empty empty 0 -8 0 10 -262144
-1 -1 0;
#X obj 533 607 vradio 15 1 0 3 empty empty empty 0 -8 0 10 -262144
-1 -1 0;
#X obj 285 16 vradio 15 1 0 12 empty empty empty 0 -8 0 10 -262144
-1 -1 11;
#X obj 285 220 vradio 15 1 0 9 empty empty empty 0 -8 0 10 -262144
-1 -1 2;
#X obj 285 379 vradio 15 1 0 9 empty empty empty 0 -8 0 10 -262144
-1 -1 2;
#X obj 285 538 vradio 15 1 0 3 empty empty empty 0 -8 0 10 -262144
-1 -1 1;
#X obj 285 607 vradio 15 1 0 3 empty empty empty 0 -8 0 10 -262144
-1 -1 0;
#X obj -73 322 sequencervolume;
#X obj -88 483 sequencerregister;
#X obj -88 571 sequenceraccident;
#X obj -211 239 seqclock;
#X obj -347 342 seqout;
#X obj -210 19 tgl 15 0 empty empty empty 17 7 0 10 -262144 -1 -1 1
1;
#X floatatom -165 19 5 0 0 0 - - -;
#X floatatom 732 -19 5 0 0 0 - - -;
#X obj -100 322 f;
#X floatatom -195 298 5 0 0 0 - - -;
#X obj -116 483 f;
#X floatatom -216 439 5 0 0 0 - - -;
#X obj -116 527 f;
#X floatatom -227 503 5 0 0 0 - - -;
#X obj -116 571 f;
#X floatatom -233 564 5 0 0 0 - - -;
#X obj -154 150 f;
#X obj 787 11 f;
#X obj 791 54 f;
#X obj 794 102 f;
#X obj 798 140 f;
#X obj 805 186 f;
#X obj 807 220 f;
#X obj 814 255 f;
#X obj 816 304 f;
#X obj 812 347 f;
#X obj 813 392 f;
#X obj 821 436 f;
#X obj 814 494 f;
#X obj 586 146 sequencerpitch;
#X obj 605 184 sequencerpitch;
#X obj 622 213 sequencerpitch;
#X obj 608 260 sequencerpitch;
#X obj 604 295 sequencerpitch;
#X obj 609 360 sequencerpitch;
#X obj 611 327 sequencerpitch;
#X obj 585 396 sequencerpitch;
#X obj 593 434 sequencerpitch;
#X obj 616 477 sequencerpitch;
#X obj 611 508 sequencerpitch;
#X obj 620 540 sequencerpitch;
#X floatatom 856 61 5 0 0 0 - - -;
#X obj 1022 44 seqcount;
#X floatatom 1112 26 5 0 0 0 - - -;
#X obj 1167 56 f;
#X obj 1171 99 f;
#X obj 1174 147 f;
#X obj 1178 185 f;
#X obj 1185 231 f;
#X obj 1187 265 f;
#X obj 1194 300 f;
#X obj 1196 349 f;
#X obj 1192 392 f;
#X obj 1193 437 f;
#X obj 1201 481 f;
#X obj 1194 539 f;
#X floatatom 1328 283 5 0 0 0 - - -;
#X obj 910 378 sequencervolume;
#X obj 901 348 sequencervolume;
#X obj 906 315 sequencervolume;
#X obj 883 273 sequencervolume;
#X obj 875 237 sequencervolume;
#X obj 899 199 sequencervolume;
#X obj 901 166 sequencervolume;
#X obj 894 134 sequencervolume;
#X obj 898 99 sequencervolume;
#X obj 912 53 sequencervolume;
#X obj 895 23 sequencervolume;
#X obj 876 -15 sequencervolume;
#X floatatom 27 267 5 0 0 0 - - -;
#X obj 642 -1 seqcount;
#X obj -241 342 seqcount;
#X obj -261 472 seqcount;
#X obj -272 536 seqcount;
#X obj -278 597 seqcount;
#X obj 1303 377 send catz;
#X obj 846 700 seqcount;
#X floatatom 936 682 5 0 0 0 - - -;
#X obj 991 712 f;
#X obj 995 755 f;
#X obj 998 803 f;
#X obj 1002 841 f;
#X obj 1009 887 f;
#X obj 1011 921 f;
#X obj 1018 956 f;
#X obj 1020 1005 f;
#X obj 1016 1048 f;
#X obj 1017 1093 f;
#X obj 1025 1137 f;
#X obj 1018 1195 f;
#X floatatom 1152 939 5 0 0 0 - - -;
#X obj 700 641 sequencerregister;
#X obj 719 679 sequencerregister;
#X obj 736 709 sequencerregister;
#X obj 722 755 sequencerregister;
#X obj 718 790 sequencerregister;
#X obj 725 822 sequencerregister;
#X obj 723 855 sequencerregister;
#X obj 699 893 sequencerregister;
#X obj 707 929 sequencerregister;
#X obj 730 971 sequencerregister;
#X obj 725 1004 sequencerregister;
#X obj 734 1034 sequencerregister;
#X obj 931 482 send ratz;
#X obj 807 597 r ratz;
#X obj 1127 1033 send carson;
#X obj 279 797 seqcount;
#X floatatom 369 779 5 0 0 0 - - -;
#X obj 424 809 f;
#X obj 428 852 f;
#X obj 431 900 f;
#X obj 435 938 f;
#X obj 442 984 f;
#X obj 444 1018 f;
#X obj 451 1053 f;
#X obj 453 1102 f;
#X obj 449 1145 f;
#X obj 450 1190 f;
#X obj 458 1234 f;
#X obj 451 1292 f;
#X floatatom 585 1036 5 0 0 0 - - -;
#X obj 240 694 r carson;
#X obj 560 1129 send billingsly;
#X obj 133 738 sequencerfurther;
#X floatatom 313 736 5 0 0 0 - - -;
#X obj -88 527 sequencerfurther;
#X obj 152 776 sequencerfurther;
#X obj 169 807 sequencerfurther;
#X obj 155 852 sequencerfurther;
#X obj 151 887 sequencerfurther;
#X obj 159 919 sequencerfurther;
#X obj 157 952 sequencerfurther;
#X obj 132 990 sequencerfurther;
#X obj 140 1026 sequencerfurther;
#X obj 163 1068 sequencerfurther;
#X obj 158 1101 sequencerfurther;
#X obj 167 1130 sequencerfurther;
#X obj -256 772 seqcount;
#X floatatom -166 754 5 0 0 0 - - -;
#X obj -111 784 f;
#X obj -107 827 f;
#X obj -104 875 f;
#X obj -100 913 f;
#X obj -93 959 f;
#X obj -91 993 f;
#X obj -84 1028 f;
#X obj -82 1077 f;
#X obj -86 1120 f;
#X obj -85 1165 f;
#X obj -77 1209 f;
#X obj -84 1267 f;
#X floatatom 50 1011 5 0 0 0 - - -;
#X obj -402 713 sequencerfurther;
#X floatatom -222 711 5 0 0 0 - - -;
#X obj -383 751 sequencerfurther;
#X obj -366 782 sequencerfurther;
#X obj -380 827 sequencerfurther;
#X obj -384 862 sequencerfurther;
#X obj -376 894 sequencerfurther;
#X obj -378 927 sequencerfurther;
#X obj -403 965 sequencerfurther;
#X obj -395 1001 sequencerfurther;
#X obj -372 1043 sequencerfurther;
#X obj -377 1076 sequencerfurther;
#X obj -368 1105 sequencerfurther;
#X obj 25 1104 send final;
#X obj -295 669 r billingsly;
#X connect 0 0 149 0;
#X connect 1 0 120 0;
#X connect 1 0 188 0;
#X connect 1 0 189 0;
#X connect 2 0 121 0;
#X connect 2 0 211 0;
#X connect 3 0 243 0;
#X connect 3 0 245 0;
#X connect 4 0 122 0;
#X connect 4 0 272 0;
#X connect 5 0 150 0;
#X connect 6 0 187 0;
#X connect 7 0 212 0;
#X connect 8 0 246 0;
#X connect 9 0 274 0;
#X connect 10 0 151 0;
#X connect 11 0 186 0;
#X connect 12 0 213 0;
#X connect 13 0 247 0;
#X connect 14 0 275 0;
#X connect 15 0 152 0;
#X connect 16 0 185 0;
#X connect 17 0 214 0;
#X connect 18 0 248 0;
#X connect 19 0 276 0;
#X connect 20 0 153 0;
#X connect 21 0 184 0;
#X connect 22 0 215 0;
#X connect 23 0 249 0;
#X connect 24 0 277 0;
#X connect 25 0 155 0;
#X connect 26 0 183 0;
#X connect 27 0 216 0;
#X connect 28 0 250 0;
#X connect 29 0 278 0;
#X connect 30 0 154 0;
#X connect 31 0 182 0;
#X connect 32 0 217 0;
#X connect 33 0 251 0;
#X connect 34 0 279 0;
#X connect 35 0 156 0;
#X connect 36 0 181 0;
#X connect 37 0 218 0;
#X connect 38 0 252 0;
#X connect 39 0 280 0;
#X connect 40 0 157 0;
#X connect 41 0 180 0;
#X connect 42 0 219 0;
#X connect 43 0 253 0;
#X connect 44 0 281 0;
#X connect 45 0 158 0;
#X connect 46 0 179 0;
#X connect 47 0 220 0;
#X connect 48 0 254 0;
#X connect 49 0 282 0;
#X connect 50 0 159 0;
#X connect 51 0 178 0;
#X connect 52 0 221 0;
#X connect 53 0 255 0;
#X connect 54 0 283 0;
#X connect 115 0 160 0;
#X connect 116 0 177 0;
#X connect 117 0 222 0;
#X connect 118 0 256 0;
#X connect 119 0 284 0;
#X connect 120 0 128 1;
#X connect 121 0 130 1;
#X connect 122 0 134 1;
#X connect 123 0 162 0;
#X connect 123 0 190 0;
#X connect 123 0 191 0;
#X connect 123 0 192 0;
#X connect 123 0 193 0;
#X connect 123 0 194 0;
#X connect 123 0 196 0;
#X connect 123 0 226 0;
#X connect 123 0 257 0;
#X connect 125 0 123 0;
#X connect 126 0 123 1;
#X connect 127 0 190 1;
#X connect 128 0 124 1;
#X connect 129 0 191 1;
#X connect 131 0 192 1;
#X connect 133 0 193 1;
#X connect 135 0 194 1;
#X connect 137 0 161 0;
#X connect 137 0 223 0;
#X connect 138 0 161 0;
#X connect 138 0 223 0;
#X connect 139 0 161 0;
#X connect 139 0 223 0;
#X connect 140 0 161 0;
#X connect 140 0 223 0;
#X connect 141 0 161 0;
#X connect 141 0 223 0;
#X connect 142 0 161 0;
#X connect 142 0 223 0;
#X connect 143 0 161 0;
#X connect 143 0 223 0;
#X connect 144 0 161 0;
#X connect 144 0 223 0;
#X connect 145 0 161 0;
#X connect 145 0 223 0;
#X connect 146 0 161 0;
#X connect 146 0 223 0;
#X connect 147 0 161 0;
#X connect 147 0 223 0;
#X connect 148 0 161 0;
#X connect 148 0 223 0;
#X connect 149 0 137 1;
#X connect 150 0 138 1;
#X connect 151 0 139 1;
#X connect 152 0 140 1;
#X connect 153 0 141 1;
#X connect 154 0 143 1;
#X connect 155 0 142 1;
#X connect 156 0 144 1;
#X connect 157 0 145 1;
#X connect 158 0 146 1;
#X connect 159 0 147 1;
#X connect 160 0 148 1;
#X connect 162 0 175 0;
#X connect 162 1 174 0;
#X connect 162 2 173 0;
#X connect 162 3 172 0;
#X connect 162 4 171 0;
#X connect 162 5 170 0;
#X connect 162 6 169 0;
#X connect 162 7 168 0;
#X connect 162 8 167 0;
#X connect 162 9 166 0;
#X connect 162 10 165 0;
#X connect 162 11 164 0;
#X connect 163 0 162 1;
#X connect 164 0 176 0;
#X connect 164 0 195 0;
#X connect 165 0 176 0;
#X connect 165 0 195 0;
#X connect 166 0 176 0;
#X connect 166 0 195 0;
#X connect 167 0 176 0;
#X connect 167 0 195 0;
#X connect 168 0 176 0;
#X connect 168 0 195 0;
#X connect 169 0 176 0;
#X connect 169 0 195 0;
#X connect 170 0 176 0;
#X connect 170 0 195 0;
#X connect 171 0 176 0;
#X connect 171 0 195 0;
#X connect 172 0 176 0;
#X connect 172 0 195 0;
#X connect 173 0 176 0;
#X connect 173 0 195 0;
#X connect 174 0 176 0;
#X connect 174 0 195 0;
#X connect 175 0 176 0;
#X connect 175 0 195 0;
#X connect 177 0 175 1;
#X connect 178 0 174 1;
#X connect 179 0 173 1;
#X connect 180 0 172 1;
#X connect 181 0 171 1;
#X connect 182 0 170 1;
#X connect 183 0 169 1;
#X connect 184 0 168 1;
#X connect 185 0 167 1;
#X connect 186 0 166 1;
#X connect 187 0 165 1;
#X connect 188 0 164 1;
#X connect 190 0 148 0;
#X connect 190 1 147 0;
#X connect 190 2 146 0;
#X connect 190 3 145 0;
#X connect 190 4 144 0;
#X connect 190 5 143 0;
#X connect 190 6 142 0;
#X connect 190 7 141 0;
#X connect 190 8 140 0;
#X connect 190 9 139 0;
#X connect 190 10 138 0;
#X connect 190 11 137 0;
#X connect 191 11 128 0;
#X connect 192 11 130 0;
#X connect 193 11 132 0;
#X connect 194 11 134 0;
#X connect 196 0 209 0;
#X connect 196 1 208 0;
#X connect 196 2 207 0;
#X connect 196 3 206 0;
#X connect 196 4 205 0;
#X connect 196 5 204 0;
#X connect 196 6 203 0;
#X connect 196 7 202 0;
#X connect 196 8 201 0;
#X connect 196 9 200 0;
#X connect 196 10 199 0;
#X connect 196 11 198 0;
#X connect 197 0 196 1;
#X connect 198 0 210 0;
#X connect 198 0 225 0;
#X connect 199 0 210 0;
#X connect 199 0 225 0;
#X connect 200 0 210 0;
#X connect 200 0 225 0;
#X connect 201 0 210 0;
#X connect 201 0 225 0;
#X connect 202 0 210 0;
#X connect 202 0 225 0;
#X connect 203 0 210 0;
#X connect 203 0 225 0;
#X connect 204 0 210 0;
#X connect 204 0 225 0;
#X connect 205 0 210 0;
#X connect 205 0 225 0;
#X connect 206 0 210 0;
#X connect 206 0 225 0;
#X connect 207 0 210 0;
#X connect 207 0 225 0;
#X connect 208 0 210 0;
#X connect 208 0 225 0;
#X connect 209 0 210 0;
#X connect 209 0 225 0;
#X connect 211 0 198 1;
#X connect 212 0 199 1;
#X connect 213 0 200 1;
#X connect 214 0 201 1;
#X connect 215 0 202 1;
#X connect 216 0 203 1;
#X connect 217 0 204 1;
#X connect 218 0 205 1;
#X connect 219 0 206 1;
#X connect 220 0 207 1;
#X connect 221 0 208 1;
#X connect 222 0 209 1;
#X connect 224 0 211 1;
#X connect 224 0 212 1;
#X connect 224 0 213 1;
#X connect 224 0 214 1;
#X connect 224 0 215 1;
#X connect 224 0 216 1;
#X connect 224 0 217 1;
#X connect 224 0 218 1;
#X connect 224 0 219 1;
#X connect 224 0 220 1;
#X connect 224 0 221 1;
#X connect 224 0 222 1;
#X connect 226 0 239 0;
#X connect 226 1 238 0;
#X connect 226 2 237 0;
#X connect 226 3 236 0;
#X connect 226 4 235 0;
#X connect 226 5 234 0;
#X connect 226 6 233 0;
#X connect 226 7 232 0;
#X connect 226 8 231 0;
#X connect 226 9 230 0;
#X connect 226 10 229 0;
#X connect 226 11 228 0;
#X connect 227 0 226 1;
#X connect 228 0 240 0;
#X connect 228 0 242 0;
#X connect 229 0 240 0;
#X connect 229 0 242 0;
#X connect 230 0 240 0;
#X connect 230 0 242 0;
#X connect 231 0 240 0;
#X connect 231 0 242 0;
#X connect 232 0 240 0;
#X connect 232 0 242 0;
#X connect 233 0 240 0;
#X connect 233 0 242 0;
#X connect 234 0 240 0;
#X connect 234 0 242 0;
#X connect 235 0 240 0;
#X connect 235 0 242 0;
#X connect 236 0 240 0;
#X connect 236 0 242 0;
#X connect 237 0 240 0;
#X connect 237 0 242 0;
#X connect 238 0 240 0;
#X connect 238 0 242 0;
#X connect 239 0 240 0;
#X connect 239 0 242 0;
#X connect 241 0 243 1;
#X connect 241 0 244 0;
#X connect 241 0 246 1;
#X connect 241 0 247 1;
#X connect 241 0 248 1;
#X connect 241 0 249 1;
#X connect 241 0 250 1;
#X connect 241 0 251 1;
#X connect 241 0 252 1;
#X connect 241 0 253 1;
#X connect 241 0 254 1;
#X connect 241 0 255 1;
#X connect 241 0 256 1;
#X connect 243 0 228 1;
#X connect 245 0 132 1;
#X connect 246 0 229 1;
#X connect 247 0 230 1;
#X connect 248 0 231 1;
#X connect 249 0 232 1;
#X connect 250 0 233 1;
#X connect 251 0 234 1;
#X connect 252 0 235 1;
#X connect 253 0 236 1;
#X connect 254 0 237 1;
#X connect 255 0 238 1;
#X connect 256 0 239 1;
#X connect 257 0 270 0;
#X connect 257 1 269 0;
#X connect 257 2 268 0;
#X connect 257 3 267 0;
#X connect 257 4 266 0;
#X connect 257 5 265 0;
#X connect 257 6 264 0;
#X connect 257 7 263 0;
#X connect 257 8 262 0;
#X connect 257 9 261 0;
#X connect 257 10 260 0;
#X connect 257 11 259 0;
#X connect 258 0 257 1;
#X connect 259 0 271 0;
#X connect 259 0 285 0;
#X connect 260 0 271 0;
#X connect 260 0 285 0;
#X connect 261 0 271 0;
#X connect 261 0 285 0;
#X connect 262 0 271 0;
#X connect 262 0 285 0;
#X connect 263 0 271 0;
#X connect 263 0 285 0;
#X connect 264 0 271 0;
#X connect 264 0 285 0;
#X connect 265 0 271 0;
#X connect 265 0 285 0;
#X connect 266 0 271 0;
#X connect 266 0 285 0;
#X connect 267 0 271 0;
#X connect 267 0 285 0;
#X connect 268 0 271 0;
#X connect 268 0 285 0;
#X connect 269 0 271 0;
#X connect 269 0 285 0;
#X connect 270 0 271 0;
#X connect 270 0 285 0;
#X connect 272 0 259 1;
#X connect 274 0 260 1;
#X connect 275 0 261 1;
#X connect 276 0 262 1;
#X connect 277 0 263 1;
#X connect 278 0 264 1;
#X connect 279 0 265 1;
#X connect 280 0 266 1;
#X connect 281 0 267 1;
#X connect 282 0 268 1;
#X connect 283 0 269 1;
#X connect 284 0 270 1;
#X connect 286 0 272 1;
#X connect 286 0 273 0;
#X connect 286 0 274 1;
#X connect 286 0 275 1;
#X connect 286 0 276 1;
#X connect 286 0 277 1;
#X connect 286 0 278 1;
#X connect 286 0 279 1;
#X connect 286 0 280 1;
#X connect 286 0 281 1;
#X connect 286 0 282 1;
#X connect 286 0 283 1;
#X connect 286 0 284 1;
