#N canvas 300 49 695 427 10;
#X obj 69 12 inlet;
#X obj 186 64 select 0;
#X obj 128 62 select 1;
#X obj 69 63 select 2;
#X obj 273 -3 inlet;
#X obj 213 210 +;
#X obj 179 260 outlet;
#X msg 126 134 0;
#X msg 185 134 7;
#X msg 68 134 -5;
#X connect 0 0 1 0;
#X connect 0 0 2 0;
#X connect 0 0 3 0;
#X connect 1 0 8 0;
#X connect 2 0 7 0;
#X connect 3 0 9 0;
#X connect 4 0 5 0;
#X connect 5 0 6 0;
#X connect 7 0 5 1;
#X connect 8 0 5 1;
#X connect 9 0 5 1;
