#N canvas 209 88 907 300 10;
#X obj 488 -45 inlet;
#X obj 421 134 outlet;
#X obj 688 50 select 0;
#X obj 630 48 select 1;
#X obj 571 49 select 2;
#X obj 513 49 select 3;
#X obj 456 49 select 4;
#X obj 398 49 select 5;
#X obj 340 49 select 6;
#X obj 282 49 select 7;
#X obj 224 49 select 8;
#X msg 224 77 0;
#X msg 282 76 16;
#X msg 340 76 32;
#X msg 398 77 48;
#X msg 456 76 64;
#X msg 513 76 80;
#X msg 571 76 96;
#X msg 629 76 112;
#X msg 688 76 127;
#X connect 0 0 2 0;
#X connect 0 0 3 0;
#X connect 0 0 4 0;
#X connect 0 0 5 0;
#X connect 0 0 6 0;
#X connect 0 0 7 0;
#X connect 0 0 8 0;
#X connect 0 0 9 0;
#X connect 0 0 10 0;
#X connect 2 0 19 0;
#X connect 3 0 18 0;
#X connect 4 0 17 0;
#X connect 5 0 16 0;
#X connect 6 0 15 0;
#X connect 7 0 14 0;
#X connect 8 0 13 0;
#X connect 9 0 12 0;
#X connect 10 0 11 0;
#X connect 11 0 1 0;
#X connect 12 0 1 0;
#X connect 13 0 1 0;
#X connect 14 0 1 0;
#X connect 15 0 1 0;
#X connect 16 0 1 0;
#X connect 17 0 1 0;
#X connect 18 0 1 0;
#X connect 19 0 1 0;
