#N canvas 282 318 907 300 10;
#X obj 41 30 inlet;
#X obj 207 92 mod;
#X obj 224 32 inlet;
#X obj 84 64 f;
#X obj 84 95 + 1;
#X obj 656 169 select 0;
#X obj 598 167 select 1;
#X obj 539 168 select 2;
#X obj 481 168 select 3;
#X obj 424 168 select 4;
#X obj 366 168 select 5;
#X obj 308 168 select 6;
#X obj 250 168 select 7;
#X obj 192 168 select 8;
#X obj 134 166 select 9;
#X obj 74 169 select 10;
#X obj 8 169 select 11;
#X obj 9 214 outlet;
#X obj 72 215 outlet;
#X obj 133 215 outlet;
#X obj 192 211 outlet;
#X obj 253 213 outlet;
#X obj 313 211 outlet;
#X obj 372 211 outlet;
#X obj 432 210 outlet;
#X obj 487 213 outlet;
#X obj 542 209 outlet;
#X obj 600 208 outlet;
#X obj 656 207 outlet;
#X connect 0 0 3 0;
#X connect 1 0 5 0;
#X connect 1 0 6 0;
#X connect 1 0 7 0;
#X connect 1 0 8 0;
#X connect 1 0 9 0;
#X connect 1 0 10 0;
#X connect 1 0 11 0;
#X connect 1 0 12 0;
#X connect 1 0 13 0;
#X connect 1 0 14 0;
#X connect 1 0 15 0;
#X connect 1 0 16 0;
#X connect 2 0 1 1;
#X connect 3 0 4 0;
#X connect 3 0 1 0;
#X connect 4 0 3 1;
#X connect 5 0 28 0;
#X connect 6 0 27 0;
#X connect 7 0 26 0;
#X connect 8 0 25 0;
#X connect 9 0 24 0;
#X connect 10 0 23 0;
#X connect 11 0 22 0;
#X connect 12 0 21 0;
#X connect 13 0 20 0;
#X connect 14 0 19 0;
#X connect 15 0 18 0;
#X connect 16 0 17 0;
