#N canvas 12 3 1345 676 10;
#X obj 405 157 vradio 15 1 0 12 empty empty empty 0 -8 0 10 -262144
-1 -1 11;
#X obj 404 365 vradio 15 1 0 9 empty empty empty 0 -8 0 10 -262144
-1 -1 8;
#X obj 403 527 vradio 15 1 0 9 empty empty empty 0 -8 0 10 -262144
-1 -1 4;
#X obj 404 675 vradio 15 1 0 3 empty empty empty 0 -8 0 10 -262144
-1 -1 1;
#X obj 404 744 vradio 15 1 0 3 empty empty empty 0 -8 0 10 -262144
-1 -1 1;
#X obj 424 157 vradio 15 1 0 12 empty empty empty 0 -8 0 10 -262144
-1 -1 11;
#X obj 423 366 vradio 15 1 0 9 empty empty empty 0 -8 0 10 -262144
-1 -1 8;
#X obj 424 528 vradio 15 1 0 9 empty empty empty 0 -8 0 10 -262144
-1 -1 4;
#X obj 423 675 vradio 15 1 0 3 empty empty empty 0 -8 0 10 -262144
-1 -1 1;
#X obj 423 744 vradio 15 1 0 3 empty empty empty 0 -8 0 10 -262144
-1 -1 1;
#X obj 443 157 vradio 15 1 0 12 empty empty empty 0 -8 0 10 -262144
-1 -1 11;
#X obj 442 365 vradio 15 1 0 9 empty empty empty 0 -8 0 10 -262144
-1 -1 8;
#X obj 443 527 vradio 15 1 0 9 empty empty empty 0 -8 0 10 -262144
-1 -1 4;
#X obj 442 675 vradio 15 1 0 3 empty empty empty 0 -8 0 10 -262144
-1 -1 1;
#X obj 442 744 vradio 15 1 0 3 empty empty empty 0 -8 0 10 -262144
-1 -1 1;
#X obj 462 157 vradio 15 1 0 12 empty empty empty 0 -8 0 10 -262144
-1 -1 11;
#X obj 461 365 vradio 15 1 0 9 empty empty empty 0 -8 0 10 -262144
-1 -1 8;
#X obj 463 527 vradio 15 1 0 9 empty empty empty 0 -8 0 10 -262144
-1 -1 4;
#X obj 461 675 vradio 15 1 0 3 empty empty empty 0 -8 0 10 -262144
-1 -1 1;
#X obj 461 744 vradio 15 1 0 3 empty empty empty 0 -8 0 10 -262144
-1 -1 1;
#X obj 482 157 vradio 15 1 0 12 empty empty empty 0 -8 0 10 -262144
-1 -1 11;
#X obj 481 365 vradio 15 1 0 9 empty empty empty 0 -8 0 10 -262144
-1 -1 8;
#X obj 483 527 vradio 15 1 0 9 empty empty empty 0 -8 0 10 -262144
-1 -1 4;
#X obj 481 675 vradio 15 1 0 3 empty empty empty 0 -8 0 10 -262144
-1 -1 1;
#X obj 481 744 vradio 15 1 0 3 empty empty empty 0 -8 0 10 -262144
-1 -1 1;
#X obj 501 157 vradio 15 1 0 12 empty empty empty 0 -8 0 10 -262144
-1 -1 11;
#X obj 500 365 vradio 15 1 0 9 empty empty empty 0 -8 0 10 -262144
-1 -1 8;
#X obj 502 526 vradio 15 1 0 9 empty empty empty 0 -8 0 10 -262144
-1 -1 4;
#X obj 500 675 vradio 15 1 0 3 empty empty empty 0 -8 0 10 -262144
-1 -1 1;
#X obj 500 744 vradio 15 1 0 3 empty empty empty 0 -8 0 10 -262144
-1 -1 1;
#X obj 520 157 vradio 15 1 0 12 empty empty empty 0 -8 0 10 -262144
-1 -1 11;
#X obj 519 365 vradio 15 1 0 9 empty empty empty 0 -8 0 10 -262144
-1 -1 8;
#X obj 520 526 vradio 15 1 0 9 empty empty empty 0 -8 0 10 -262144
-1 -1 4;
#X obj 519 675 vradio 15 1 0 3 empty empty empty 0 -8 0 10 -262144
-1 -1 1;
#X obj 519 744 vradio 15 1 0 3 empty empty empty 0 -8 0 10 -262144
-1 -1 1;
#X obj 539 157 vradio 15 1 0 12 empty empty empty 0 -8 0 10 -262144
-1 -1 11;
#X obj 538 365 vradio 15 1 0 9 empty empty empty 0 -8 0 10 -262144
-1 -1 8;
#X obj 539 526 vradio 15 1 0 9 empty empty empty 0 -8 0 10 -262144
-1 -1 4;
#X obj 538 675 vradio 15 1 0 3 empty empty empty 0 -8 0 10 -262144
-1 -1 1;
#X obj 538 744 vradio 15 1 0 3 empty empty empty 0 -8 0 10 -262144
-1 -1 1;
#X obj 558 157 vradio 15 1 0 12 empty empty empty 0 -8 0 10 -262144
-1 -1 11;
#X obj 557 365 vradio 15 1 0 9 empty empty empty 0 -8 0 10 -262144
-1 -1 8;
#X obj 558 526 vradio 15 1 0 9 empty empty empty 0 -8 0 10 -262144
-1 -1 4;
#X obj 557 675 vradio 15 1 0 3 empty empty empty 0 -8 0 10 -262144
-1 -1 1;
#X obj 557 744 vradio 15 1 0 3 empty empty empty 0 -8 0 10 -262144
-1 -1 1;
#X obj 578 157 vradio 15 1 0 12 empty empty empty 0 -8 0 10 -262144
-1 -1 11;
#X obj 577 365 vradio 15 1 0 9 empty empty empty 0 -8 0 10 -262144
-1 -1 8;
#X obj 577 527 vradio 15 1 0 9 empty empty empty 0 -8 0 10 -262144
-1 -1 4;
#X obj 577 675 vradio 15 1 0 3 empty empty empty 0 -8 0 10 -262144
-1 -1 1;
#X obj 577 744 vradio 15 1 0 3 empty empty empty 0 -8 0 10 -262144
-1 -1 1;
#X obj 598 157 vradio 15 1 0 12 empty empty empty 0 -8 0 10 -262144
-1 -1 11;
#X obj 597 365 vradio 15 1 0 9 empty empty empty 0 -8 0 10 -262144
-1 -1 8;
#X obj 597 527 vradio 15 1 0 9 empty empty empty 0 -8 0 10 -262144
-1 -1 4;
#X obj 597 675 vradio 15 1 0 3 empty empty empty 0 -8 0 10 -262144
-1 -1 1;
#X obj 597 744 vradio 15 1 0 3 empty empty empty 0 -8 0 10 -262144
-1 -1 1;
#X obj 618 157 vradio 15 1 0 12 empty empty empty 0 -8 0 10 -262144
-1 -1 11;
#X obj 617 365 vradio 15 1 0 9 empty empty empty 0 -8 0 10 -262144
-1 -1 8;
#X obj 617 527 vradio 15 1 0 9 empty empty empty 0 -8 0 10 -262144
-1 -1 4;
#X obj 617 675 vradio 15 1 0 3 empty empty empty 0 -8 0 10 -262144
-1 -1 1;
#X obj 617 744 vradio 15 1 0 3 empty empty empty 0 -8 0 10 -262144
-1 -1 1;
#X obj 1581 -115 seqclock;
#X obj -546 370 seqout;
#X obj 102 165 tgl 15 0 empty empty empty 17 7 0 10 -262144 -1 -1 0
1;
#X floatatom 119 165 5 0 0 0 - - -, f 5;
#X floatatom 107 310 5 0 0 0 - - -, f 5;
#X obj 882 149 f;
#X obj 886 192 f;
#X obj 889 240 f;
#X obj 893 278 f;
#X obj 900 324 f;
#X obj 902 358 f;
#X obj 909 393 f;
#X obj 911 442 f;
#X obj 907 485 f;
#X obj 908 530 f;
#X obj 916 574 f;
#X obj 900 602 f;
#X obj 681 284 sequencerpitch;
#X obj 700 322 sequencerpitch;
#X obj 701 374 sequencerpitch;
#X obj 698 414 sequencerpitch;
#X obj 703 437 sequencerpitch;
#X obj 704 498 sequencerpitch;
#X obj 706 465 sequencerpitch;
#X obj 680 534 sequencerpitch;
#X obj 688 572 sequencerpitch;
#X obj 711 615 sequencerpitch;
#X obj 706 646 sequencerpitch;
#X obj 715 678 sequencerpitch;
#X floatatom 124 473 5 0 0 0 - - -, f 5;
#X obj 1262 194 f;
#X obj 1266 237 f;
#X obj 1269 285 f;
#X obj 1273 323 f;
#X obj 1280 369 f;
#X obj 1282 403 f;
#X obj 1289 438 f;
#X obj 1291 487 f;
#X obj 1287 530 f;
#X obj 1288 575 f;
#X obj 1296 619 f;
#X obj 1289 677 f;
#X obj 1005 516 sequencervolume;
#X obj 996 486 sequencervolume;
#X obj 1001 453 sequencervolume;
#X obj 978 411 sequencervolume;
#X obj 970 375 sequencervolume;
#X obj 994 337 sequencervolume;
#X obj 996 304 sequencervolume;
#X obj 989 272 sequencervolume;
#X obj 993 237 sequencervolume;
#X obj 1007 191 sequencervolume;
#X obj 990 161 sequencervolume;
#X obj 971 123 sequencervolume;
#X obj 1086 850 f;
#X obj 1090 893 f;
#X obj 1093 941 f;
#X obj 1097 979 f;
#X obj 1104 1025 f;
#X obj 1106 1059 f;
#X obj 1113 1094 f;
#X obj 1115 1143 f;
#X obj 1111 1186 f;
#X obj 1112 1231 f;
#X obj 1120 1275 f;
#X obj 993 793 f;
#X floatatom 119 694 5 0 0 0 - - -, f 5;
#X obj 894 1508 f;
#X obj 898 1551 f;
#X obj 901 1599 f;
#X obj 905 1637 f;
#X obj 912 1683 f;
#X obj 914 1717 f;
#X obj 921 1752 f;
#X obj 923 1801 f;
#X obj 919 1844 f;
#X obj 920 1889 f;
#X obj 928 1933 f;
#X obj 921 1991 f;
#X obj 603 1437 sequencerfurther;
#X obj 622 1475 sequencerfurther;
#X obj 639 1506 sequencerfurther;
#X obj 625 1551 sequencerfurther;
#X obj 621 1586 sequencerfurther;
#X obj 629 1618 sequencerfurther;
#X obj 627 1651 sequencerfurther;
#X obj 602 1689 sequencerfurther;
#X obj 610 1725 sequencerfurther;
#X obj 633 1767 sequencerfurther;
#X obj 628 1800 sequencerfurther;
#X obj 637 1829 sequencerfurther;
#X floatatom 125 777 5 0 0 0 - - -, f 5;
#X obj -13 930 f;
#X obj -12 965 f;
#X obj -9 1013 f;
#X obj -5 1051 f;
#X obj 2 1097 f;
#X obj 4 1131 f;
#X obj 11 1166 f;
#X obj 13 1215 f;
#X obj 9 1258 f;
#X obj 10 1303 f;
#X obj 18 1347 f;
#X obj 11 1405 f;
#X obj -289 862 sequencerfurther;
#X obj -288 889 sequencerfurther;
#X obj -271 920 sequencerfurther;
#X obj -285 965 sequencerfurther;
#X obj -289 1000 sequencerfurther;
#X obj -281 1032 sequencerfurther;
#X obj -283 1065 sequencerfurther;
#X obj -308 1103 sequencerfurther;
#X obj -300 1139 sequencerfurther;
#X obj -277 1181 sequencerfurther;
#X obj -282 1214 sequencerfurther;
#X obj -273 1243 sequencerfurther;
#X floatatom 105 281 5 0 0 0 - - -, f 5;
#X obj 766 957 sequencerregister;
#X obj 733 795 sequencerregister;
#X obj 771 840 sequencerregister;
#X obj 770 870 sequencerregister;
#X obj 757 909 sequencerregister;
#X obj 779 993 sequencerregister;
#X obj 809 1008 sequencerregister;
#X obj 787 1039 sequencerregister;
#X obj 804 1081 sequencerregister;
#X obj 824 1135 sequencerregister;
#X obj 818 1164 sequencerregister;
#X obj 830 1203 sequencerregister;
#X obj 1849 -164 r allstep-\$0;
#X obj 1336 -91 r allstep-\$0;
#X obj 1375 708 r allstep-\$0;
#X obj 836 1450 r allstep-\$0;
#X obj -99 759 r allstep-\$0;
#X obj 675 191 s allstep-\$0;
#X obj -607 -40 inlet;
#X obj -559 -30 inlet;
#X obj -508 -67 inlet;
#X obj 1465 2 send ratz-\$0;
#X obj 1362 559 send catz-\$0;
#X obj 915 724 r ratz-\$0;
#X obj 1221 1214 send carson-\$0;
#X obj 1030 1828 send billingsly-\$0;
#X obj 710 1393 r carson-\$0;
#X obj 80 1117 send final-\$0;
#X obj -200 807 r billingsly-\$0;
#X obj -687 292 r final-\$0;
#X obj -612 293 r catz-\$0;
#X floatatom 124 631 5 0 0 0 - - -, f 5;
#X text 110 142 on speed;
#X text 102 251 global step;
#X text 109 327 step;
#X obj 840 53 random 13;
#X obj 194 88 - 1;
#X obj 103 206 bng 15 250 50 0 empty empty empty 17 7 0 10 -262144
-1 -1;
#X text 95 223 random pitch;
#X obj 903 53 random 13;
#X obj 257 88 - 1;
#X obj 966 53 random 13;
#X obj 320 88 - 1;
#X obj 1029 52 random 13;
#X obj 1029 73 - 1;
#X obj 1095 51 random 13;
#X obj 1095 72 - 1;
#X obj 1012 2 random 13;
#X obj 1012 23 - 1;
#X obj 1076 3 random 13;
#X obj 1076 24 - 1;
#X obj 1140 3 random 13;
#X obj 1140 24 - 1;
#X obj 1204 1 random 13;
#X obj 1204 22 - 1;
#X obj 1265 0 random 13;
#X obj 1265 21 - 1;
#X obj 1330 0 random 13;
#X obj 1330 20 - 1;
#X obj 1394 0 random 13;
#X obj 1394 21 - 1;
#X obj -708 164 - 1;
#X obj 135 390 bng 15 250 50 0 empty empty empty 17 7 0 10 -262144
-1 -1;
#X obj -652 163 - 1;
#X obj -589 163 - 1;
#X obj -526 162 - 1;
#X obj -460 161 - 1;
#X obj -395 161 - 1;
#X obj -331 162 - 1;
#X obj -267 162 - 1;
#X obj -203 160 - 1;
#X obj -142 159 - 1;
#X obj -77 158 - 1;
#X obj -13 159 - 1;
#X text 101 409 random amp;
#X obj -13 138 random 9;
#X obj -77 138 random 9;
#X obj -142 139 random 9;
#X obj -203 139 random 9;
#X obj -267 141 random 9;
#X obj -331 141 random 9;
#X obj -395 140 random 9;
#X obj -460 140 random 9;
#X obj -526 141 random 9;
#X obj -589 142 random 9;
#X obj -652 142 random 9;
#X obj -715 142 random 9;
#X obj -458 -67 inlet;
#X text 467 103 global step;
#X text 603 106 random;
#X obj -161 22 loadbang;
#X obj 330 121 bng 15 250 50 0 empty empty empty 17 7 0 10 -262144
-1 -1;
#X text 344 118 reset;
#X msg 25 386 4;
#X msg -115 621 1;
#X msg 48 168 8;
#X text 156 151 B;
#X text 151 165 A#;
#X text 150 182 A;
#X text 149 197 G#;
#X text 150 212 G;
#X text 150 232 F#;
#X text 152 243 F;
#X text 151 260 E;
#X text 150 272 D#;
#X text 153 286 D;
#X text 148 301 C#;
#X text 154 317 C;
#X obj 383 156 vradio 15 1 0 12 empty empty empty 0 -8 0 10 -262144
-1 -1 11;
#X obj 382 365 vradio 15 1 0 9 empty empty empty 0 -8 0 10 -262144
-1 -1 8;
#X obj 383 526 vradio 15 1 0 9 empty empty empty 0 -8 0 10 -262144
-1 -1 4;
#X obj 383 675 vradio 15 1 0 3 empty empty empty 0 -8 0 10 -262144
-1 -1 1;
#X obj 383 744 vradio 15 1 0 3 empty empty empty 0 -8 0 10 -262144
-1 -1 1;
#X obj 363 156 vradio 15 1 0 12 empty empty empty 0 -8 0 10 -262144
-1 -1 11;
#X obj 362 366 vradio 15 1 0 9 empty empty empty 0 -8 0 10 -262144
-1 -1 8;
#X obj 363 526 vradio 15 1 0 9 empty empty empty 0 -8 0 10 -262144
-1 -1 4;
#X obj 360 674 vradio 15 1 0 3 empty empty empty 0 -8 0 10 -262144
-1 -1 1;
#X obj 364 742 vradio 15 1 0 3 empty empty empty 0 -8 0 10 -262144
-1 -1 1;
#X obj 343 156 vradio 15 1 0 12 empty empty empty 0 -8 0 10 -262144
-1 -1 11;
#X obj 342 365 vradio 15 1 0 9 empty empty empty 0 -8 0 10 -262144
-1 -1 8;
#X obj 341 527 vradio 15 1 0 9 empty empty empty 0 -8 0 10 -262144
-1 -1 4;
#X obj 340 674 vradio 15 1 0 3 empty empty empty 0 -8 0 10 -262144
-1 -1 1;
#X obj 340 743 vradio 15 1 0 3 empty empty empty 0 -8 0 10 -262144
-1 -1 1;
#X obj 323 156 vradio 15 1 0 12 empty empty empty 0 -8 0 10 -262144
-1 -1 11;
#X obj 321 365 vradio 15 1 0 9 empty empty empty 0 -8 0 10 -262144
-1 -1 8;
#X obj 319 527 vradio 15 1 0 9 empty empty empty 0 -8 0 10 -262144
-1 -1 4;
#X obj 319 673 vradio 15 1 0 3 empty empty empty 0 -8 0 10 -262144
-1 -1 1;
#X obj 319 742 vradio 15 1 0 3 empty empty empty 0 -8 0 10 -262144
-1 -1 1;
#X obj 303 156 vradio 15 1 0 12 empty empty empty 0 -8 0 10 -262144
-1 -1 11;
#X obj 301 365 vradio 15 1 0 9 empty empty empty 0 -8 0 10 -262144
-1 -1 8;
#X obj 299 527 vradio 15 1 0 9 empty empty empty 0 -8 0 10 -262144
-1 -1 4;
#X obj 299 673 vradio 15 1 0 3 empty empty empty 0 -8 0 10 -262144
-1 -1 1;
#X obj 299 742 vradio 15 1 0 3 empty empty empty 0 -8 0 10 -262144
-1 -1 1;
#X obj 283 156 vradio 15 1 0 12 empty empty empty 0 -8 0 10 -262144
-1 -1 11;
#X obj 281 364 vradio 15 1 0 9 empty empty empty 0 -8 0 10 -262144
-1 -1 8;
#X obj 279 528 vradio 15 1 0 9 empty empty empty 0 -8 0 10 -262144
-1 -1 4;
#X obj 279 672 vradio 15 1 0 3 empty empty empty 0 -8 0 10 -262144
-1 -1 1;
#X obj 279 741 vradio 15 1 0 3 empty empty empty 0 -8 0 10 -262144
-1 -1 1;
#X obj 263 155 vradio 15 1 0 12 empty empty empty 0 -8 0 10 -262144
-1 -1 11;
#X obj 261 364 vradio 15 1 0 9 empty empty empty 0 -8 0 10 -262144
-1 -1 8;
#X obj 259 527 vradio 15 1 0 9 empty empty empty 0 -8 0 10 -262144
-1 -1 4;
#X obj 259 672 vradio 15 1 0 3 empty empty empty 0 -8 0 10 -262144
-1 -1 1;
#X obj 259 741 vradio 15 1 0 3 empty empty empty 0 -8 0 10 -262144
-1 -1 1;
#X obj 243 155 vradio 15 1 0 12 empty empty empty 0 -8 0 10 -262144
-1 -1 11;
#X obj 241 364 vradio 15 1 0 9 empty empty empty 0 -8 0 10 -262144
-1 -1 8;
#X obj 238 527 vradio 15 1 0 9 empty empty empty 0 -8 0 10 -262144
-1 -1 4;
#X obj 237 671 vradio 15 1 0 3 empty empty empty 0 -8 0 10 -262144
-1 -1 1;
#X obj 237 740 vradio 15 1 0 3 empty empty empty 0 -8 0 10 -262144
-1 -1 1;
#X obj 224 155 vradio 15 1 0 12 empty empty empty 0 -8 0 10 -262144
-1 -1 11;
#X obj 223 364 vradio 15 1 0 9 empty empty empty 0 -8 0 10 -262144
-1 -1 8;
#X obj 219 526 vradio 15 1 0 9 empty empty empty 0 -8 0 10 -262144
-1 -1 4;
#X obj 218 671 vradio 15 1 0 3 empty empty empty 0 -8 0 10 -262144
-1 -1 1;
#X obj 218 740 vradio 15 1 0 3 empty empty empty 0 -8 0 10 -262144
-1 -1 1;
#X obj 205 155 vradio 15 1 0 12 empty empty empty 0 -8 0 10 -262144
-1 -1 11;
#X obj 205 364 vradio 15 1 0 9 empty empty empty 0 -8 0 10 -262144
-1 -1 8;
#X obj 201 526 vradio 15 1 0 9 empty empty empty 0 -8 0 10 -262144
-1 -1 4;
#X obj 199 670 vradio 15 1 0 3 empty empty empty 0 -8 0 10 -262144
-1 -1 1;
#X obj 199 739 vradio 15 1 0 3 empty empty empty 0 -8 0 10 -262144
-1 -1 1;
#X obj 185 155 vradio 15 1 0 12 empty empty empty 0 -8 0 10 -262144
-1 -1 11;
#X obj 187 364 vradio 15 1 0 9 empty empty empty 0 -8 0 10 -262144
-1 -1 8;
#X obj 183 526 vradio 15 1 0 9 empty empty empty 0 -8 0 10 -262144
-1 -1 4;
#X obj 180 668 vradio 15 1 0 3 empty empty empty 0 -8 0 10 -262144
-1 -1 1;
#X obj 180 737 vradio 15 1 0 3 empty empty empty 0 -8 0 10 -262144
-1 -1 1;
#X obj 165 154 vradio 15 1 0 12 empty empty empty 0 -8 0 10 -262144
-1 -1 11;
#X obj 167 364 vradio 15 1 0 9 empty empty empty 0 -8 0 10 -262144
-1 -1 8;
#X obj 163 525 vradio 15 1 0 9 empty empty empty 0 -8 0 10 -262144
-1 -1 4;
#X obj 160 668 vradio 15 1 0 3 empty empty empty 0 -8 0 10 -262144
-1 -1 1;
#X obj 160 737 vradio 15 1 0 3 empty empty empty 0 -8 0 10 -262144
-1 -1 1;
#X obj 782 -238 f;
#X obj 820 -236 f;
#X obj 864 -231 f;
#X obj 909 -227 f;
#X obj 942 -227 f;
#X obj 977 -220 f;
#X obj 1015 -219 f;
#X obj 1358 -227 f;
#X obj 1402 -226 f;
#X obj 1460 -229 f;
#X obj 1511 -233 f;
#X obj 659 -439 sequencerpitch;
#X obj 1174 -456 sequencerpitch;
#X obj 1172 -428 sequencerpitch;
#X obj 1169 -388 sequencerpitch;
#X obj 1174 -365 sequencerpitch;
#X obj 1175 -304 sequencerpitch;
#X obj 1177 -337 sequencerpitch;
#X obj 1182 -259 sequencerpitch;
#X obj 1176 -218 sequencerpitch;
#X obj 1186 -184 sequencerpitch;
#X obj 1200 -156 sequencerpitch;
#X obj 1192 -127 sequencerpitch;
#X obj 1571 939 f;
#X obj 1575 982 f;
#X obj 1578 1030 f;
#X obj 1582 1068 f;
#X obj 1589 1114 f;
#X obj 1591 1148 f;
#X obj 1598 1183 f;
#X obj 1600 1232 f;
#X obj 1596 1275 f;
#X obj 1597 1320 f;
#X obj 1605 1364 f;
#X obj 1598 1422 f;
#X obj 1382 1473 f;
#X obj 1386 1516 f;
#X obj 1389 1564 f;
#X obj 1393 1602 f;
#X obj 1400 1648 f;
#X obj 1402 1682 f;
#X obj 1409 1717 f;
#X obj 1411 1766 f;
#X obj 1407 1809 f;
#X obj 1408 1854 f;
#X obj 1416 1898 f;
#X obj 1410 1935 f;
#X obj 1157 1519 sequencerfurther;
#X obj 1176 1557 sequencerfurther;
#X obj 1193 1588 sequencerfurther;
#X obj 1179 1633 sequencerfurther;
#X obj 1175 1668 sequencerfurther;
#X obj 1183 1700 sequencerfurther;
#X obj 1181 1733 sequencerfurther;
#X obj 1156 1771 sequencerfurther;
#X obj 1164 1807 sequencerfurther;
#X obj 1187 1849 sequencerfurther;
#X obj 1182 1882 sequencerfurther;
#X obj 1191 1911 sequencerfurther;
#X obj -489 781 f;
#X obj -485 824 f;
#X obj -482 872 f;
#X obj -478 910 f;
#X obj -471 956 f;
#X obj -469 990 f;
#X obj -462 1025 f;
#X obj -460 1074 f;
#X obj -464 1117 f;
#X obj -463 1162 f;
#X obj -455 1206 f;
#X obj -462 1264 f;
#X obj -710 877 sequencerfurther;
#X obj -691 915 sequencerfurther;
#X obj -674 946 sequencerfurther;
#X obj -688 991 sequencerfurther;
#X obj -692 1026 sequencerfurther;
#X obj -684 1058 sequencerfurther;
#X obj -686 1091 sequencerfurther;
#X obj -711 1129 sequencerfurther;
#X obj -703 1165 sequencerfurther;
#X obj -680 1207 sequencerfurther;
#X obj -685 1240 sequencerfurther;
#X obj -676 1269 sequencerfurther;
#X obj 1251 1046 sequencerregister;
#X obj 1218 884 sequencerregister;
#X obj 1256 929 sequencerregister;
#X obj 1255 959 sequencerregister;
#X obj 1242 998 sequencerregister;
#X obj 1264 1082 sequencerregister;
#X obj 1294 1097 sequencerregister;
#X obj 1272 1128 sequencerregister;
#X obj 1289 1170 sequencerregister;
#X obj 1309 1224 sequencerregister;
#X obj 1303 1253 sequencerregister;
#X obj 1315 1292 sequencerregister;
#X obj 1400 813 r ratz-\$0;
#X obj 1264 1475 r carson-\$0;
#X obj -603 833 r billingsly-\$0;
#X obj 308 2056 random 13;
#X obj 308 2077 - 1;
#X obj 125 206 bng 15 250 50 0 empty empty empty 17 7 0 10 -262144
-1 -1;
#X obj 371 2056 random 13;
#X obj 371 2077 - 1;
#X obj 434 2056 random 13;
#X obj 434 2077 - 1;
#X obj 497 2055 random 13;
#X obj 497 2076 - 1;
#X obj 563 2054 random 13;
#X obj 563 2075 - 1;
#X obj 628 2054 random 13;
#X obj 628 2075 - 1;
#X obj 692 2055 random 13;
#X obj 692 2076 - 1;
#X obj 756 2055 random 13;
#X obj 756 2076 - 1;
#X obj 820 2053 random 13;
#X obj 820 2074 - 1;
#X obj 881 2052 random 13;
#X obj 881 2073 - 1;
#X obj 946 2052 random 13;
#X obj 946 2072 - 1;
#X obj 1010 2052 random 13;
#X obj 1010 2073 - 1;
#X obj -524 1650 - 1;
#X obj 109 391 bng 15 250 50 0 empty empty empty 17 7 0 10 -262144
-1 -1;
#X obj -468 1649 - 1;
#X obj -405 1649 - 1;
#X obj -342 1648 - 1;
#X obj -276 1647 - 1;
#X obj -211 1647 - 1;
#X obj -147 1648 - 1;
#X obj -83 1648 - 1;
#X obj -19 1646 - 1;
#X obj 42 1645 - 1;
#X obj 107 1644 - 1;
#X obj 171 1645 - 1;
#X obj 171 1624 random 9;
#X obj 107 1624 random 9;
#X obj 42 1625 random 9;
#X obj -19 1625 random 9;
#X obj -83 1627 random 9;
#X obj -147 1627 random 9;
#X obj -211 1626 random 9;
#X obj -276 1626 random 9;
#X obj -342 1627 random 9;
#X obj -405 1628 random 9;
#X obj -468 1628 random 9;
#X obj -531 1628 random 9;
#X obj 23 1508 loadbang;
#X obj 314 121 bng 15 250 50 0 empty empty empty 17 7 0 10 -262144
-1 -1;
#X msg 317 1517 11;
#X msg 214 1889 4;
#X msg 17 477 1;
#X msg 232 1654 8;
#X obj 736 -236 f;
#X obj 1573 187 f;
#X obj 1577 230 f;
#X obj 1580 278 f;
#X obj 1584 316 f;
#X obj 1591 362 f;
#X obj 1593 396 f;
#X obj 1600 431 f;
#X obj 1602 480 f;
#X obj 1577 520 f;
#X obj 1599 568 f;
#X obj 1607 612 f;
#X obj 1600 670 f;
#X obj 1467 601 sequencervolume;
#X obj 1458 571 sequencervolume;
#X obj 1463 538 sequencervolume;
#X obj 1440 496 sequencervolume;
#X obj 1432 460 sequencervolume;
#X obj 1456 422 sequencervolume;
#X obj 1458 389 sequencervolume;
#X obj 1451 357 sequencervolume;
#X obj 1455 322 sequencervolume;
#X obj 1469 276 sequencervolume;
#X obj 1452 246 sequencervolume;
#X obj 1433 208 sequencervolume;
#X obj 148 120 bng 15 250 50 0 empty empty empty 17 7 0 10 -262144
-1 -1;
#X text 176 119 presets!;
#X msg -49 64 7;
#X msg -5 48 8;
#X msg 772 -153 3;
#X msg 820 -148 0;
#X msg 877 -123 5;
#X msg 1554 -1;
#X msg 619 -132 9;
#X msg 753 -56 1;
#X msg 715 30 10;
#X msg 779 17 11;
#X msg -79 63 4;
#X msg -10 105 5;
#X obj -405 -72 inlet;
#X text -368 -63 on all presets;
#X obj -352 -50 inlet;
#X text -306 -45 pvrs5ch inlet;
#X msg -179 475 4;
#X msg -78 415 5;
#X obj -143 -48 inlet;
#X obj -194 -68 inlet;
#X text -157 -64 on off;
#X text -105 -48 metro sp;
#X obj -99 -69 inlet;
#X text -58 -65 globstep;
#X obj 6 -66 inlet;
#X obj -38 -45 inlet;
#X obj 41 -42 inlet;
#X obj 87 -64 inlet;
#X obj 128 -39 inlet;
#X text 80 -40 rstep;
#X text 130 -65 5 step;
#X text 169 -36 chstep;
#X obj -265 -66 inlet;
#X text -259 -83 resetto0;
#X obj 173 -67 inlet;
#X obj 218 -39 inlet;
#X text 218 -64 randomp;
#X text 265 -37 random v;
#X obj 268 -66 inlet;
#X text 276 -87 triggerdiag;
#X obj -216 364 outlet;
#X obj 320 -39 inlet;
#X text 360 -39 r val1;
#X msg -508 490 0;
#X msg -479 490 1;
#X msg -449 489 2;
#X msg -417 489 4;
#X msg -384 483 8;
#X obj 381 -62 inlet;
#X obj 433 -35 inlet;
#X msg -506 294 1;
#X text 423 -62 reset5;
#X text 472 -34 resetch;
#X msg 866 633 1;
#X msg -535 448 0;
#X msg -476 447 2;
#X msg -411 441 8;
#X msg -508 550 0;
#X msg -479 550 1;
#X msg -449 549 2;
#X msg -417 549 4;
#X msg -503 447 1;
#X obj 490 -57 inlet;
#X obj 542 -30 inlet;
#X text 535 -65 onlydiag5;
#X text 583 -43 onlydiagch;
#X obj 598 -60 inlet;
#X text 637 -74 regpre;
#X msg -684 577 4;
#X msg -638 601 5;
#X msg -614 605 3;
#X msg -585 610 6;
#X msg -553 611 2;
#X msg -522 611 7;
#X msg -493 611 1;
#X msg -462 612 8;
#X msg -435 614 0;
#X msg -341 633 15;
#X msg -34 445 1;
#X text -3 -40 p rst;
#X text 42 -65 v rst;
#X obj 638 -27 inlet;
#X text 676 -27 regdefault;
#X obj 688 -51 inlet;
#X text 735 -65 volume;
#X obj -658 333 t f b;
#X obj -546 340 f;
#X obj 890 -40 sequencerspacecountspacetwentyspaceoddspaceandspacefourspace
;
#X obj -568 677 sequencerspacecountspacetwentyspaceoddspaceandspacefourspace
;
#X obj 1772 -14 sequencerspacecountspacetwentyspaceoddspaceandspacefourspace
;
#X obj 1027 763 sequencerspacecountspacetwentyspaceoddspaceandspacefourspace
;
#X obj 922 1372 sequencerspacecountspacetwentyspaceoddspaceandspacefourspace
;
#X obj 1583 -95 t b b b b b;
#X obj 1652 -64 s ptch;
#X obj 1622 -41 s voly;
#X obj 1601 -66 s reg;
#X obj 1574 -43 s fur;
#X obj 1557 -64 s efur;
#X obj 1267 -41 r ptch;
#X obj 2085 -37 r voly;
#X obj 1502 755 r reg;
#X obj 1315 1359 r fur;
#X obj -288 655 r efur;
#X floatatom 399 119 5 0 0 1 MidiChannel - -, f 5;
#X obj 821 -40 inlet;
#X connect 0 0 77 0;
#X connect 1 0 113 0;
#X connect 2 0 178 0;
#X connect 3 0 139 0;
#X connect 4 0 164 0;
#X connect 5 0 78 0;
#X connect 6 0 112 0;
#X connect 7 0 179 0;
#X connect 8 0 140 0;
#X connect 9 0 165 0;
#X connect 10 0 79 0;
#X connect 11 0 111 0;
#X connect 12 0 180 0;
#X connect 13 0 141 0;
#X connect 14 0 166 0;
#X connect 15 0 80 0;
#X connect 16 0 110 0;
#X connect 17 0 181 0;
#X connect 18 0 142 0;
#X connect 19 0 167 0;
#X connect 20 0 81 0;
#X connect 21 0 109 0;
#X connect 22 0 177 0;
#X connect 23 0 143 0;
#X connect 24 0 168 0;
#X connect 25 0 83 0;
#X connect 26 0 108 0;
#X connect 27 0 182 0;
#X connect 28 0 144 0;
#X connect 29 0 169 0;
#X connect 30 0 82 0;
#X connect 31 0 107 0;
#X connect 32 0 183 0;
#X connect 33 0 145 0;
#X connect 34 0 170 0;
#X connect 35 0 84 0;
#X connect 36 0 106 0;
#X connect 37 0 184 0;
#X connect 38 0 146 0;
#X connect 39 0 171 0;
#X connect 40 0 85 0;
#X connect 41 0 105 0;
#X connect 42 0 185 0;
#X connect 43 0 147 0;
#X connect 44 0 172 0;
#X connect 45 0 86 0;
#X connect 46 0 104 0;
#X connect 47 0 186 0;
#X connect 48 0 148 0;
#X connect 49 0 173 0;
#X connect 50 0 87 0;
#X connect 51 0 103 0;
#X connect 52 0 187 0;
#X connect 53 0 149 0;
#X connect 54 0 174 0;
#X connect 55 0 88 0;
#X connect 56 0 102 0;
#X connect 57 0 188 0;
#X connect 58 0 150 0;
#X connect 59 0 175 0;
#X connect 60 0 618 0;
#X connect 62 0 60 0;
#X connect 63 0 60 1;
#X connect 63 0 61 2;
#X connect 63 0 566 0;
#X connect 64 0 613 0;
#X connect 65 0 198 0;
#X connect 66 0 198 0;
#X connect 67 0 198 0;
#X connect 68 0 198 0;
#X connect 69 0 198 0;
#X connect 70 0 198 0;
#X connect 71 0 198 0;
#X connect 72 0 198 0;
#X connect 73 0 198 0;
#X connect 74 0 198 0;
#X connect 75 0 198 0;
#X connect 76 0 198 0;
#X connect 77 0 65 1;
#X connect 78 0 66 1;
#X connect 79 0 67 1;
#X connect 80 0 68 1;
#X connect 81 0 69 1;
#X connect 82 0 71 1;
#X connect 83 0 70 1;
#X connect 84 0 72 1;
#X connect 85 0 73 1;
#X connect 86 0 74 1;
#X connect 87 0 75 1;
#X connect 88 0 76 1;
#X connect 89 0 615 1;
#X connect 90 0 199 0;
#X connect 91 0 199 0;
#X connect 92 0 199 0;
#X connect 93 0 199 0;
#X connect 94 0 199 0;
#X connect 95 0 199 0;
#X connect 96 0 199 0;
#X connect 97 0 199 0;
#X connect 98 0 199 0;
#X connect 99 0 199 0;
#X connect 100 0 199 0;
#X connect 101 0 199 0;
#X connect 102 0 101 1;
#X connect 103 0 100 1;
#X connect 104 0 99 1;
#X connect 105 0 98 1;
#X connect 106 0 97 1;
#X connect 107 0 96 1;
#X connect 108 0 95 1;
#X connect 109 0 94 1;
#X connect 110 0 93 1;
#X connect 111 0 92 1;
#X connect 112 0 91 1;
#X connect 113 0 90 1;
#X connect 114 0 201 0;
#X connect 115 0 201 0;
#X connect 116 0 201 0;
#X connect 117 0 201 0;
#X connect 118 0 201 0;
#X connect 119 0 201 0;
#X connect 120 0 201 0;
#X connect 121 0 201 0;
#X connect 122 0 201 0;
#X connect 123 0 201 0;
#X connect 124 0 201 0;
#X connect 125 0 201 0;
#X connect 126 0 617 1;
#X connect 127 0 202 0;
#X connect 128 0 202 0;
#X connect 129 0 202 0;
#X connect 130 0 202 0;
#X connect 131 0 202 0;
#X connect 132 0 202 0;
#X connect 133 0 202 0;
#X connect 134 0 202 0;
#X connect 135 0 202 0;
#X connect 136 0 202 0;
#X connect 137 0 202 0;
#X connect 138 0 202 0;
#X connect 139 0 127 1;
#X connect 140 0 128 1;
#X connect 141 0 129 1;
#X connect 142 0 130 1;
#X connect 143 0 131 1;
#X connect 144 0 132 1;
#X connect 145 0 133 1;
#X connect 146 0 134 1;
#X connect 147 0 135 1;
#X connect 148 0 136 1;
#X connect 149 0 137 1;
#X connect 150 0 138 1;
#X connect 151 0 614 1;
#X connect 152 0 204 0;
#X connect 153 0 204 0;
#X connect 154 0 204 0;
#X connect 155 0 204 0;
#X connect 156 0 204 0;
#X connect 157 0 204 0;
#X connect 158 0 204 0;
#X connect 159 0 204 0;
#X connect 160 0 204 0;
#X connect 161 0 204 0;
#X connect 162 0 204 0;
#X connect 163 0 204 0;
#X connect 164 0 152 1;
#X connect 165 0 153 1;
#X connect 166 0 154 1;
#X connect 167 0 155 1;
#X connect 168 0 156 1;
#X connect 169 0 157 1;
#X connect 170 0 158 1;
#X connect 171 0 159 1;
#X connect 172 0 160 1;
#X connect 173 0 161 1;
#X connect 174 0 162 1;
#X connect 175 0 163 1;
#X connect 176 0 194 0;
#X connect 176 0 64 0;
#X connect 177 0 118 1;
#X connect 178 0 114 1;
#X connect 179 0 115 1;
#X connect 180 0 116 1;
#X connect 181 0 117 1;
#X connect 182 0 119 1;
#X connect 183 0 120 1;
#X connect 184 0 121 1;
#X connect 185 0 122 1;
#X connect 186 0 123 1;
#X connect 187 0 124 1;
#X connect 188 0 125 1;
#X connect 189 0 615 0;
#X connect 190 0 613 0;
#X connect 191 0 616 0;
#X connect 192 0 617 0;
#X connect 193 0 614 0;
#X connect 195 0 62 0;
#X connect 196 0 63 0;
#X connect 197 0 176 0;
#X connect 200 0 177 1;
#X connect 200 0 178 1;
#X connect 200 0 179 1;
#X connect 200 0 180 1;
#X connect 200 0 181 1;
#X connect 200 0 182 1;
#X connect 200 0 183 1;
#X connect 200 0 184 1;
#X connect 200 0 185 1;
#X connect 200 0 186 1;
#X connect 200 0 187 1;
#X connect 200 0 188 1;
#X connect 203 0 139 1;
#X connect 203 0 140 1;
#X connect 203 0 141 1;
#X connect 203 0 142 1;
#X connect 203 0 143 1;
#X connect 203 0 144 1;
#X connect 203 0 145 1;
#X connect 203 0 146 1;
#X connect 203 0 147 1;
#X connect 203 0 148 1;
#X connect 203 0 149 1;
#X connect 203 0 150 1;
#X connect 205 0 164 1;
#X connect 205 0 165 1;
#X connect 205 0 166 1;
#X connect 205 0 167 1;
#X connect 205 0 168 1;
#X connect 205 0 169 1;
#X connect 205 0 170 1;
#X connect 205 0 171 1;
#X connect 205 0 172 1;
#X connect 205 0 173 1;
#X connect 205 0 174 1;
#X connect 205 0 175 1;
#X connect 206 0 611 0;
#X connect 207 0 612 1;
#X connect 208 0 616 1;
#X connect 212 0 213 0;
#X connect 213 0 0 0;
#X connect 214 0 212 0;
#X connect 214 0 216 0;
#X connect 214 0 218 0;
#X connect 214 0 220 0;
#X connect 214 0 222 0;
#X connect 214 0 224 0;
#X connect 214 0 226 0;
#X connect 214 0 228 0;
#X connect 214 0 230 0;
#X connect 214 0 232 0;
#X connect 214 0 234 0;
#X connect 214 0 236 0;
#X connect 216 0 217 0;
#X connect 217 0 5 0;
#X connect 218 0 219 0;
#X connect 219 0 10 0;
#X connect 220 0 221 0;
#X connect 221 0 15 0;
#X connect 222 0 223 0;
#X connect 223 0 20 0;
#X connect 224 0 225 0;
#X connect 225 0 25 0;
#X connect 226 0 227 0;
#X connect 227 0 30 0;
#X connect 228 0 229 0;
#X connect 229 0 35 0;
#X connect 230 0 231 0;
#X connect 231 0 40 0;
#X connect 232 0 233 0;
#X connect 233 0 45 0;
#X connect 234 0 235 0;
#X connect 235 0 50 0;
#X connect 236 0 237 0;
#X connect 237 0 55 0;
#X connect 238 0 1 0;
#X connect 239 0 252 0;
#X connect 239 0 253 0;
#X connect 239 0 254 0;
#X connect 239 0 255 0;
#X connect 239 0 256 0;
#X connect 239 0 257 0;
#X connect 239 0 258 0;
#X connect 239 0 259 0;
#X connect 239 0 260 0;
#X connect 239 0 261 0;
#X connect 239 0 262 0;
#X connect 239 0 263 0;
#X connect 240 0 6 0;
#X connect 241 0 11 0;
#X connect 242 0 16 0;
#X connect 243 0 21 0;
#X connect 244 0 26 0;
#X connect 245 0 31 0;
#X connect 246 0 36 0;
#X connect 247 0 41 0;
#X connect 248 0 46 0;
#X connect 249 0 51 0;
#X connect 250 0 56 0;
#X connect 252 0 250 0;
#X connect 253 0 249 0;
#X connect 254 0 248 0;
#X connect 255 0 247 0;
#X connect 256 0 246 0;
#X connect 257 0 245 0;
#X connect 258 0 244 0;
#X connect 259 0 243 0;
#X connect 260 0 242 0;
#X connect 261 0 241 0;
#X connect 262 0 240 0;
#X connect 263 0 238 0;
#X connect 264 0 214 0;
#X connect 264 0 239 0;
#X connect 267 0 535 0;
#X connect 267 0 270 0;
#X connect 267 0 271 0;
#X connect 267 0 272 0;
#X connect 267 0 61 3;
#X connect 268 0 535 0;
#X connect 268 0 270 0;
#X connect 268 0 272 0;
#X connect 268 0 271 0;
#X connect 270 0 2 0;
#X connect 270 0 7 0;
#X connect 270 0 12 0;
#X connect 270 0 17 0;
#X connect 270 0 22 0;
#X connect 270 0 27 0;
#X connect 270 0 32 0;
#X connect 270 0 37 0;
#X connect 270 0 42 0;
#X connect 270 0 47 0;
#X connect 270 0 52 0;
#X connect 270 0 57 0;
#X connect 271 0 3 0;
#X connect 271 0 4 0;
#X connect 271 0 8 0;
#X connect 271 0 13 0;
#X connect 271 0 18 0;
#X connect 271 0 23 0;
#X connect 271 0 28 0;
#X connect 271 0 33 0;
#X connect 271 0 38 0;
#X connect 271 0 43 0;
#X connect 271 0 48 0;
#X connect 271 0 53 0;
#X connect 271 0 58 0;
#X connect 271 0 9 0;
#X connect 271 0 14 0;
#X connect 271 0 19 0;
#X connect 271 0 29 0;
#X connect 271 0 34 0;
#X connect 271 0 39 0;
#X connect 271 0 44 0;
#X connect 271 0 49 0;
#X connect 271 0 54 0;
#X connect 271 0 59 0;
#X connect 271 0 24 0;
#X connect 272 0 1 0;
#X connect 272 0 6 0;
#X connect 272 0 11 0;
#X connect 272 0 16 0;
#X connect 272 0 21 0;
#X connect 272 0 26 0;
#X connect 272 0 31 0;
#X connect 272 0 36 0;
#X connect 272 0 41 0;
#X connect 272 0 46 0;
#X connect 272 0 51 0;
#X connect 272 0 56 0;
#X connect 285 0 356 0;
#X connect 286 0 523 0;
#X connect 287 0 429 0;
#X connect 288 0 392 0;
#X connect 289 0 416 0;
#X connect 290 0 357 0;
#X connect 291 0 522 0;
#X connect 292 0 430 0;
#X connect 293 0 393 0;
#X connect 294 0 417 0;
#X connect 295 0 358 0;
#X connect 296 0 521 0;
#X connect 297 0 431 0;
#X connect 298 0 394 0;
#X connect 299 0 418 0;
#X connect 300 0 359 0;
#X connect 301 0 520 0;
#X connect 302 0 432 0;
#X connect 303 0 395 0;
#X connect 304 0 419 0;
#X connect 305 0 360 0;
#X connect 306 0 519 0;
#X connect 307 0 428 0;
#X connect 308 0 396 0;
#X connect 309 0 420 0;
#X connect 310 0 362 0;
#X connect 311 0 518 0;
#X connect 312 0 433 0;
#X connect 313 0 397 0;
#X connect 314 0 421 0;
#X connect 315 0 361 0;
#X connect 316 0 517 0;
#X connect 317 0 434 0;
#X connect 318 0 398 0;
#X connect 319 0 422 0;
#X connect 320 0 363 0;
#X connect 321 0 516 0;
#X connect 322 0 435 0;
#X connect 323 0 399 0;
#X connect 324 0 423 0;
#X connect 325 0 364 0;
#X connect 326 0 515 0;
#X connect 327 0 436 0;
#X connect 328 0 400 0;
#X connect 329 0 424 0;
#X connect 330 0 365 0;
#X connect 331 0 514 0;
#X connect 332 0 437 0;
#X connect 333 0 401 0;
#X connect 334 0 425 0;
#X connect 335 0 366 0;
#X connect 336 0 513 0;
#X connect 337 0 438 0;
#X connect 338 0 402 0;
#X connect 339 0 426 0;
#X connect 340 0 367 0;
#X connect 341 0 512 0;
#X connect 342 0 439 0;
#X connect 343 0 403 0;
#X connect 344 0 427 0;
#X connect 345 0 198 0;
#X connect 346 0 198 0;
#X connect 347 0 198 0;
#X connect 348 0 198 0;
#X connect 349 0 198 0;
#X connect 350 0 198 0;
#X connect 351 0 198 0;
#X connect 352 0 198 0;
#X connect 353 0 198 0;
#X connect 354 0 198 0;
#X connect 355 0 198 0;
#X connect 356 0 499 1;
#X connect 357 0 345 1;
#X connect 358 0 346 1;
#X connect 359 0 347 1;
#X connect 360 0 348 1;
#X connect 361 0 350 1;
#X connect 362 0 349 1;
#X connect 363 0 351 1;
#X connect 364 0 352 1;
#X connect 365 0 353 1;
#X connect 366 0 354 1;
#X connect 367 0 355 1;
#X connect 368 0 201 0;
#X connect 369 0 201 0;
#X connect 370 0 201 0;
#X connect 371 0 201 0;
#X connect 372 0 201 0;
#X connect 373 0 201 0;
#X connect 374 0 201 0;
#X connect 375 0 201 0;
#X connect 376 0 201 0;
#X connect 377 0 201 0;
#X connect 378 0 201 0;
#X connect 379 0 201 0;
#X connect 380 0 202 0;
#X connect 381 0 202 0;
#X connect 382 0 202 0;
#X connect 383 0 202 0;
#X connect 384 0 202 0;
#X connect 385 0 202 0;
#X connect 386 0 202 0;
#X connect 387 0 202 0;
#X connect 388 0 202 0;
#X connect 389 0 202 0;
#X connect 390 0 202 0;
#X connect 391 0 202 0;
#X connect 392 0 380 1;
#X connect 393 0 381 1;
#X connect 394 0 382 1;
#X connect 395 0 383 1;
#X connect 396 0 384 1;
#X connect 397 0 385 1;
#X connect 398 0 386 1;
#X connect 399 0 387 1;
#X connect 400 0 388 1;
#X connect 401 0 389 1;
#X connect 402 0 390 1;
#X connect 403 0 391 1;
#X connect 404 0 204 0;
#X connect 405 0 204 0;
#X connect 406 0 204 0;
#X connect 407 0 204 0;
#X connect 408 0 204 0;
#X connect 409 0 204 0;
#X connect 410 0 204 0;
#X connect 411 0 204 0;
#X connect 412 0 204 0;
#X connect 413 0 204 0;
#X connect 414 0 204 0;
#X connect 415 0 204 0;
#X connect 416 0 404 1;
#X connect 417 0 405 1;
#X connect 418 0 406 1;
#X connect 419 0 407 1;
#X connect 420 0 408 1;
#X connect 421 0 409 1;
#X connect 422 0 410 1;
#X connect 423 0 411 1;
#X connect 424 0 412 1;
#X connect 425 0 413 1;
#X connect 426 0 414 1;
#X connect 427 0 415 1;
#X connect 428 0 372 1;
#X connect 429 0 368 1;
#X connect 430 0 369 1;
#X connect 431 0 370 1;
#X connect 432 0 371 1;
#X connect 433 0 373 1;
#X connect 434 0 374 1;
#X connect 435 0 375 1;
#X connect 436 0 376 1;
#X connect 437 0 377 1;
#X connect 438 0 378 1;
#X connect 439 0 379 1;
#X connect 440 0 428 1;
#X connect 440 0 429 1;
#X connect 440 0 430 1;
#X connect 440 0 431 1;
#X connect 440 0 432 1;
#X connect 440 0 433 1;
#X connect 440 0 434 1;
#X connect 440 0 435 1;
#X connect 440 0 436 1;
#X connect 440 0 437 1;
#X connect 440 0 438 1;
#X connect 440 0 439 1;
#X connect 441 0 392 1;
#X connect 441 0 393 1;
#X connect 441 0 394 1;
#X connect 441 0 395 1;
#X connect 441 0 396 1;
#X connect 441 0 397 1;
#X connect 441 0 398 1;
#X connect 441 0 399 1;
#X connect 441 0 400 1;
#X connect 441 0 401 1;
#X connect 441 0 402 1;
#X connect 441 0 403 1;
#X connect 442 0 416 1;
#X connect 442 0 417 1;
#X connect 442 0 418 1;
#X connect 442 0 419 1;
#X connect 442 0 420 1;
#X connect 442 0 421 1;
#X connect 442 0 422 1;
#X connect 442 0 423 1;
#X connect 442 0 424 1;
#X connect 442 0 425 1;
#X connect 442 0 426 1;
#X connect 442 0 427 1;
#X connect 443 0 444 0;
#X connect 444 0 285 0;
#X connect 445 0 443 0;
#X connect 445 0 446 0;
#X connect 445 0 448 0;
#X connect 445 0 450 0;
#X connect 445 0 452 0;
#X connect 445 0 454 0;
#X connect 445 0 456 0;
#X connect 445 0 458 0;
#X connect 445 0 460 0;
#X connect 445 0 462 0;
#X connect 445 0 464 0;
#X connect 445 0 466 0;
#X connect 446 0 447 0;
#X connect 447 0 290 0;
#X connect 448 0 449 0;
#X connect 449 0 295 0;
#X connect 450 0 451 0;
#X connect 451 0 300 0;
#X connect 452 0 453 0;
#X connect 453 0 305 0;
#X connect 454 0 455 0;
#X connect 455 0 310 0;
#X connect 456 0 457 0;
#X connect 457 0 315 0;
#X connect 458 0 459 0;
#X connect 459 0 320 0;
#X connect 460 0 461 0;
#X connect 461 0 325 0;
#X connect 462 0 463 0;
#X connect 463 0 330 0;
#X connect 464 0 465 0;
#X connect 465 0 335 0;
#X connect 466 0 467 0;
#X connect 467 0 340 0;
#X connect 468 0 286 0;
#X connect 469 0 481 0;
#X connect 469 0 482 0;
#X connect 469 0 483 0;
#X connect 469 0 484 0;
#X connect 469 0 485 0;
#X connect 469 0 486 0;
#X connect 469 0 487 0;
#X connect 469 0 488 0;
#X connect 469 0 489 0;
#X connect 469 0 490 0;
#X connect 469 0 491 0;
#X connect 469 0 492 0;
#X connect 470 0 291 0;
#X connect 471 0 296 0;
#X connect 472 0 301 0;
#X connect 473 0 306 0;
#X connect 474 0 311 0;
#X connect 475 0 316 0;
#X connect 476 0 321 0;
#X connect 477 0 326 0;
#X connect 478 0 331 0;
#X connect 479 0 336 0;
#X connect 480 0 341 0;
#X connect 481 0 480 0;
#X connect 482 0 479 0;
#X connect 483 0 478 0;
#X connect 484 0 477 0;
#X connect 485 0 476 0;
#X connect 486 0 475 0;
#X connect 487 0 474 0;
#X connect 488 0 473 0;
#X connect 489 0 472 0;
#X connect 490 0 471 0;
#X connect 491 0 470 0;
#X connect 492 0 468 0;
#X connect 493 0 495 0;
#X connect 493 0 496 0;
#X connect 493 0 497 0;
#X connect 493 0 498 0;
#X connect 494 0 495 0;
#X connect 494 0 496 0;
#X connect 494 0 498 0;
#X connect 494 0 497 0;
#X connect 495 0 285 0;
#X connect 495 0 290 0;
#X connect 495 0 295 0;
#X connect 495 0 300 0;
#X connect 495 0 305 0;
#X connect 495 0 310 0;
#X connect 495 0 315 0;
#X connect 495 0 320 0;
#X connect 495 0 325 0;
#X connect 495 0 330 0;
#X connect 495 0 335 0;
#X connect 495 0 340 0;
#X connect 496 0 287 0;
#X connect 496 0 292 0;
#X connect 496 0 297 0;
#X connect 496 0 302 0;
#X connect 496 0 307 0;
#X connect 496 0 312 0;
#X connect 496 0 317 0;
#X connect 496 0 322 0;
#X connect 496 0 327 0;
#X connect 496 0 332 0;
#X connect 496 0 337 0;
#X connect 496 0 342 0;
#X connect 497 0 288 0;
#X connect 497 0 289 0;
#X connect 497 0 293 0;
#X connect 497 0 298 0;
#X connect 497 0 303 0;
#X connect 497 0 308 0;
#X connect 497 0 313 0;
#X connect 497 0 318 0;
#X connect 497 0 323 0;
#X connect 497 0 328 0;
#X connect 497 0 333 0;
#X connect 497 0 338 0;
#X connect 497 0 343 0;
#X connect 497 0 294 0;
#X connect 497 0 299 0;
#X connect 497 0 304 0;
#X connect 497 0 314 0;
#X connect 497 0 319 0;
#X connect 497 0 324 0;
#X connect 497 0 329 0;
#X connect 497 0 334 0;
#X connect 497 0 339 0;
#X connect 497 0 344 0;
#X connect 497 0 309 0;
#X connect 498 0 286 0;
#X connect 498 0 291 0;
#X connect 498 0 296 0;
#X connect 498 0 301 0;
#X connect 498 0 306 0;
#X connect 498 0 311 0;
#X connect 498 0 316 0;
#X connect 498 0 321 0;
#X connect 498 0 326 0;
#X connect 498 0 331 0;
#X connect 498 0 336 0;
#X connect 498 0 341 0;
#X connect 499 0 198 0;
#X connect 500 0 199 0;
#X connect 501 0 199 0;
#X connect 502 0 199 0;
#X connect 503 0 199 0;
#X connect 504 0 199 0;
#X connect 505 0 199 0;
#X connect 506 0 199 0;
#X connect 507 0 199 0;
#X connect 508 0 199 0;
#X connect 509 0 199 0;
#X connect 510 0 199 0;
#X connect 511 0 199 0;
#X connect 512 0 511 1;
#X connect 513 0 510 1;
#X connect 514 0 509 1;
#X connect 515 0 508 1;
#X connect 516 0 507 1;
#X connect 517 0 506 1;
#X connect 518 0 505 1;
#X connect 519 0 504 1;
#X connect 520 0 503 1;
#X connect 521 0 502 1;
#X connect 522 0 501 1;
#X connect 523 0 500 1;
#X connect 524 0 536 0;
#X connect 524 0 528 0;
#X connect 524 0 526 0;
#X connect 524 0 527 0;
#X connect 524 0 529 0;
#X connect 524 0 530 0;
#X connect 524 0 532 0;
#X connect 524 0 533 0;
#X connect 524 0 534 0;
#X connect 524 0 537 0;
#X connect 524 0 543 0;
#X connect 524 0 542 0;
#X connect 524 0 604 0;
#X connect 526 0 335 0;
#X connect 526 0 310 0;
#X connect 526 0 30 0;
#X connect 527 0 330 0;
#X connect 527 0 300 0;
#X connect 527 0 35 0;
#X connect 528 0 340 0;
#X connect 528 0 295 0;
#X connect 528 0 15 0;
#X connect 529 0 40 0;
#X connect 529 0 0 0;
#X connect 529 0 315 0;
#X connect 530 0 325 0;
#X connect 530 0 20 0;
#X connect 530 0 25 0;
#X connect 530 0 305 0;
#X connect 530 0 45 0;
#X connect 533 0 285 0;
#X connect 533 0 5 0;
#X connect 534 0 320 0;
#X connect 534 0 290 0;
#X connect 534 0 10 0;
#X connect 535 0 0 0;
#X connect 535 0 5 0;
#X connect 535 0 10 0;
#X connect 535 0 15 0;
#X connect 535 0 20 0;
#X connect 535 0 25 0;
#X connect 535 0 30 0;
#X connect 535 0 35 0;
#X connect 535 0 40 0;
#X connect 535 0 45 0;
#X connect 535 0 50 0;
#X connect 535 0 55 0;
#X connect 536 0 341 0;
#X connect 536 0 336 0;
#X connect 536 0 331 0;
#X connect 536 0 326 0;
#X connect 536 0 316 0;
#X connect 536 0 311 0;
#X connect 536 0 306 0;
#X connect 536 0 301 0;
#X connect 536 0 321 0;
#X connect 536 0 296 0;
#X connect 536 0 291 0;
#X connect 536 0 286 0;
#X connect 536 0 6 0;
#X connect 536 0 11 0;
#X connect 536 0 1 0;
#X connect 536 0 16 0;
#X connect 536 0 21 0;
#X connect 536 0 26 0;
#X connect 536 0 31 0;
#X connect 536 0 36 0;
#X connect 536 0 41 0;
#X connect 536 0 46 0;
#X connect 536 0 51 0;
#X connect 536 0 56 0;
#X connect 536 0 317 0;
#X connect 536 0 12 0;
#X connect 536 0 22 0;
#X connect 537 0 317 0;
#X connect 537 0 2 0;
#X connect 537 0 7 0;
#X connect 537 0 17 0;
#X connect 537 0 42 0;
#X connect 537 0 37 0;
#X connect 537 0 32 0;
#X connect 537 0 27 0;
#X connect 538 0 62 0;
#X connect 538 0 524 0;
#X connect 540 0 524 0;
#X connect 542 0 342 0;
#X connect 542 0 337 0;
#X connect 542 0 332 0;
#X connect 542 0 327 0;
#X connect 542 0 322 0;
#X connect 542 0 312 0;
#X connect 542 0 307 0;
#X connect 542 0 302 0;
#X connect 542 0 297 0;
#X connect 542 0 292 0;
#X connect 542 0 287 0;
#X connect 542 0 12 0;
#X connect 542 0 22 0;
#X connect 542 0 47 0;
#X connect 542 0 52 0;
#X connect 542 0 57 0;
#X connect 543 0 317 0;
#X connect 543 0 2 0;
#X connect 543 0 7 0;
#X connect 543 0 17 0;
#X connect 543 0 27 0;
#X connect 543 0 32 0;
#X connect 543 0 37 0;
#X connect 543 0 42 0;
#X connect 544 0 63 0;
#X connect 545 0 62 0;
#X connect 548 0 176 0;
#X connect 550 0 536 0;
#X connect 551 0 524 0;
#X connect 552 0 208 0;
#X connect 553 0 126 0;
#X connect 554 0 151 0;
#X connect 558 0 494 0;
#X connect 558 0 268 0;
#X connect 560 0 214 0;
#X connect 560 0 445 0;
#X connect 561 0 469 0;
#X connect 561 0 239 0;
#X connect 564 0 569 0;
#X connect 564 0 570 0;
#X connect 564 0 571 0;
#X connect 564 0 572 0;
#X connect 564 0 573 0;
#X connect 567 0 342 0;
#X connect 569 0 344 0;
#X connect 569 0 328 0;
#X connect 569 0 323 0;
#X connect 570 0 339 0;
#X connect 570 0 338 0;
#X connect 570 0 333 0;
#X connect 570 0 318 0;
#X connect 570 0 313 0;
#X connect 571 0 334 0;
#X connect 571 0 343 0;
#X connect 571 0 308 0;
#X connect 572 0 151 0;
#X connect 573 0 126 0;
#X connect 574 0 576 0;
#X connect 575 0 579 0;
#X connect 576 0 343 0;
#X connect 576 0 338 0;
#X connect 576 0 333 0;
#X connect 576 0 328 0;
#X connect 576 0 323 0;
#X connect 576 0 313 0;
#X connect 576 0 308 0;
#X connect 576 0 303 0;
#X connect 576 0 318 0;
#X connect 576 0 293 0;
#X connect 576 0 288 0;
#X connect 576 0 3 0;
#X connect 576 0 8 0;
#X connect 576 0 13 0;
#X connect 576 0 23 0;
#X connect 576 0 33 0;
#X connect 576 0 38 0;
#X connect 576 0 43 0;
#X connect 576 0 48 0;
#X connect 576 0 53 0;
#X connect 576 0 58 0;
#X connect 576 0 298 0;
#X connect 576 0 18 0;
#X connect 576 0 28 0;
#X connect 579 0 344 0;
#X connect 579 0 339 0;
#X connect 579 0 334 0;
#X connect 579 0 329 0;
#X connect 579 0 324 0;
#X connect 579 0 319 0;
#X connect 579 0 314 0;
#X connect 579 0 309 0;
#X connect 579 0 304 0;
#X connect 579 0 299 0;
#X connect 579 0 289 0;
#X connect 579 0 294 0;
#X connect 579 0 4 0;
#X connect 579 0 14 0;
#X connect 579 0 59 0;
#X connect 579 0 54 0;
#X connect 579 0 49 0;
#X connect 579 0 39 0;
#X connect 579 0 34 0;
#X connect 579 0 29 0;
#X connect 579 0 24 0;
#X connect 579 0 19 0;
#X connect 579 0 9 0;
#X connect 579 0 44 0;
#X connect 580 0 328 0;
#X connect 580 0 323 0;
#X connect 581 0 343 0;
#X connect 581 0 308 0;
#X connect 582 0 126 0;
#X connect 583 0 344 0;
#X connect 584 0 339 0;
#X connect 585 0 334 0;
#X connect 586 0 151 0;
#X connect 587 0 338 0;
#X connect 587 0 333 0;
#X connect 587 0 318 0;
#X connect 587 0 313 0;
#X connect 588 0 580 0;
#X connect 588 0 587 0;
#X connect 588 0 581 0;
#X connect 588 0 582 0;
#X connect 589 0 583 0;
#X connect 589 0 584 0;
#X connect 589 0 585 0;
#X connect 589 0 586 0;
#X connect 592 0 602 0;
#X connect 592 0 601 0;
#X connect 592 0 600 0;
#X connect 592 0 599 0;
#X connect 592 0 598 0;
#X connect 592 0 597 0;
#X connect 592 0 596 0;
#X connect 592 0 595 0;
#X connect 592 0 594 0;
#X connect 592 0 603 0;
#X connect 594 0 342 0;
#X connect 594 0 12 0;
#X connect 595 0 337 0;
#X connect 595 0 7 0;
#X connect 596 0 332 0;
#X connect 596 0 12 0;
#X connect 597 0 327 0;
#X connect 597 0 287 0;
#X connect 598 0 322 0;
#X connect 598 0 2 0;
#X connect 599 0 317 0;
#X connect 599 0 297 0;
#X connect 600 0 312 0;
#X connect 600 0 292 0;
#X connect 601 0 307 0;
#X connect 602 0 302 0;
#X connect 603 0 208 0;
#X connect 604 0 343 0;
#X connect 604 0 338 0;
#X connect 604 0 328 0;
#X connect 604 0 333 0;
#X connect 604 0 323 0;
#X connect 604 0 318 0;
#X connect 604 0 313 0;
#X connect 604 0 308 0;
#X connect 604 0 339 0;
#X connect 604 0 344 0;
#X connect 604 0 334 0;
#X connect 607 0 543 0;
#X connect 607 0 542 0;
#X connect 609 0 56 0;
#X connect 609 0 51 0;
#X connect 609 0 46 0;
#X connect 609 0 41 0;
#X connect 609 0 36 0;
#X connect 609 0 31 0;
#X connect 609 0 26 0;
#X connect 609 0 21 0;
#X connect 609 0 16 0;
#X connect 609 0 11 0;
#X connect 609 0 6 0;
#X connect 609 0 1 0;
#X connect 609 0 286 0;
#X connect 609 0 291 0;
#X connect 609 0 296 0;
#X connect 609 0 301 0;
#X connect 609 0 306 0;
#X connect 609 0 311 0;
#X connect 609 0 316 0;
#X connect 609 0 321 0;
#X connect 609 0 326 0;
#X connect 609 0 331 0;
#X connect 609 0 336 0;
#X connect 609 0 341 0;
#X connect 611 0 61 0;
#X connect 611 1 612 0;
#X connect 612 0 61 1;
#X connect 613 0 76 0;
#X connect 613 1 75 0;
#X connect 613 2 74 0;
#X connect 613 3 73 0;
#X connect 613 4 72 0;
#X connect 613 5 71 0;
#X connect 613 6 70 0;
#X connect 613 7 69 0;
#X connect 613 8 68 0;
#X connect 613 9 67 0;
#X connect 613 10 66 0;
#X connect 613 11 65 0;
#X connect 613 12 499 0;
#X connect 613 13 345 0;
#X connect 613 14 346 0;
#X connect 613 15 347 0;
#X connect 613 16 348 0;
#X connect 613 17 349 0;
#X connect 613 18 350 0;
#X connect 613 19 351 0;
#X connect 613 20 352 0;
#X connect 613 21 353 0;
#X connect 613 22 354 0;
#X connect 613 23 355 0;
#X connect 614 0 163 0;
#X connect 614 1 162 0;
#X connect 614 2 161 0;
#X connect 614 3 160 0;
#X connect 614 4 159 0;
#X connect 614 5 158 0;
#X connect 614 6 157 0;
#X connect 614 7 156 0;
#X connect 614 8 155 0;
#X connect 614 9 154 0;
#X connect 614 10 153 0;
#X connect 614 11 152 0;
#X connect 614 12 404 0;
#X connect 614 13 405 0;
#X connect 614 14 406 0;
#X connect 614 15 407 0;
#X connect 614 16 408 0;
#X connect 614 17 409 0;
#X connect 614 18 410 0;
#X connect 614 19 411 0;
#X connect 614 20 412 0;
#X connect 614 21 413 0;
#X connect 614 22 414 0;
#X connect 614 23 415 0;
#X connect 615 0 101 0;
#X connect 615 1 100 0;
#X connect 615 2 99 0;
#X connect 615 3 98 0;
#X connect 615 4 97 0;
#X connect 615 5 96 0;
#X connect 615 6 95 0;
#X connect 615 7 94 0;
#X connect 615 8 93 0;
#X connect 615 9 92 0;
#X connect 615 10 91 0;
#X connect 615 11 90 0;
#X connect 615 12 500 0;
#X connect 615 13 501 0;
#X connect 615 14 502 0;
#X connect 615 15 503 0;
#X connect 615 16 504 0;
#X connect 615 17 505 0;
#X connect 615 18 506 0;
#X connect 615 19 507 0;
#X connect 615 20 508 0;
#X connect 615 21 509 0;
#X connect 615 22 510 0;
#X connect 615 23 511 0;
#X connect 616 0 125 0;
#X connect 616 1 124 0;
#X connect 616 2 123 0;
#X connect 616 3 122 0;
#X connect 616 4 121 0;
#X connect 616 5 120 0;
#X connect 616 6 119 0;
#X connect 616 7 118 0;
#X connect 616 8 117 0;
#X connect 616 9 116 0;
#X connect 616 10 115 0;
#X connect 616 11 114 0;
#X connect 616 12 368 0;
#X connect 616 13 369 0;
#X connect 616 14 370 0;
#X connect 616 15 371 0;
#X connect 616 16 372 0;
#X connect 616 17 373 0;
#X connect 616 18 374 0;
#X connect 616 19 375 0;
#X connect 616 20 376 0;
#X connect 616 21 377 0;
#X connect 616 22 378 0;
#X connect 616 23 379 0;
#X connect 617 0 138 0;
#X connect 617 1 137 0;
#X connect 617 2 136 0;
#X connect 617 3 135 0;
#X connect 617 4 134 0;
#X connect 617 5 133 0;
#X connect 617 6 132 0;
#X connect 617 7 131 0;
#X connect 617 8 130 0;
#X connect 617 9 129 0;
#X connect 617 10 128 0;
#X connect 617 11 127 0;
#X connect 617 12 380 0;
#X connect 617 13 381 0;
#X connect 617 14 382 0;
#X connect 617 15 383 0;
#X connect 617 16 384 0;
#X connect 617 17 385 0;
#X connect 617 18 386 0;
#X connect 617 19 387 0;
#X connect 617 20 388 0;
#X connect 617 21 389 0;
#X connect 617 22 390 0;
#X connect 617 23 391 0;
#X connect 618 0 623 0;
#X connect 618 1 622 0;
#X connect 618 2 621 0;
#X connect 618 3 620 0;
#X connect 618 4 619 0;
#X connect 624 0 613 1;
#X connect 625 0 615 1;
#X connect 626 0 616 1;
#X connect 627 0 617 1;
#X connect 628 0 614 1;
#X connect 630 0 629 0;
#X coords 0 -1 1 1 550 700 1 100 100;
