#N canvas 426 216 1013 300 10;
#X obj 411 124 outlet;
#X obj 678 40 select 0;
#X obj 620 38 select 1;
#X obj 561 39 select 2;
#X obj 503 39 select 3;
#X obj 446 39 select 4;
#X obj 388 39 select 5;
#X obj 330 39 select 6;
#X obj 272 39 select 7;
#X obj 214 39 select 8;
#X obj 156 37 select 9;
#X obj 96 40 select 10;
#X obj 30 40 select 11;
#X msg 30 68 60;
#X msg 95 66 61;
#X msg 156 66 62;
#X msg 214 66 63;
#X msg 272 66 64;
#X msg 330 66 65;
#X msg 388 67 66;
#X msg 446 66 67;
#X msg 503 66 68;
#X msg 561 66 69;
#X msg 619 66 70;
#X msg 678 67 71;
#X obj 478 -55 inlet;
#X connect 1 0 24 0;
#X connect 2 0 23 0;
#X connect 3 0 22 0;
#X connect 4 0 21 0;
#X connect 5 0 20 0;
#X connect 6 0 19 0;
#X connect 7 0 18 0;
#X connect 8 0 17 0;
#X connect 9 0 16 0;
#X connect 10 0 15 0;
#X connect 11 0 14 0;
#X connect 12 0 13 0;
#X connect 13 0 0 0;
#X connect 14 0 0 0;
#X connect 15 0 0 0;
#X connect 16 0 0 0;
#X connect 17 0 0 0;
#X connect 18 0 0 0;
#X connect 19 0 0 0;
#X connect 20 0 0 0;
#X connect 21 0 0 0;
#X connect 22 0 0 0;
#X connect 23 0 0 0;
#X connect 24 0 0 0;
#X connect 25 0 12 0;
#X connect 25 0 1 0;
#X connect 25 0 2 0;
#X connect 25 0 3 0;
#X connect 25 0 4 0;
#X connect 25 0 5 0;
#X connect 25 0 6 0;
#X connect 25 0 7 0;
#X connect 25 0 8 0;
#X connect 25 0 9 0;
#X connect 25 0 10 0;
#X connect 25 0 11 0;
