#N canvas 0 0 960 560 10;
#X obj 234 -26 inlet;
#X obj 699 57 select 0;
#X obj 640 58 select 1;
#X obj 581 59 select 2;
#X obj 523 59 select 3;
#X obj 466 59 select 4;
#X obj 408 59 select 5;
#X obj 350 59 select 6;
#X obj 292 59 select 7;
#X obj 234 59 select 8;
#X obj 791 -20 inlet;
#X obj 626 266 +;
#X msg 455 133 0;
#X msg 407 131 -12;
#X msg 349 130 -24;
#X msg 291 130 -36;
#X msg 233 131 -48;
#X msg 512 133 12;
#X msg 570 133 24;
#X msg 628 133 36;
#X msg 687 133 48;
#X obj 689 317 moses 109;
#X obj 580 410 moses 21;
#X obj 666 483 outlet;
#X obj 741 352 - 84;
#X obj 562 449 + 84;
#X connect 0 0 1 0;
#X connect 0 0 2 0;
#X connect 0 0 3 0;
#X connect 0 0 4 0;
#X connect 0 0 5 0;
#X connect 0 0 6 0;
#X connect 0 0 7 0;
#X connect 0 0 8 0;
#X connect 0 0 9 0;
#X connect 1 0 20 0;
#X connect 2 0 19 0;
#X connect 3 0 18 0;
#X connect 4 0 17 0;
#X connect 5 0 12 0;
#X connect 6 0 13 0;
#X connect 7 0 14 0;
#X connect 8 0 15 0;
#X connect 9 0 16 0;
#X connect 10 0 11 0;
#X connect 11 0 21 0;
#X connect 12 0 11 1;
#X connect 13 0 11 1;
#X connect 14 0 11 1;
#X connect 15 0 11 1;
#X connect 16 0 11 1;
#X connect 17 0 11 1;
#X connect 18 0 11 1;
#X connect 19 0 11 1;
#X connect 20 0 11 1;
#X connect 21 0 22 0;
#X connect 21 1 24 0;
#X connect 22 0 25 0;
#X connect 22 1 23 0;
#X connect 24 0 23 0;
#X connect 25 0 23 0;
