#N canvas 0 0 450 300 10;
#X obj 79 22 inlet;
#X obj 196 74 select 0;
#X obj 138 72 select 1;
#X obj 79 73 select 2;
#X obj 283 7 inlet;
#X obj 223 220 +;
#X obj 189 270 outlet;
#X msg 136 144 0;
#X msg 195 144 1;
#X msg 78 144 -1;
#X connect 0 0 1 0;
#X connect 0 0 2 0;
#X connect 0 0 3 0;
#X connect 1 0 8 0;
#X connect 2 0 7 0;
#X connect 3 0 9 0;
#X connect 4 0 5 1;
#X connect 5 0 6 0;
#X connect 7 0 5 0;
#X connect 8 0 5 0;
#X connect 9 0 5 0;
