#N canvas -88 178 907 300 10;
#X obj 41 30 inlet;
#X obj -191 67 mod;
#X obj -173 15 inlet;
#X obj 44 54 f;
#X obj 73 59 + 1;
#X obj 656 169 select 0;
#X obj 598 167 select 1;
#X obj 539 168 select 2;
#X obj 481 168 select 3;
#X obj 424 168 select 4;
#X obj 366 168 select 5;
#X obj 308 168 select 6;
#X obj 250 168 select 7;
#X obj 192 168 select 8;
#X obj 134 166 select 9;
#X obj 74 169 select 10;
#X obj 8 169 select 11;
#X obj 9 214 outlet;
#X obj 72 215 outlet;
#X obj 133 215 outlet;
#X obj 192 211 outlet;
#X obj 253 213 outlet;
#X obj 313 211 outlet;
#X obj 372 211 outlet;
#X obj 432 210 outlet;
#X obj 487 213 outlet;
#X obj 542 209 outlet;
#X obj 600 208 outlet;
#X obj 656 207 outlet;
#X obj -791 212 outlet;
#X obj -722 213 outlet;
#X obj -653 213 outlet;
#X obj -586 210 outlet;
#X obj -513 212 outlet;
#X obj -448 210 outlet;
#X obj -383 209 outlet;
#X obj -316 208 outlet;
#X obj -248 209 outlet;
#X obj -185 207 outlet;
#X obj -122 207 outlet;
#X obj -56 208 outlet;
#X obj -56 170 select 12;
#X obj -124 166 select 13;
#X obj -188 166 select 14;
#X obj -254 164 select 15;
#X obj -324 166 select 16;
#X obj -389 166 select 17;
#X obj -452 168 select 18;
#X obj -516 167 select 19;
#X obj -586 167 select 20;
#X obj -652 164 select 21;
#X obj -720 168 select 22;
#X obj -792 167 select 23;
#X connect 0 0 3 0;
#X connect 1 0 5 0;
#X connect 1 0 6 0;
#X connect 1 0 7 0;
#X connect 1 0 8 0;
#X connect 1 0 9 0;
#X connect 1 0 10 0;
#X connect 1 0 11 0;
#X connect 1 0 12 0;
#X connect 1 0 13 0;
#X connect 1 0 14 0;
#X connect 1 0 15 0;
#X connect 1 0 16 0;
#X connect 1 0 41 0;
#X connect 1 0 42 0;
#X connect 1 0 43 0;
#X connect 1 0 44 0;
#X connect 1 0 45 0;
#X connect 1 0 46 0;
#X connect 1 0 47 0;
#X connect 1 0 48 0;
#X connect 1 0 49 0;
#X connect 1 0 50 0;
#X connect 1 0 51 0;
#X connect 1 0 52 0;
#X connect 2 0 1 1;
#X connect 3 0 4 0;
#X connect 3 0 1 0;
#X connect 4 0 3 1;
#X connect 5 0 28 0;
#X connect 6 0 27 0;
#X connect 7 0 26 0;
#X connect 8 0 25 0;
#X connect 9 0 24 0;
#X connect 10 0 23 0;
#X connect 11 0 22 0;
#X connect 12 0 21 0;
#X connect 13 0 20 0;
#X connect 14 0 19 0;
#X connect 15 0 18 0;
#X connect 16 0 17 0;
#X connect 41 0 40 0;
#X connect 42 0 39 0;
#X connect 43 0 38 0;
#X connect 44 0 37 0;
#X connect 45 0 36 0;
#X connect 46 0 35 0;
#X connect 47 0 34 0;
#X connect 48 0 33 0;
#X connect 49 0 32 0;
#X connect 50 0 31 0;
#X connect 51 0 30 0;
#X connect 52 0 29 0;
